<?xml version="1.0" encoding="UTF-8"?><svg id="Layer_1" xmlns="http://www.w3.org/2000/svg" viewBox="0 0 425.19685 340.15748"><path d="M290.98053,151.62689c.00001-.00006,.00016-.00007,.00033-.00003" style="fill:none; stroke:#262473; stroke-miterlimit:10;"/><g><path d="M130.86334,164.03046c.57883,2.07861,.91845,5.08838,1.27599,7.18895,4.74049,27.84852,22.18257,53.13247,46.5142,67.45061,45.95717,27.50674,106.76344,11.91056,133.98858-34.19102,.00012,.00043,.48065,.74678,.48065,.74678-46.56767,4.942-96.27704-4.54844-140.33587-19.66828-11.21122-4.03481-22.27322-8.70112-32.81282-14.30068-2.16848-1.12515-4.31804-2.3261-6.43972-3.53806-1.33141-.94995-.67754-1.42251-2.67102-3.68829h0Zm-.52731-.84966c1.12447-1.7141,4.8949,.73333,6.43054,1.49682,1.72829,.90746,3.44528,1.83276,5.20625,2.68153,10.51695,5.19871,21.41665,9.63822,32.46127,13.60372,36.9503,13.055,75.80267,21.49892,115.00959,23.37237,8.15758,.37193,16.33735,.32876,24.50165-.15631-43.7043,78.77478-160.69533,62.3691-181.62776-25.06933-1.03048-4.96212-2.22452-10.87763-1.98155-15.92879h0Z" style="fill:#262473;"/><path d="M325.14789,148.98734c-8.70423-75.15624-94.18188-113.20487-155.51288-68.82918-10.31589,7.60071-19.18009,16.97052-26.0313,27.91705-.0001-.00011-.86738-.49792-.86738-.49792,8.41922-16.3084,22.10876-29.75669,38.09438-38.74996,40.44492-22.69049,92.88173-13.0675,122.61098,22.53044,13.61949,16.00365,21.87546,36.59757,22.70317,57.55189,.00001,0-.99697,.07767-.99697,.07767h0Z" style="fill:#262473;"/><path d="M143.21674,108.32404c-35.16424,3.38993-60.54133,19.73031-21.49294,46.6568,3.36654,2.73133,7.19079,4.01774,8.87564,8.62284-1.08689-4.75807-1.49458-9.68751-1.39958-14.59322,.19859-9.83282,2.38359-19.63992,6.2842-28.66291,1.9565-4.50883,4.33704-8.83526,7.25209-12.76994l.86761,.49725c-1.89319,4.45778-3.68896,8.88548-5.23145,13.39368-3.09766,9.01105-5.21523,18.29749-6.42722,27.74293-.61407,4.73681-.99777,9.523-1.34717,14.39475-4.63824,.75027-8.08052-2.46675-11.64187-4.8151-3.37756-2.45384-6.58664-5.18725-9.46969-8.28145-21.89789-23.78427-4.23514-37.50187,21.42196-41.61646,4.0491-.71835,8.12846-1.21123,12.21485-1.56479l.09358,.99561h0Z" style="fill:#262473;"/><path d="M326.14487,148.90997c2.34747,18.8053-1.39456,40.51499-12.63462,56.06662-.0003-.00009-.48086-.74647-.48086-.74647,8.06671-1.15193,16.10471-2.67873,23.66043-5.40317,28.51719-10.52097,16.60512-28.22491-1.46747-42.21945-3.18959-2.51931-6.49534-4.89201-9.83181-7.22936,.00002-.00003,.51162-.85927,.51162-.85927,7.3139,3.73564,14.36142,8.18042,20.47021,13.92009,10.43012,9.46322,16.32498,23.7121,2.55759,33.36602-10.55961,6.98145-23.55563,8.6403-35.80691,9.421-.00007-.00022-.83519,.04403-.83519,.04403l.35446-.79079c3.7173-8.87346,7.38008-17.64064,9.55786-27.00188,2.22924-9.308,3.15355-18.91497,2.94759-28.49034,.00004,0,.99708-.07704,.99708-.07704h0Z" style="fill:#262473;"/></g><path d="M120.4856,158.13392c2.1743,1.82889,4.59575,3.14875,7.22467,4.19916,2.30498,.92098,4.86776,1.86016,6.19991,4.10569l.51307-.51307c-1.96775-1.24326-3.76881-2.70676-5.39155-4.37516-.33712-.34661-.8672,.18398-.53033,.53033,1.66607,1.71295,3.52333,3.21615,5.54334,4.49244,.32063,.20258,.70083-.19658,.51307-.51307-1.26357-2.12991-3.51898-3.18606-5.72876-4.08235-2.82426-1.14551-5.46072-2.39561-7.8131-4.37429-.36712-.3088-.90031,.21912-.53033,.53033h0Z" style="fill:#262473;"/><path d="M126.46387,161.61558c1.99303,.82199,3.81733,2.02915,5.36616,3.52674,.34713,.33565,.87811-.19406,.53033-.53033-1.64777-1.59324-3.57951-2.84626-5.69711-3.71962-.18872-.07784-.41031,.08435-.46129,.26191-.0616,.21452,.07565,.38447,.26191,.46129h0Z" style="fill:#262473;"/><path d="M132.66784,164.88591l-5.38597-2.87095-.28896,.68541c2.11851,.54326,4.03359,1.80297,5.34379,3.55938,.28528,.38244,.93664,.00893,.6476-.37854-1.42917-1.91591-3.47261-3.30928-5.79201-3.90405-.40182-.10304-.67367,.48034-.28896,.68541,1.79532,.95698,3.59065,1.91397,5.38597,2.87095,.42578,.22696,.80509-.42023,.37854-.6476h0Z" style="fill:#262473;"/><path d="M128.67729,162.30203c.48259,0,.48339-.75,0-.75-.48259,0-.48339,.75,0,.75h0Z" style="fill:#262473;"/><path d="M128.49749,161.7678c.49316,.93907,1.56052,1.54478,2.62018,1.48105,.19544-.01175,.38445-.16406,.375-.375-.00865-.19309-.16529-.38761-.375-.375-.11313,.0068-.22627,.00657-.33925-.0029-.02253-.00189-.04497-.00482-.06749-.00666,.07593,.0062-.0016-.00035-.01783-.00303-.05579-.00921-.1112-.02041-.1662-.03355-.10458-.02498-.20749-.05687-.30792-.09529,.00162,.00062-.09003-.03788-.04958-.01967,.04213,.01896-.04038-.01934-.04815-.02305-.05111-.02447-.10142-.05066-.15078-.0785-.0938-.05291-.18404-.11191-.27042-.17622-.04971-.03701,.06435,.05494-.0177-.0147-.02158-.01832-.04334-.03639-.06456-.05513-.03817-.0337-.07533-.06853-.11133-.10454-.03996-.03998-.07854-.08138-.11557-.12408-.01852-.02135-.03651-.04314-.05433-.06507-.03899-.04797,.04849,.06938-.01351-.01833-.06557-.09277-.12513-.18822-.17796-.28884-.09135-.17395-.34818-.24084-.51307-.13453-.17705,.11415-.23224,.32701-.13453,.51307h0Z" style="fill:#262473;"/><path d="M127.30172,162.01285c1.08511,.0991,2.1511,.33474,3.17628,.7048,.51129,.18456,1.00901,.40392,1.49094,.65536,.24134,.12591,.48222,.25646,.71248,.4018,.16577,.10463,.26891,.0894,.10991,.2506-.15218,.15429-.31659,.09877-.5224,.06404-1.93165-.32601-3.49631-1.7032-5.4273-2.05817-.33965-.06244-.55809,.24548-.42349,.55087,.3689,.83703,1.24566,.70225,1.93759,1.0535,.3598,.18265,.58805,.57237,.92221,.80188,.29759,.20439,.63317,.33856,.96441,.47716,.39917,.16703,.78556,.33374,1.11577,.62029,.33912,.29428,.64031,.62446,.99307,.90461,.66688,.52962,1.40557,.92878,2.20248,1.22512l.19938-.72321c-.91964-.16396-1.79633-.90046-2.5889-1.37577-.88205-.52898-1.7641-1.05795-2.64615-1.58693-1.68579-1.01099-3.38131-2.0092-4.98571-3.14747-.3944-.27981-.76943,.37028-.37854,.6476,1.66021,1.17786,3.41773,2.20714,5.16212,3.25326,.88205,.52898,1.7641,1.05795,2.64615,1.58693,.79941,.47941,1.65562,1.1787,2.59165,1.34558,.47599,.08486,.65395-.55418,.19938-.72321-.77497-.28817-1.5024-.70358-2.1292-1.24488-.60179-.5197-1.06546-1.02844-1.81054-1.34986-.32488-.14015-.65955-.26043-.96665-.43825-.3341-.19346-.54432-.49398-.83858-.73229-.53513-.43338-1.65115-.31191-1.94234-.97261l-.42349,.55087c1.35381,.24887,2.51705,.98148,3.76367,1.52154,.78345,.3394,2.58123,1.143,3.17468,.11419,.25115-.43539,.05593-.86832-.3274-1.14035-.57444-.40765-1.24688-.7139-1.89317-.9872-1.29564-.54789-2.65884-.872-4.05832-.99981-.48048-.04388-.4775,.70639,0,.75h0Z" style="fill:#262473;"/><path d="M136.69962,168.26037c-4.51773-2.35643-9.35684-4.48602-13.35999-7.68472-.37344-.29839-.9075,.22896-.53033,.53033,4.05937,3.24362,8.93033,5.41232,13.51178,7.80199,.42746,.22296,.80711-.42406,.37854-.6476h0Z" style="fill:#262473;"/><path d="M124.71157,158.62996c1.27181,.70957,2.2269,1.84073,3.36071,2.73651,1.0862,.85817,2.2598,1.58216,3.50668,2.18217,.30125,.14497,.75627-.18092,.51307-.51307-1.0075-1.37602-2.04668-2.73818-3.54722-3.60605l-.37854,.6476c1.03789,.5479,1.91517,1.28911,2.60664,2.2391l.42349-.55087c-1.20022-.46612-2.24532-1.17455-3.1391-2.09994l-.36485,.62677c1.54505,.604,2.85762,1.59258,3.89608,2.88266l.45443-.58897c-1.05852-.61946-1.96482-1.41565-2.69859-2.39948l-.51307,.51307c1.35122,.7606,2.57634,1.68071,3.68174,2.76829l.45443-.58897c-2.8395-2.04849-5.679-4.09698-8.5185-6.14546-.34285-.24734-.77936,.31414-.45443,.58897,1.65484,1.39971,3.54289,2.43809,5.44733,3.45383,.42741,.22796,.78352-.38516,.37854-.6476-1.11081-.71983-2.22162-1.43967-3.33243-2.1595l-.37854,.6476c2.53298,1.51497,4.46283,3.61451,6.69855,5.49626,1.0008,.84235,2.07354,1.54584,3.22691,2.16164,.60323,.32207,1.21461,.62932,1.81002,.96591,.34407,.1945,1.76822,.85287,1.80169,1.26662l.18573-.3238,.29211,.06965-.05864,.45443,.04569-.05306c.31346-.36405-.21474-.89686-.53033-.53033l-.04569,.05306c-.10107,.11739-.15888,.31409-.05864,.45443,.18831,.26365,.44147,.36461,.73403,.19941,.10748-.06069,.19602-.19664,.18573-.3238-.04588-.5671-.45773-.80457-.90456-1.12117-.59328-.42036-1.22739-.77787-1.86785-1.12047-1.42151-.76039-2.82584-1.48223-4.07881-2.51061-2.37609-1.95019-4.39318-4.19231-7.05741-5.78578-.41691-.24936-.78171,.38634-.37854,.6476,1.11081,.71983,2.22162,1.43967,3.33243,2.1595l.37854-.6476c-1.84483-.98394-3.69191-1.98016-5.29554-3.33656l-.45443,.58897c2.8395,2.04849,5.679,4.09698,8.5185,6.14546,.35011,.25258,.75202-.29618,.45443-.58897-1.14932-1.13078-2.4284-2.09461-3.83353-2.88556-.30216-.17009-.74948,.1961-.51307,.51307,.81228,1.08912,1.79446,1.98198,2.96765,2.66855,.39023,.22837,.70909-.27261,.45443-.58897-1.12429-1.3967-2.5596-2.42369-4.22703-3.07553-.36676-.14338-.60603,.37706-.36485,.62677,.98683,1.02173,2.14694,1.77897,3.47005,2.29282,.29537,.11471,.6108-.29354,.42349-.55087-.76775-1.05479-1.72091-1.89855-2.87571-2.50816-.42574-.22475-.79832,.40481-.37854,.6476,1.38643,.80187,2.34715,2.06545,3.27815,3.33699l.51307-.51307c-1.34964-.64946-2.62401-1.44161-3.77324-2.40491-1.02267-.85721-1.91762-1.85738-3.09414-2.51378-.42193-.2354-.80055,.41215-.37854,.6476h0Z" style="fill:#262473;"/><path d="M121.55196,156.29241c5.74537,2.37463,10.81577,6.00504,16.13271,9.16748,2.55329,1.51866,5.26026,2.69117,7.852,4.12427,2.47542,1.36879,4.65487,3.24706,7.46525,3.90825,.46942,.11044,.66977-.61254,.19938-.72321-2.94819-.69361-5.20764-2.77442-7.84708-4.13197-2.71064-1.39416-5.42264-2.69205-8.03679-4.27248-5.10701-3.08751-10.02519-6.50545-15.56607-8.79556-.44564-.18419-.6399,.54114-.19938,.72321h0Z" style="fill:#262473;"/><path d="M133.63736,162.92824c-.20392-.07873-.43001-.16181-.59188-.3151-.14999-.14204-.18906-.33325-.24978-.52246-.12263-.38214-.28711-.708-.69419-.83624-.3117-.09819-.5914,.2765-.42349,.55087,.5,.81705,1.34481,1.2349,2.09976,1.77409,.82054,.58604,1.28944,1.43862,1.59156,2.38333,.07193,.22492,.1356,.45233,.19463,.68095,.06004,.23257,.07979,.51953,.17705,.73914,.00614,.16871,.07098,.15236,.19451-.04906-.06304-.01682-.12519-.03647-.18646-.05897-.11182-.03697-.22272-.07709-.33337-.11735-.27898-.10151-.55542-.21026-.82861-.32648-1.11753-.47541-2.20474-1.02621-3.30012-1.54994l-.28896,.68541c.48561,.17121,.82832,.75025,1.22386,1.06696,.4513,.36136,.94772,.64903,1.4781,.8778,1.07316,.46289,2.2178,.69858,3.36118,.91464,.47171,.08914,.67383-.63355,.19938-.72321-1.14087-.21559-2.31465-.43493-3.37547-.92506-.5112-.23619-.99823-.53105-1.41237-.91495-.41201-.38192-.72583-.82567-1.27531-1.01939-.39694-.13995-.67333,.50163-.28896,.68541,.97958,.46836,1.95361,.9518,2.94511,1.39457,.46611,.20815,.93781,.40451,1.4182,.5774,.33484,.1205,.8117,.33639,1.10361,.00564,.28456-.32243,.06554-.83649-.02222-1.19763-.11124-.45775-.23621-.91323-.4024-1.35443-.30832-.81853-.75149-1.59354-1.43873-2.15193-.7197-.58476-1.68703-.95948-2.18639-1.77547l-.42349,.55087c.1284,.04045,.15885,.2785,.19521,.39331,.06061,.1914,.12403,.38737,.23625,.55576,.25599,.38412,.69052,.56493,1.1044,.72472,.45058,.17395,.64567-.55091,.19938-.72321h0Z" style="fill:#262473;"/><path d="M137.0892,91.09642c-.38705,2.22902-3.05717,1.76968-4.47859,2.92288-.26585,.21569-.03363,.63342,.26517,.64017,.99551,.02248,2.01834,.31652,2.73343,1.04233,.6919,.70226,.94756,1.74534,.58192,2.66635l.72321,.19938c.14983-.87201,.43906-1.81024,1.14599-2.39556,.85123-.70478,2.0605-.53534,3.07341-.40401,.39188,.05081,.47705-.52071,.18927-.6988-.93738-.5801-1.72541-1.36687-2.29843-2.30989-.62749-1.03266-.83221-2.11438-1.06362-3.28109-.09382-.47302-.81686-.27279-.72321,.19938,.2534,1.27755,.50354,2.45867,1.21123,3.57631,.63436,1.00184,1.48798,1.83939,2.4955,2.4629l.18927-.6988c-1.19712-.15521-2.50231-.25138-3.50769,.54621-.85423,.67768-1.25567,1.76065-1.43493,2.80397-.08239,.47952,.54507,.64808,.72321,.19938,.44599-1.1234,.11004-2.41789-.68429-3.30004-.84318-.9364-2.1271-1.3303-3.35427-1.35801l.26517,.64017c.79564-.6455,1.91603-.66626,2.83634-1.04559,.95617-.39411,1.65573-1.17511,1.83513-2.20824,.08197-.47205-.64066-.67478-.72321-.19938h0Z" style="fill:#262473;"/><path d="M137.96156,94.61951c.10022-.43241,.21109-.86381,.30095-1.29849,.07605-.36789-.14789-.76067-.24602-1.11554-.19465-.70389-.31477-1.485,.05473-2.15331,.23372-.42272-.41376-.80149-.6476-.37854-.62289,1.1266-.26318,2.42363,.13575,3.56082v-.19938l-.32101,1.38506c-.10885,.46966,.6141,.67014,.72321,.19938h0Z" style="fill:#262473;"/><path d="M136.48501,94.91348l.09064-.40221c.10579-.46947-.58793-.66509-.72321-.19938-.07832,.26962-.11303,.5259-.10989,.80611,.0024,.21464,.17054,.35878,.375,.375,.97062,.07702,1.73512-.64733,1.83548-1.58677,.01242-.11627-.07778-.27665-.18573-.3238-.37842-.16529-.67333-.16855-1.04991,.0114-.26744,.12779-.21927,.50753,0,.6476,.81506,.52068,1.78063-.23709,1.64641-1.13411-.0194-.12966-.14787-.22381-.26191-.26191-.58631-.19591-1.54368,.19811-1.48103,.94405,.05648,.67239,1.00882,.60391,1.36428,.24129,.49863-.50868,.16707-1.29136-.44948-1.51405-.81962-.29603-1.4663,.36169-1.71063,1.08249-.05035,.14853,.03172,.35171,.17233,.42349,.6346,.32396,1.37374,.12894,1.72136-.50759,.07962-.14579,.06209-.3354-.05864-.45443-.71496-.70491-1.94743-.1933-2.00613,.78933-.00907,.15182,.122,.33284,.27531,.3616l.69053,.12954c.4093,.07678,.66254-.44958,.28896-.68541-.4199-.26506-.84759-.3867-1.3436-.39296-.3855-.00486-.49217,.50287-.18927,.6988,.31472,.20358,.61665,.29496,.9863,.33965,.42522,.05141,.49966-.63159,.09969-.7366-.5026-.13196-.94339-.08113-1.41607,.12304-.27699,.11964-.20955,.51,0,.6476,.37838,.24847,.76682,.36931,1.21568,.41237,.42105,.0404,.50914-.64494,.09969-.7366l-1.48636-.33274c-.47007-.10523-.6709,.61695-.19938,.72321l.92165,.2077c.46991,.1059,.67071-.61569,.19938-.72321l-.92534-.21109c-.46966-.10714-.67034,.61353-.19938,.72321l1.99966,.46568-.26191-.46129-.1267,.2798,.62677,.36485c.03027-.1497,.10238-.27542,.21634-.37717l-.58897-.45443c-.17298,.37241-.21608,.70741-.10591,1.10737,.05772,.20953,.35423,.37542,.55087,.22411,.34-.26161,.55129-.53944,.68053-.95278,.14711-.4705-.54914-.63695-.72321-.19938-.14264,.35857-.15416,.68044-.08689,1.05716,.03326,.18626,.28467,.32995,.46129,.26191,.33914-.13063,.53172-.31768,.64893-.66594,.12091-.35923-.37402-.6271-.62677-.36485-.26764,.27769-.18239,.74555,.21331,.87098,.51449,.16309,.72714-.38709,.77186-.7813,.02668-.23519-.26206-.43588-.47469-.3616-.5408,.1889-.88643,.53501-1.06917,1.0788-.11429,.34011,.27819,.54769,.55087,.42349,.8085-.36826,1.28967-1.19151,1.22659-2.07573l-.7366,.09969c.10579,.48336,.55727,.73175,1.02623,.60469,.24194-.06555,.33574-.33896,.22411-.55087l-.34321-.65156-.51307,.51307c.29039,.17697,.44811,.38346,.57877,.68949l.58897-.45443-.61748-.73881-.36485,.62677c.28412,.09948,.46521,.21047,.68694,.41355l.16548-.62677c-.10917,.06818-.22785,.08751-.35604,.05798-.41729-.03582-.51626,.66146-.09969,.7366,.13743,.02479,.27486,.04958,.41229,.07437l.09969-.7366-.85636,.09672c-.3924,.04432-.54179,.62454-.09969,.7366l1.1105,.28149,.19938-.72321-.88425-.20408c-.42528-.09815-.63533,.44426-.28896,.68541,.26324,.18327,.52017,.29627,.8309,.37179l.19938-.72321-.46679-.11061c-.47033-.11145-.66029,.57864-.19938,.72321l.44625,.13997c.41955,.1316,.63394-.45984,.28896-.68541-.482-.31516-1.07103-.37436-1.60644-.15401-.25635,.1055-.46355,.26415-.63986,.47624-.10389,.12497-.37185,.68192-.54177,.64861l.26191,.46129c.81188-2.46058,1.41941-5.03293,1.08333-7.63635-.05341-.41378-.58377-.5164-.7366-.09969-.87638,2.38948-2.02945,5.26622-4.84061,5.80382-.35345,.06759-.36245,.66275,0,.72321,1.18433,.19756,2.48378,.46221,2.94149,1.72777,.46785,1.29361,.473,2.81728,.38442,4.17252-.02431,.37193,.52803,.50984,.6988,.18927,.48627-.9128,.67055-1.91904,1.02028-2.88318,.35701-.9842,1.20456-2.19461,2.4102-1.95302,.28357,.05682,.63698-.26489,.42349-.55087-.10587-.14182-.21174-.28365-.31762-.42547-.2854-.38232-.93677-.00882-.6476,.37854,.10587,.14182,.21174,.28365,.31762,.42547l.42349-.55087c-1.15462-.23136-2.14202,.41711-2.78279,1.34484-.79116,1.14546-.84719,2.6206-1.49467,3.83603l.6988,.18927c.09943-1.52128,.10783-3.40437-.5923-4.80595-.6291-1.25937-2.00472-1.60411-3.28424-1.81755v.72321c3.08531-.59002,4.39902-3.6954,5.36443-6.32765l-.7366-.09969c.3285,2.54475-.26305,5.03211-1.05654,7.43697-.06008,.1821,.07001,.42368,.26191,.46129,.46059,.09028,.75176-.11653,1.0262-.47696,.41448-.54436,.87302-1.03352,1.58271-.56949l.28896-.68541-.44625-.13997-.19938,.72321,.46679,.11061c.46908,.11116,.66925-.60901,.19938-.72321-.2477-.0602-.4426-.15058-.65174-.29619l-.28896,.68541,.88425,.20408c.46897,.10824,.66891-.60419,.19938-.72321l-1.1105-.28149-.09969,.7366,.85636-.09672c.38087-.04302,.5537-.65471,.09969-.7366-.13743-.02479-.27486-.04958-.41229-.07437l-.09969,.7366c.2033,.01745,.36572-.00538,.55542-.08477,.24127-.10097,.39598-.41564,.16548-.62677-.30789-.282-.62408-.46855-1.01789-.60643-.38548-.13497-.58273,.36609-.36485,.62677l.61748,.73881c.29781,.35632,.74065-.09915,.58897-.45443-.17997-.42154-.45876-.72145-.84783-.95855-.33284-.20284-.68202,.19234-.51307,.51307l.34321,.65156,.22411-.55087-.10364-.08086c-.08928-.40793-.7669-.32499-.7366,.09969,.04605,.64544-.26931,1.1613-.85513,1.42813l.55087,.42349c.09188-.27341,.27242-.45964,.54534-.55497l-.47469-.3616,.32846,.14131-.09644,.36485,.06314-.06551-.62677-.36485-.1251,.14211,.46129,.26191c-.04383-.24546-.0028-.43293,.08689-.6584l-.72321-.19938c-.0471,.20893-.15905,.37712-.33586,.50456l.55087,.22411c-.07128-.17873-.06118-.35521,.03031-.52945,.16865-.36308-.27738-.786-.58897-.45443-.19912,.21188-.32542,.42876-.40922,.70812-.10292,.3431,.38164,.65839,.62677,.36485,.16215-.19417,.26101-.36431,.31958-.61075,.0454-.19106-.05874-.41398-.26191-.46129l-1.99966-.46568-.19938,.72321,.92534,.21109,.19938-.72321-.92165-.2077-.19938,.72321,1.48636,.33274,.09969-.7366c-.3191-.03062-.57074-.13504-.83714-.30998v.6476c.28824-.1245,.53854-.1261,.83815-.04743l.09969-.7366c-.23289-.02816-.41451-.11225-.60776-.23725l-.18927,.6988c.365,.00461,.65674,.09594,.96506,.29057l.28896-.68541-.69053-.12954,.27531,.3616c.02039-.34129,.49686-.48472,.7258-.259l-.05864-.45443c-.14472,.26499-.41278,.38272-.69522,.23853l.17233,.42349c.08222-.24256,.26845-.60811,.58567-.60723,.40625,.00113,.27951,.48672,.12712,.33294l.09644,.36485c.05747-.28501,.26761-.41323,.54504-.32053l-.26191-.26191c.04871,.32551-.36511,.40183-.54466,.28713v.6476l.29283-.0114-.18573-.3238c-.05971,.55895-.55693,.87871-1.08548,.83677l.375,.375c-.0024-.21481,.02318-.40044,.0831-.60673l-.72321-.19938-.09064,.40221c-.10593,.47007,.61698,.67079,.72321,.19938h0Z" style="fill:#262473;"/><path d="M136.82921,93.20185l.56829-1.03874c.21031-.38441-.2703-.72928-.58897-.45443-.25185,.21721-.50369,.43443-.75554,.65164-.29473,.2542,.02167,.71562,.36485,.62677,.18359-.04753,.31488-.17018,.38643-.34463,.03427-.08357,.05007-.16318,.05899-.25371,.00369-.03957,.00594-.07923,.00674-.11897,.02053-.08072-.01843-.05178-.11687,.08682h-.19938c-.0627-.03234-.1138-.07603-.15329-.13108v-.19938l-.00545,.02868,.09644-.16548-.01855,.01907,.16548-.09644-.03339,.00498,.46129,.46129c.14515-.36539,.33282-.71079,.5475-1.03978l-.68541-.28896c-.08936,.38944-.17872,.77888-.26808,1.16832-.10786,.47006,.58195,.66241,.72321,.19938l.22942-.75203c.12307-.40341-.48357-.66599-.68541-.28896-.328,.6127-.69163,1.40058-.30094,2.07209,.30093,.51724,.99038,.84186,1.53398,.48844l-.55087-.42349c-.07794,.28879-.20626,.55066-.40108,.77921-.11856,.13909-.17002,.39847,0,.53033,.47693,.3699,1.04134,.57041,1.64989,.51644,.48461-.04297,.47946-.69969,0-.75-.32444-.03404-.64889-.06808-.97333-.10213-.1635-.01716-.31843,.12901-.3616,.27531-.11459,.38827-.22918,.77655-.34377,1.16482-.08128,.27539,.1895,.53668,.46129,.46129,1.06518-.29543,2.15496-.43884,3.2603-.42956,.23337,.00196,.43911-.24268,.3616-.47469-.04538-.13586-.09076-.27172-.13615-.40757-.15216-.45551-.87674-.26023-.72321,.19938,.04538,.13586,.09076,.27172,.13615,.40757l.3616-.47469c-1.16807-.00981-2.33406,.14415-3.45968,.45635l.46129,.46129c.11459-.38827,.22918-.77655,.34377-1.16482l-.3616,.27531c.32444,.03404,.64889,.06808,.97333,.10213v-.75c-.3973,.03523-.79861-.04786-1.11956-.29677v.53033c.28032-.32886,.48105-.69179,.59396-1.11016,.08199-.30381-.27033-.60588-.55087-.42349-.21598,.14042-.47246-.09032-.54401-.29822-.14008-.40699,.15282-.89192,.33711-1.23617l-.68541-.28896-.22942,.75203,.72321,.19938c.08936-.38944,.17872-.77888,.26808-1.16832,.09579-.41747-.45121-.64787-.68541-.28896-.25131,.38513-.45344,.79185-.6231,1.21894-.11823,.29762,.21476,.49805,.46129,.46129,.48971-.07302,.37508-.76966-.01717-.89719-.20644-.06712-.42281,.03335-.54239,.20487-.06458,.09263-.09635,.19584-.11198,.30682-.00568,.04035-.02307,.10608-.0141,.14717,.02017,.09241-.0959,.0127,.09973-.03794l.36485,.62677c.25185-.21721,.50369-.43443,.75554-.65164l-.58897-.45443-.56829,1.03874c-.23177,.42363,.41563,.80255,.6476,.37854h0Z" style="fill:#262473;"/><path d="M312.62773,221.31983c3.69329-1.07378,5.97806-4.34316,7.9863-7.40246l-.6988-.18927c-.31457,2.40824-.4826,4.82272,.80019,6.99254,1.02384,1.73182,2.6913,2.99323,4.62181,3.53599l.19938-.72321c-6.03798-.89752-9.6559,4.75423-12.14926,9.31347-.23645,.43235,.36767,.76133,.6476,.37854,1.61401-2.20708,1.99073-4.99821,1.67135-7.66235-.26672-2.2249-1.1973-5.27561-3.99966-5.07538-.47866,.0342-.48242,.78447,0,.75,2.79512-.19971,3.27517,3.51681,3.34774,5.56553,.07648,2.1592-.37733,4.28004-1.66704,6.04367l.6476,.37854c2.29285-4.19259,5.66618-9.80658,11.30228-8.9688,.46433,.06902,.67709-.5889,.19938-.72321-1.83755-.51662-3.39222-1.74537-4.30717-3.42616-1.08269-1.98895-.84621-4.22024-.56421-6.37916,.05207-.39865-.51639-.46716-.6988-.18927-1.8948,2.88649-4.04638,6.04262-7.53808,7.05779-.46255,.13448-.26577,.85845,.19938,.72321h0Z" style="fill:#262473;"/><text/><g><path d="M149.31874,145.71642c-.27506-1.21098,.00135-2.44025,.82989-3.68829,.65242-.9825,1.50034-1.6824,2.54374-2.09969,1.0428-.41734,2.21092-.55135,3.5038-.40259,1.29227,.14871,2.63448,.57841,4.02596,1.28956,.68703,.35061,1.26641,.69133,1.73995,1.02232,.47298,.33041,.86154,.63613,1.16573,.91662,.59517,.54458,.94988,1.09928,1.06534,1.66419,.11481,.56538,.01462,1.08629-.30106,1.56163-.33674,.50717-.80292,.84845-1.39803,1.02493s-1.23555,.08922-1.92253-.26192c-.44824-.22938-.90149-.60436-1.35855-1.12484-.45701-.52099-1.07019-.97773-1.83949-1.37074-.49436-.25286-.98063-.36038-1.45882-.32256-.47875,.03724-.85778,.26671-1.13705,.68789-.27491,.41314-.34871,.84799-.22255,1.30391,.12611,.45644,.48598,1.04998,1.07955,1.78113l.33643,.40742c.9255,1.09926,1.57729,2.09319,1.95603,2.98132s.51419,1.72774,.40645,2.5178c-.10844,.79105-.43389,1.59583-.97754,2.41423-.66295,.99842-1.54274,1.74235-2.63988,2.2307-1.09662,.48945-2.3359,.68458-3.71592,.58452-1.38063-.10012-2.82601-.53511-4.33657-1.30712-.68638-.35108-1.30151-.72226-1.8441-1.11448s-.97693-.73926-1.30355-1.04221c-.62529-.59086-.97615-1.13365-1.05278-1.62628-.07715-.49373,.06562-1.01357,.42829-1.5595,.28975-.43657,.73545-.73861,1.33719-.90716,.60164-.1675,1.27805-.05922,2.02872,.32375,.58603,.29923,1.06265,.58788,1.43053,.86497,.36798,.27605,.70764,.54122,1.01795,.79332,.31022,.25314,.66241,.47943,1.05577,.6809,1.19951,.61241,2.09641,.47059,2.69202-.4264,.32125-.48327,.41812-.96607,.29121-1.44836-.12743-.48338-.48428-1.10453-1.07116-1.8635l-.34072-.45618c-1.06837-1.47512-1.73976-2.8184-2.01422-4.02932Z" style="fill:#262473;"/><path d="M161.15319,153.9182c.38282-.50421,.54581-.87818,.48716-1.12205s-.3093-.495-.75146-.75225l-.22574-.13114c-.92905-.63096-1.13745-1.33281-.62524-2.10504,.22797-.34307,.53597-.56189,.92335-.65599,.38742-.09463,.91552-.05447,1.58435,.11995l.18773,.04947c.39863,.11988,.72994,.13766,.99453,.05338,.26399-.08433,.54865-.2731,.85397-.56631l.3152-.30866c.9215-.90808,1.88129-1.10702,2.87876-.59686,.48504,.24784,.78667,.55072,.90489,.90866,.11762,.35788,.02372,.81359-.28235,1.3676l-.10872,.16358c-.26788,.45846-.37896,.82432-.33389,1.09805,.04503,.27425,.27875,.54493,.70166,.81314l.62805,.38388c.54026,.34889,.85768,.70153,.95226,1.05794s.03315,.69818-.18439,1.02638c-.45534,.68619-1.24086,.84401-2.35525,.47252l-.48379-.18514c-.57258-.20864-1.00631-.24743-1.30179-.1164s-.576,.40536-.84095,.82305l-2.34965,3.48455c-.40896,.61554-.59187,1.09927-.54923,1.4501,.04324,.35088,.30826,.70318,.79688,1.05704,.55544,.41963,.88714,.81139,.99518,1.17422,.10795,.36388,.02758,.74818-.24121,1.15397-.32125,.48327-.8093,.76058-1.46433,.83403-.65494,.07241-1.45874-.13426-2.4107-.621-1.57475-.80494-2.48726-1.75212-2.73884-2.84062-.25149-1.08954,.17249-2.3612,1.27253-3.81493l2.77102-3.6751Z" style="fill:#262473;"/><path d="M166.15819,167.9271c-1.17207-.59845-1.87264-1.44515-2.1024-2.53911-.23037-1.09401,.13349-2.36144,1.09177-3.80435l.05413-.0826c.81305-1.22414,1.84132-1.99302,3.08671-2.30754,1.24418-.31462,2.45231-.17271,3.62429,.42679,.51252,.26127,.88368,.54286,1.11364,.84266,.22987,.30085,.39358,.62645,.49034,.97883,.12065,.42809,.34278,.65674,.667,.686,.2252,.01118,.5016-.22985,.82781-.72111l.04629-.0696c.66295-.99842,.40809-1.79688-.76337-2.39528-.61338-.31423-1.22553-.50948-1.83645-.58577-.61082-.07733-1.14937-.23568-1.61634-.47406-.40277-.20544-.65249-.4954-.74812-.86767s-.00658-.76529,.26777-1.17901c.3732-.56185,.86733-.90911,1.4838-1.04377,.61577-.13367,1.3277-.12538,2.1345,.0258,.45696,.08709,.93425,.21381,1.43135,.37907s.98824,.37103,1.47384,.61944c1.20822,.61737,2.07449,1.31124,2.59951,2.08061s.6798,1.68114,.46434,2.73532c-.21616,1.05517-.8368,2.31708-1.86212,3.78783l-1.27216,1.77851c-.33057,.47825-.55622,.90672-.67737,1.28328s-.22043,.73292-.29672,1.07025c-.05907,.27256-.12634,.54125-.20353,.80487s-.20811,.53519-.39466,.81559c-.27435,.41372-.68447,.68519-1.22966,.81343s-1.12431,.03683-1.73769-.27739c-.36601-.18647-.64895-.43092-.84788-.73013-.19944-.30031-.29898-.6908-.29861-1.17148,.00066-.40702-.09504-.65938-.28763-.75818-.19207-.0977-.49605-.06524-.91082,.09853-.56616,.24317-1.15609,.36015-1.76789,.35006-.61301-.0102-1.28052-.19975-2.00365-.56981Zm4.87658-1.95723c.52918-.10544,.9701-.42262,1.32224-.95264l.10102-.15215c.28975-.43657,.36562-.81812,.22708-1.14573-.13863-.32657-.43094-.62444-.87745-.8947-.59626-.35692-1.14158-.4864-1.63528-.38945-.49439,.09794-.90687,.39656-1.23805,.89579l-.07004,.10435c-.65739,.99049-.45522,1.75702,.60649,2.29958,.51304,.26237,1.03419,.34032,1.56398,.23493Z" style="fill:#262473;"/><path d="M181.65781,162.92524c.48689-1.161,1.01245-1.89052,1.57608-2.18861,.56293-.2971,1.10109-.35863,1.6145-.18458,.64179,.21887,.94638,.64193,.91428,1.27027l.0009,.11579c.00289,.28216,.04535,.48781,.12557,.61681s.20918,.22331,.38679,.284c.36532,.12435,.77404,.00212,1.22685-.36767,.87458-.71914,1.85015-.89619,2.926-.53016,.70051,.23766,1.12724,.58824,1.27896,1.05164,.15111,.46335,.10259,.98612-.14818,1.57019-.59164,1.37699-1.69295,1.91336-3.30385,1.60808-.79696-.14507-1.44606-.18891-1.94547-.13137-.50002,.05748-.91425,.27811-1.24251,.65978-.32835,.38272-.6419,.98763-.94081,1.8168l-1.38456,3.97453c-.28118,.78654-.71803,1.33023-1.31124,1.63206-.59381,.30177-1.25039,.32986-1.97102,.08519-.6715-.22777-1.11044-.63411-1.31812-1.21809-.20707-.58393-.0586-1.47773,.44723-2.68126l3.06862-7.3834Z" style="fill:#262473;"/><path d="M201.49977,176.44507c-.29614,.95144-.60551,1.65558-.92882,2.11343-.32391,.45779-.65317,.74577-.98855,.86596s-.6649,.13781-.98914,.0528c-.46676-.1216-.79348-.31832-.98084-.58918s-.27871-.63644-.27281-1.09665l-.00054-.09892c.0018-.24493-.0239-.44703-.07641-.60727-.05311-.1603-.18573-.26861-.39856-.32394-.13172-.0346-.26885-.03496-.4114-.00108-.14246,.03284-.29558,.13207-.45874,.29775-.53296,.4922-1.10638,.79785-1.7213,.91476-.61501,.11796-1.26701,.08648-1.956-.09442-.791-.20661-1.51589-.63362-2.17457-1.28208-.65929-.64851-1.09572-1.55323-1.30938-2.71311-.21436-1.15889-.04066-2.60905,.52093-4.3484l.11362-.35302c.58664-1.81711,1.30102-3.18237,2.14475-4.09353,.84383-.91221,1.7286-1.48215,2.65449-1.71191,.92529-.22981,1.8011-.22725,2.62683,.00762,.65605,.18119,1.17014,.41736,1.54359,.70756,.37336,.29124,.66219,.69925,.86648,1.22403,.09458,.25121,.19577,.43358,.30183,.54589,.10657,.11341,.22101,.18542,.34263,.21704,.17223,.04549,.32733,.00744,.46453-.11211,.13781-.1195,.27399-.3885,.40846-.80597l1.09502-3.54741c.27471-.85232,.65024-1.41291,1.12701-1.67964,.47616-.26678,1.03348-.31717,1.67186-.15014,.65928,.17201,1.10231,.51034,1.33048,1.013,.22756,.50261,.1517,1.36066-.22801,2.572l-4.31742,13.07695Zm-7.76747-3.46636c.20587,.52071,.63788,.86649,1.29708,1.03955,.54726,.14228,1.08028,.09082,1.59916-.15541s.97582-.8597,1.36919-1.84265l.05492-.16878c.46523-1.1713,.5876-2.08736,.3671-2.74819-.22102-.66193-.68591-1.08526-1.39529-1.27004-.65919-.17305-1.23049-.08811-1.71361,.2517-.48382,.3408-.90912,1.08114-1.27652,2.22098l-.06333,.1954c-.36476,1.1306-.44456,1.95675-.23869,2.47746Z" style="fill:#262473;"/><path d="M205.5016,169.44159c.35202-1.12434,.82107-1.86299,1.40706-2.21488,.58589-.35085,1.21833-.43784,1.89791-.26091,1.23625,.32318,1.66515,1.20936,1.28558,2.65739l-1.36604,3.92986c-.34107,1.08953-.45127,1.90778-.3305,2.45369,.12086,.54487,.48048,.89593,1.07896,1.05213,.65798,.17295,1.29387,.06733,1.90626-.31488s1.12205-1.23723,1.52766-2.56413l.9435-3.33339c.31353-.87103,.68298-1.44583,1.10974-1.72637,.42425-.27971,.98692-.32859,1.68671-.14569,.56747,.14824,.96845,.47239,1.20294,.97245,.23458,.49901,.1549,1.35883-.23754,2.57643l-1.58632,5.01833c-.21441,.69873-.32493,1.28238-.33406,1.75178-.00792,.4695,.00349,.88494,.03535,1.24745,.03075,.36137-.01508,.73395-.13859,1.11661-.39568,1.22679-1.30226,1.65493-2.72214,1.28422-.38505-.10082-.71379-.28825-.98856-.56355-.27365-.27415-.41947-.65815-.43617-1.15294-.02705-.45992-.18295-.72804-.46669-.80216-.15141-.03947-.30588-.02977-.46211,.02817s-.36207,.19571-.61857,.41112c-.47496,.41415-1.01389,.68072-1.6181,.80067-.60542,.11984-1.30277,.07706-2.09377-.12955-1.32746-.34689-2.16054-1.0789-2.49813-2.19486-.3381-1.11706-.20468-2.71378,.39974-4.79127l1.41591-5.10574Z" style="fill:#262473;"/><path d="M225.43114,185.18535c-1.23772,.5487-2.89021,.55326-4.95857,.01253-.68908-.17986-1.2642-.38031-1.72675-.59937-.46246-.2201-.8711-.42816-1.22462-.62511-.56534-.32688-.98238-.71869-1.25233-1.17555-.27107-.45801-.30601-.9954-.10715-1.61344,.18324-.5647,.49453-.91945,.93741-1.0629,.44176-.1446,.92607-.1477,1.45294-.0093,.41606,.10877,.77923,.29289,1.09063,.5535,.31261,.26071,.62653,.52049,.94435,.77745,.31894,.25811,.69067,.44192,1.11623,.55362,.50666,.13243,.89005,.11214,1.14887-.05994,.25891-.17313,.43182-.39476,.51863-.66385,.09846-.3049,.08238-.59661-.04693-.87609-.13061-.27854-.48043-.6582-1.05076-1.13803l-.62566-.46045c-.9609-.76942-1.65228-1.45544-2.07433-2.05596s-.65472-1.16354-.69913-1.69019c-.0445-.52561,.01849-1.05343,.18905-1.58452,.43544-1.34745,1.27237-2.18031,2.5132-2.49838,1.23953-.31713,2.73554-.24694,4.48916,.21171,.59848,.1562,1.17674,.34851,1.73628,.5739,.55824,.22633,1.03201,.47056,1.4201,.73258,.44373,.29526,.7799,.64954,1.00853,1.06283,.22974,.41444,.26977,.8513,.12111,1.31277-.17168,.52994-.48422,.91299-.93871,1.14799-.45571,.2349-.9416,.28414-1.45776,.14878-.53767-.14039-1.00279-.38597-1.39396-.73872-.39238-.35286-.8562-.59937-1.39387-.73976-.50666-.13243-.90987-.15068-1.21082-.05484-.29984,.09699-.48729,.2616-.56385,.49688-.07849,.24352-.07097,.49347,.02265,.74881s.38133,.53597,.86557,.84212l.34211,.21594c1.55205,.98178,2.57205,1.88467,3.05871,2.70961,.48656,.82598,.5645,1.75211,.2326,2.77827-.41759,1.29641-1.2452,2.21844-2.48293,2.76714Z" style="fill:#262473;"/><path d="M231.93479,178.16179c.22902-.57229,.28083-.9717,.15536-1.1972-.12417-.22644-.43664-.41877-.93498-.57677l-.25387-.08099c-1.07276-.42256-1.47051-1.0641-1.19205-1.92451,.12351-.38266,.35865-.66094,.70542-.83484,.34667-.17286,.86742-.24431,1.56101-.21448l.19555,.0086c.41766,.03423,.74161-.01753,.97305-.15518s.4526-.38138,.66478-.73213l.21727-.36714c.63407-1.07982,1.50367-1.47542,2.60872-1.18574,.53646,.14029,.91249,.37286,1.12687,.6976,.21317,.32464,.25075,.78969,.1104,1.39388l-.05861,.18319c-.13033,.50303-.13425,.88453-.01401,1.14218s.42094,.47315,.9033,.6466l.71286,.24294c.6191,.22742,1.02408,.50563,1.21501,.8336,.19084,.32901,.22779,.67514,.10945,1.04037-.24712,.76636-.95877,1.08418-2.13755,.95534l-.51865-.07878c-.61088-.08365-1.03972-.03154-1.28789,.1583s-.44123,.51701-.5803,.98036l-1.2885,3.89348c-.22197,.68756-.26275,1.19838-.12346,1.53132,.14041,.33409,.4945,.62261,1.06469,.86575,.65238,.29343,1.08237,.60643,1.28885,.93785,.20518,.33236,.23572,.72422,.09029,1.1765-.17501,.54017-.56714,.91314-1.17786,1.12193-.61184,.20764-1.44412,.17416-2.49795-.1016-1.74412-.45572-2.88856-1.18956-3.43713-2.19976-.54727-1.01113-.49494-2.34142,.15827-3.9918l1.64166-4.16886Z" style="fill:#262473;"/><path d="M252.58985,175.51653c.21219-1.07971,.48957-1.88551,.82979-2.41867,.34134-.53201,.72478-.87523,1.15153-1.02955,.42666-.15327,.86297-.19316,1.30873-.11756,.81947,.13861,1.39876,.50141,1.73785,1.08841,.34022,.58815,.33441,1.60797-.01631,3.06061l-1.94934,9.96216c-.20949,.95056-.18657,1.61208,.06653,1.98228,.25431,.3703,.89393,.61423,1.92127,.732l2.24802,.25552c1.24758,.13693,2.08187,.41357,2.50408,.83003,.42091,.4174,.55989,.99225,.4146,1.72329-.13137,.66914-.50072,1.11667-1.10796,1.34154s-1.54283,.22974-2.80816,.01658c-.61923-.11383-1.244-.20604-1.87328-.27446-.6291-.07051-1.2271-.1341-1.79502-.19297-.33641-.02927-.65681-.06029-.96121-.09309s-.5819-.0664-.8327-.09874c-.90518-.13449-1.6108-.39048-2.11464-.76565-.50504-.37528-.81701-.93783-.93718-1.6867s-.06285-1.74423,.17077-2.98617l2.04262-11.32885Z" style="fill:#262473;"/><path d="M266.50354,194.89085c-1.3278-.22385-2.31336-.82186-2.95687-1.79192-.64462-.97122-.80371-2.28203-.47845-3.93254l.01916-.09405c.27674-1.40123,.93232-2.43395,1.96914-3.09795,1.03561-.66411,2.21793-.88418,3.54443-.65939,.5816,.09793,1.03731,.25538,1.36957,.47258,.33216,.21823,.61304,.47934,.84125,.78531,.28112,.37052,.57767,.5215,.8907,.45511,.21458-.05602,.378-.36473,.48912-.92729l.01555-.08069c.2249-1.14171-.3265-1.82502-1.65309-2.04877-.69453-.11722-1.34145-.12301-1.94076-.01736-.60061,.10659-1.16467,.11537-1.6933,.0252-.45666-.07654-.80246-.27808-1.03751-.60357-.23625-.3256-.30757-.72521-.21403-1.19778,.12658-.64221,.45083-1.11785,.97273-1.42693,.52181-.30804,1.18793-.50885,1.99955-.60234,.45927-.05156,.95359-.07167,1.48186-.06148,.52818,.01124,1.06743,.06341,1.61654,.15641,1.36867,.23056,2.44912,.63486,3.24031,1.2107,.7924,.57594,1.29403,1.39692,1.50758,2.46002,.21337,1.06519,.13109,2.44546-.2458,4.14302l-.48779,2.06133c-.11989,.55128-.16103,1.0242-.12696,1.41741,.03528,.39332,.08382,.76044,.14421,1.10335,.0528,.27598,.09481,.54997,.12713,.82311,.03111,.27304,.0163,.56944-.04703,.89106-.09363,.47362-.36904,.85043-.82642,1.13251-.45747,.28313-1.03402,.36551-1.72855,.24829-.41449-.07077-.77348-.21876-1.0769-.44501s-.5505-.56752-.73883-1.02359c-.15905-.3862-.34787-.59828-.56535-.63508s-.48768,.0838-.81049,.36077c-.43209,.39789-.9359,.6812-1.51041,.85212-.57442,.16987-1.2708,.18608-2.09027,.04747Zm3.7745-3.29012c.45268-.2562,.73887-.68677,.85873-1.2938l.03341-.17381c.09953-.4994,.0196-.88398-.23859-1.15363-.25698-.26955-.64707-.46653-1.16898-.59187-.69538-.16358-1.25463-.12597-1.67636,.11083-.42183,.23785-.68992,.64264-.80176,1.21355l-.02385,.11994c-.22418,1.13336,.26512,1.8018,1.4691,2.00541,.58039,.09782,1.09693,.01864,1.54831-.23662Z" style="fill:#262473;"/><path d="M279.90821,179.92002c.20741-1.05277,.46576-1.83604,.77633-2.35074s.66921-.83904,1.0759-.97301c.40678-.13502,.85401-.16028,1.34186-.07787,.71501,.12005,1.19247,.43403,1.43013,.93962s.21744,1.27066-.05928,2.29321l-.80479,3.26656c-.11129,.39635-.13739,.68229-.0807,.85763,.05547,.17523,.17696,.27837,.36437,.31045,.11414,.0194,.2537-.00107,.421-.06015s.35642-.18673,.56605-.38203c.88245-.78157,1.9414-1.06918,3.17545-.86084,.89153,.15119,1.68201,.525,2.37394,1.1206,.69063,.59654,1.1732,1.46846,1.44398,2.61648,.27208,1.14708,.23031,2.62239-.12523,4.4249l-.09796,.49533c-.35361,1.79426-.86816,3.18216-1.54506,4.16569-.6756,.98259-1.46181,1.63894-2.35603,1.96718-.89543,.32813-1.85078,.40596-2.86735,.23443-.67414-.11334-1.26862-.35755-1.78492-.7296-.515-.37299-.89324-.90238-1.13223-1.58901-.07725-.26128-.16754-.44269-.27097-.5432s-.22241-.1624-.35703-.18463c-.35323-.06018-.64372,.13965-.87391,.59928l-.05991,.14205c-.41151,.83411-1.00052,1.18574-1.7672,1.05698-.4049-.06888-.73667-.23554-.9941-.49987-.25855-.26548-.40843-.71505-.44962-1.34871s.04992-1.54087,.27204-2.7207l2.38525-12.17001Zm6.31418,12.99622c.40713-.40532,.71611-1.14001,.92556-2.20207l.04657-.24104c.19988-1.0082,.14907-1.82572-.15-2.45237-.30028-.62675-.77059-.9948-1.41345-1.10332s-1.25524,.02124-1.83705,.38822c-.5819,.36803-.98805,1.14054-1.22098,2.31837l-.03341,.17381c-.22021,1.11582-.1057,1.95783,.34467,2.52715s1.01676,.91208,1.70171,1.02741c.68373,.11523,1.22916-.02982,1.63639-.43618Z" style="fill:#262473;"/></g><path d="M136.84439,95.45211c1.93036,0,1.93355-3,0-3-1.93036,0-1.93355,3,0,3h0Z" style="fill:#262473;"/><path d="M137.30299,96.59861c1.93036,0,1.93355-3,0-3-1.93036,0-1.93355,3,0,3h0Z" style="fill:#262473;"/><path d="M137.18834,96.94256c1.93036,0,1.93355-3,0-3-1.93036,0-1.93355,3,0,3h0Z" style="fill:#262473;"/><path d="M137.76159,95.45211c1.93036,0,1.93355-3,0-3-1.93036,0-1.93355,3,0,3h0Z" style="fill:#262473;"/><path d="M136.57688,95.94893c1.93036,0,1.93355-3,0-3-1.93036,0-1.93355,3,0,3h0Z" style="fill:#262473;"/><path d="M135.81254,95.71963c1.93036,0,1.93355-3,0-3-1.93036,0-1.93355,3,0,3h0Z" style="fill:#262473;"/><path d="M137.37053,90.54063c.44674,2.31329,2.0792,4.2205,4.06897,5.4016l.18927-.6988c-1.60654-.09776-3.38511,.07055-4.38365,1.50116-.27686,.39667,.37302,.77193,.6476,.37854,.82696-1.18479,2.44169-1.20846,3.73604-1.1297,.38218,.02326,.49558-.51698,.18927-.6988-1.83518-1.08934-3.31269-2.82199-3.7243-4.95337-.09142-.47341-.81443-.27297-.72321,.19938h0Z" style="fill:#262473;"/><path d="M137.41253,90.11119c.16406,.64648,.34894,1.28745,.55647,1.92133,.19047,.58179,.36259,1.22264,.8045,1.67017,.33965,.34397,.86994-.1864,.53033-.53033-.36958-.37429-.49585-.97916-.65215-1.464-.19124-.59318-.36263-1.19248-.51593-1.79656-.11865-.46753-.84218-.26941-.72321,.19938h0Z" style="fill:#262473;"/><text/></svg>