<svg width="66" height="66" viewBox="0 0 66 66" fill="none" xmlns="http://www.w3.org/2000/svg">
<path d="M0 33C0 14.7746 14.7746 0 33 0C51.2254 0 66 14.7746 66 33C66 51.2254 51.2254 66 33 66C14.7746 66 0 51.2254 0 33Z" fill="#7E49F2"/>
<path d="M22.5001 25.8191L18.041 21.3614L19.9866 19.4158L24.4444 23.8749H45.4021C45.6165 23.8749 45.8278 23.925 46.0193 24.0212C46.2109 24.1173 46.3772 24.257 46.5052 24.4289C46.6332 24.6008 46.7192 24.8002 46.7564 25.0113C46.7936 25.2224 46.7809 25.4392 46.7194 25.6445L43.4194 36.6445C43.3345 36.9279 43.1605 37.1763 42.9232 37.3529C42.6859 37.5295 42.3979 37.6249 42.1021 37.6249H25.2501V40.3749H40.3751V43.1249H23.8751C23.5105 43.1249 23.1607 42.98 22.9029 42.7222C22.645 42.4643 22.5001 42.1146 22.5001 41.7499V25.8191ZM25.2501 26.6249V34.8749H41.0791L43.5541 26.6249H25.2501ZM24.5626 48.6249C24.0156 48.6249 23.491 48.4076 23.1042 48.0208C22.7174 47.634 22.5001 47.1094 22.5001 46.5624C22.5001 46.0154 22.7174 45.4908 23.1042 45.104C23.491 44.7172 24.0156 44.4999 24.5626 44.4999C25.1096 44.4999 25.6343 44.7172 26.021 45.104C26.4078 45.4908 26.6251 46.0154 26.6251 46.5624C26.6251 47.1094 26.4078 47.634 26.021 48.0208C25.6343 48.4076 25.1096 48.6249 24.5626 48.6249ZM41.0626 48.6249C40.5156 48.6249 39.991 48.4076 39.6042 48.0208C39.2174 47.634 39.0001 47.1094 39.0001 46.5624C39.0001 46.0154 39.2174 45.4908 39.6042 45.104C39.991 44.7172 40.5156 44.4999 41.0626 44.4999C41.6096 44.4999 42.1343 44.7172 42.521 45.104C42.9078 45.4908 43.1251 46.0154 43.1251 46.5624C43.1251 47.1094 42.9078 47.634 42.521 48.0208C42.1343 48.4076 41.6096 48.6249 41.0626 48.6249Z" fill="white"/>
</svg>
