<svg width="66" height="66" viewBox="0 0 66 66" fill="none" xmlns="http://www.w3.org/2000/svg">
<path d="M2 33C2 15.8792 15.8792 2 33 2C50.1208 2 64 15.8792 64 33C64 50.1208 50.1208 64 33 64C15.8792 64 2 50.1208 2 33Z" stroke="#7E49F2" stroke-width="4"/>
<path d="M32.1116 23.4727C34.979 23.4727 37.6744 24.7406 39.6537 26.7246V26.7309C39.6537 25.7787 40.2947 25.0611 41.1843 25.0611H41.411C42.804 25.0611 43.0886 26.3775 43.0886 26.795L43.0964 41.6086C42.9979 42.5795 44.097 43.0798 44.7052 42.4576C47.0832 40.0123 49.9302 29.8906 43.2262 24.0246C36.9786 18.5572 28.597 19.4577 24.1381 22.5315C19.3993 25.8006 16.3662 33.0347 19.3133 39.8294C22.5246 47.2402 31.7129 49.4477 37.1741 47.2464C39.9398 46.1285 41.2171 49.8667 38.3451 51.0878C34.005 52.9389 21.9258 52.7513 16.2849 42.9766C12.4716 36.3773 12.6749 24.7641 22.7857 18.7479C30.52 14.1467 40.7184 15.4209 46.8659 21.842C53.2932 28.5554 52.9195 41.1255 46.6485 46.0144C43.8093 48.2345 39.588 46.0723 39.6162 42.8391L39.5865 41.779C37.6087 43.7427 34.9774 44.8872 32.1101 44.8872C26.4426 44.8872 21.4583 39.9013 21.4583 34.237C21.4583 28.5163 26.4441 23.4727 32.1116 23.4727ZM39.2425 33.8274C39.0283 29.6795 35.9499 27.1843 32.232 27.1843H32.0913C27.7996 27.1843 25.4185 30.5598 25.4185 34.3918C25.4185 38.6865 28.2984 41.3976 32.0725 41.3976C36.2829 41.3976 39.0518 38.3129 39.2519 34.6654L39.2425 33.8274Z" fill="#7E49F2"/>
</svg>
