<svg width="66" height="66" viewBox="0 0 66 66" fill="none" xmlns="http://www.w3.org/2000/svg">
<path d="M2 33C2 15.8792 15.8792 2 33 2C50.1208 2 64 15.8792 64 33C64 50.1208 50.1208 64 33 64C15.8792 64 2 50.1208 2 33Z" stroke="#7E49F2" stroke-width="4"/>
<path d="M35.3337 35.5002H39.5003L41.167 28.8335H35.3337V25.5002C35.3337 23.7835 35.3337 22.1668 38.667 22.1668H41.167V16.5668C40.6237 16.4952 38.572 16.3335 36.4053 16.3335C31.8803 16.3335 28.667 19.0952 28.667 24.1668V28.8335H23.667V35.5002H28.667V49.6668H35.3337V35.5002Z" fill="#7E49F2"/>
</svg>
