<svg width="66" height="66" viewBox="0 0 66 66" fill="none" xmlns="http://www.w3.org/2000/svg">
<path d="M33 27.7502C31.6076 27.7502 30.2723 28.3034 29.2877 29.2879C28.3031 30.2725 27.75 31.6079 27.75 33.0002C27.75 34.3926 28.3031 35.728 29.2877 36.7126C30.2723 37.6971 31.6076 38.2502 33 38.2502C34.3924 38.2502 35.7277 37.6971 36.7123 36.7126C37.6969 35.728 38.25 34.3926 38.25 33.0002C38.25 31.6079 37.6969 30.2725 36.7123 29.2879C35.7277 28.3034 34.3924 27.7502 33 27.7502ZM33 24.2502C35.3206 24.2502 37.5462 25.1721 39.1872 26.8131C40.8281 28.454 41.75 30.6796 41.75 33.0002C41.75 35.3209 40.8281 37.5465 39.1872 39.1874C37.5462 40.8284 35.3206 41.7502 33 41.7502C30.6794 41.7502 28.4538 40.8284 26.8128 39.1874C25.1719 37.5465 24.25 35.3209 24.25 33.0002C24.25 30.6796 25.1719 28.454 26.8128 26.8131C28.4538 25.1721 30.6794 24.2502 33 24.2502ZM44.375 23.8127C44.375 24.3929 44.1445 24.9493 43.7343 25.3595C43.3241 25.7698 42.7677 26.0002 42.1875 26.0002C41.6073 26.0002 41.0509 25.7698 40.6407 25.3595C40.2305 24.9493 40 24.3929 40 23.8127C40 23.2326 40.2305 22.6762 40.6407 22.2659C41.0509 21.8557 41.6073 21.6252 42.1875 21.6252C42.7677 21.6252 43.3241 21.8557 43.7343 22.2659C44.1445 22.6762 44.375 23.2326 44.375 23.8127ZM33 19.0002C28.6705 19.0002 27.9635 19.0125 25.9493 19.1017C24.5773 19.1665 23.6567 19.3502 22.8027 19.6827C22.0432 19.9767 21.4955 20.3285 20.9127 20.913C20.365 21.4422 19.9439 22.0883 19.6807 22.803C19.3482 23.6605 19.1645 24.5792 19.1015 25.9495C19.0105 27.8815 19 28.557 19 33.0002C19 37.3297 19.0123 38.0367 19.1015 40.051C19.1663 41.4212 19.35 42.3435 19.6807 43.1957C19.9783 43.957 20.3282 44.5047 20.9093 45.0857C21.499 45.6737 22.0468 46.0255 22.7993 46.316C23.6637 46.6502 24.5843 46.8357 25.9493 46.8987C27.8813 46.9897 28.5568 47.0002 33 47.0002C37.3295 47.0002 38.0365 46.988 40.0507 46.8987C41.4192 46.834 42.3415 46.6502 43.1955 46.3195C43.9533 46.0237 44.5045 45.672 45.0855 45.091C45.6753 44.5012 46.027 43.9535 46.3175 43.201C46.65 42.3382 46.8355 41.416 46.8985 40.051C46.9895 38.119 47 37.4435 47 33.0002C47 28.6707 46.9877 27.9637 46.8985 25.9495C46.8337 24.581 46.65 23.657 46.3175 22.803C46.0538 22.089 45.6334 21.4432 45.0872 20.913C44.5583 20.365 43.9121 19.9438 43.1973 19.681C42.3398 19.3485 41.4192 19.1647 40.0507 19.1017C38.1187 19.0107 37.4433 19.0002 33 19.0002ZM33 15.5002C37.7547 15.5002 38.348 15.5177 40.2135 15.6052C42.0772 15.6927 43.346 15.985 44.4625 16.419C45.6175 16.8635 46.5905 17.4655 47.5635 18.4367C48.4534 19.3116 49.1419 20.3698 49.5812 21.5377C50.0135 22.6525 50.3075 23.923 50.395 25.7867C50.4772 27.6522 50.5 28.2455 50.5 33.0002C50.5 37.755 50.4825 38.3482 50.395 40.2137C50.3075 42.0775 50.0135 43.3462 49.5812 44.4627C49.1432 45.6314 48.4545 46.6898 47.5635 47.5637C46.6884 48.4533 45.6303 49.1418 44.4625 49.5815C43.3477 50.0137 42.0772 50.3077 40.2135 50.3952C38.348 50.4775 37.7547 50.5002 33 50.5002C28.2452 50.5002 27.652 50.4827 25.7865 50.3952C23.9227 50.3077 22.654 50.0137 21.5375 49.5815C20.3691 49.1431 19.3107 48.4544 18.4365 47.5637C17.5465 46.6891 16.8579 45.6308 16.4188 44.4627C15.9848 43.348 15.6925 42.0775 15.605 40.2137C15.5227 38.3482 15.5 37.755 15.5 33.0002C15.5 28.2455 15.5175 27.6522 15.605 25.7867C15.6925 23.9212 15.9848 22.6542 16.4188 21.5377C16.8567 20.3691 17.5454 19.3106 18.4365 18.4367C19.3109 17.5464 20.3692 16.8578 21.5375 16.419C22.654 15.985 23.921 15.6927 25.7865 15.6052C27.652 15.523 28.2452 15.5002 33 15.5002Z" fill="#7E49F2"/>
<path d="M2 33C2 15.8792 15.8792 2 33 2C50.1208 2 64 15.8792 64 33C64 50.1208 50.1208 64 33 64C15.8792 64 2 50.1208 2 33Z" stroke="#7E49F2" stroke-width="4"/>
</svg>
