<svg width="258" height="199" viewBox="0 0 258 199" fill="none" xmlns="http://www.w3.org/2000/svg">
<path d="M31.2809 107.443C31.8597 109.521 32.1993 112.531 32.5568 114.632C37.2973 142.48 54.7394 167.764 79.0711 182.082C125.028 209.589 185.835 193.993 213.06 147.891C213.06 147.892 213.54 148.638 213.54 148.638C166.973 153.58 117.263 144.089 73.2044 128.97C61.9932 124.935 50.9312 120.269 40.3916 114.669C38.2231 113.544 36.0735 112.343 33.9519 111.131C32.6205 110.181 33.2743 109.708 31.2808 107.443L31.2809 107.443ZM30.7535 106.593C31.878 104.879 35.6485 107.326 37.1841 108.09C38.9124 108.997 40.6294 109.923 42.3903 110.771C52.9073 115.97 63.807 120.41 74.8516 124.375C111.802 137.43 150.654 145.874 189.861 147.747C198.019 148.119 206.199 148.076 214.363 147.591C170.659 226.366 53.6675 209.96 32.7351 122.522C31.7046 117.56 30.5106 111.644 30.7535 106.593L30.7535 106.593Z" fill="#262473"/>
<path d="M225.566 92.3995C216.862 17.2433 131.384 -20.8054 70.053 23.5703C59.7371 31.171 50.8729 40.5408 44.0217 51.4874C44.0216 51.4873 43.1543 50.9895 43.1543 50.9895C51.5735 34.6811 65.2631 21.2328 81.2487 12.2395C121.694 -10.451 174.13 -0.828003 203.86 34.7699C217.479 50.7736 225.735 71.3675 226.563 92.3218C226.563 92.3218 225.566 92.3995 225.566 92.3995V92.3995Z" fill="#262473"/>
<path d="M43.6346 51.7361C8.47035 55.126 -16.9067 71.4664 22.1417 98.3929C25.5082 101.124 29.3324 102.411 31.0173 107.016C29.9304 102.258 29.5227 97.3282 29.6177 92.4225C29.8163 82.5897 32.0013 72.7826 35.9019 63.7596C37.8584 59.2508 40.2389 54.9243 43.154 50.9897L44.0216 51.4869C42.1284 55.9447 40.3327 60.3724 38.7902 64.8806C35.6925 73.8916 33.5749 83.1781 32.3629 92.6235C31.7489 97.3603 31.3652 102.147 31.0158 107.018C26.3775 107.769 22.9353 104.552 19.3739 102.203C15.9963 99.7493 12.7873 97.0159 9.90421 93.9217C-11.9937 70.1375 5.66908 56.4199 31.3262 52.3053C35.3753 51.5869 39.4546 51.094 43.541 50.7405L43.6346 51.7361L43.6346 51.7361Z" fill="#262473"/>
<path d="M226.563 92.3223C228.911 111.128 225.168 132.837 213.928 148.389C213.928 148.389 213.448 147.642 213.448 147.642C221.514 146.49 229.552 144.964 237.108 142.239C265.625 131.718 253.713 114.014 235.641 100.02C232.451 97.5005 229.145 95.1278 225.809 92.7904C225.809 92.7904 226.32 91.9312 226.32 91.9312C233.634 95.6668 240.682 100.112 246.791 105.851C257.221 115.314 263.116 129.563 249.348 139.217C238.789 146.199 225.793 147.858 213.541 148.638C213.541 148.638 212.706 148.682 212.706 148.682L213.061 147.891C216.778 139.018 220.441 130.251 222.618 120.89C224.848 111.582 225.772 101.975 225.566 92.3993C225.566 92.3993 226.563 92.3222 226.563 92.3222L226.563 92.3223Z" fill="#262473"/>
<path d="M49.7372 89.1286C49.4621 87.9177 49.7385 86.6884 50.5671 85.4404C51.2195 84.4579 52.0674 83.758 53.1108 83.3407C54.1536 82.9233 55.3217 82.7893 56.6146 82.9381C57.9069 83.0868 59.2491 83.5165 60.6406 84.2276C61.3276 84.5783 61.907 84.919 62.3805 85.25C62.8535 85.5804 63.242 85.8861 63.5462 86.1666C64.1414 86.7112 64.4961 87.2659 64.6116 87.8308C64.7264 88.3961 64.6262 88.9171 64.3105 89.3924C63.9738 89.8996 63.5076 90.2408 62.9125 90.4173C62.3174 90.5938 61.6769 90.5066 60.99 90.1554C60.5417 89.926 60.0885 89.5511 59.6314 89.0306C59.1744 88.5096 58.5612 88.0528 57.7919 87.6598C57.2976 87.407 56.8113 87.2994 56.3331 87.3373C55.8544 87.3745 55.4753 87.604 55.196 88.0252C54.9211 88.4383 54.8473 88.8732 54.9735 89.3291C55.0996 89.7855 55.4595 90.379 56.053 91.1102L56.3895 91.5176C57.315 92.6169 57.9668 93.6108 58.3455 94.4989C58.7242 95.3871 58.8597 96.2267 58.752 97.0167C58.6435 97.8078 58.3181 98.6126 57.7744 99.431C57.1115 100.429 56.2317 101.173 55.1345 101.662C54.0379 102.151 52.7986 102.346 51.4186 102.246C50.038 102.146 48.5926 101.711 47.0821 100.939C46.3957 100.588 45.7805 100.217 45.238 99.8246C44.6954 99.4324 44.261 99.0853 43.9344 98.7824C43.3091 98.1915 42.9583 97.6487 42.8816 97.1561C42.8045 96.6624 42.9472 96.1425 43.3099 95.5966C43.5997 95.16 44.0454 94.858 44.6471 94.6894C45.2487 94.5219 45.9251 94.6302 46.6758 95.0132C47.2618 95.3124 47.7385 95.6011 48.1064 95.8782C48.4743 96.1542 48.814 96.4194 49.1243 96.6715C49.4345 96.9246 49.7867 97.1509 50.1801 97.3524C51.3796 97.9648 52.2765 97.823 52.8721 96.926C53.1933 96.4427 53.2902 95.9599 53.1633 95.4776C53.0359 94.9942 52.679 94.3731 52.0921 93.6141L51.7514 93.1579C50.6831 91.6828 50.0117 90.3395 49.7372 89.1286L49.7372 89.1286Z" fill="#262473"/>
<path d="M61.5718 97.3303C61.9546 96.8261 62.1176 96.4521 62.0589 96.2083C62.0003 95.9644 61.7496 95.7133 61.3075 95.456L61.0817 95.3249C60.1527 94.6939 59.9443 93.9921 60.4565 93.2199C60.6845 92.8768 60.9925 92.658 61.3799 92.5639C61.7673 92.4692 62.2954 92.5094 62.9642 92.6838L63.1519 92.7333C63.5506 92.8532 63.8819 92.8709 64.1465 92.7867C64.4105 92.7023 64.6951 92.5136 65.0004 92.2204L65.3156 91.9117C66.2371 91.0036 67.1969 90.8047 68.1944 91.3148C68.6794 91.5627 68.9811 91.8655 69.0993 92.2235C69.2169 92.5814 69.123 93.0371 68.8169 93.5911L68.7082 93.7547C68.4403 94.2131 68.3293 94.579 68.3743 94.8527C68.4194 95.127 68.6531 95.3976 69.076 95.6659L69.704 96.0497C70.2443 96.3986 70.5617 96.7513 70.6563 97.1077C70.7509 97.4641 70.6895 97.8059 70.4719 98.1341C70.0166 98.8202 69.231 98.9781 68.1167 98.6066L67.6329 98.4214C67.0603 98.2128 66.6266 98.174 66.3311 98.305C66.0356 98.4361 65.7551 98.7104 65.4901 99.1281L63.1405 102.613C62.7315 103.228 62.5486 103.712 62.5912 104.063C62.6345 104.414 62.8995 104.766 63.3881 105.12C63.9436 105.539 64.2753 105.931 64.3833 106.294C64.4913 106.658 64.4109 107.042 64.1421 107.448C63.8208 107.931 63.3328 108.209 62.6778 108.282C62.0228 108.354 61.219 108.148 60.2671 107.661C58.6923 106.856 57.7798 105.909 57.5282 104.82C57.2767 103.731 57.7007 102.459 58.8008 101.005L61.5718 97.3303V97.3303Z" fill="#262473"/>
<path d="M66.5766 111.339C65.4045 110.741 64.704 109.894 64.4742 108.8C64.2438 107.706 64.6077 106.439 65.566 104.996L65.6201 104.913C66.4332 103.689 67.4614 102.92 68.7068 102.606C69.951 102.291 71.1591 102.433 72.3311 103.032C72.8436 103.294 73.2148 103.575 73.4448 103.875C73.6746 104.176 73.8383 104.502 73.9351 104.854C74.0557 105.282 74.2779 105.511 74.6021 105.54C74.8273 105.551 75.1037 105.31 75.4299 104.819L75.4762 104.749C76.1391 103.751 75.8843 102.952 74.7128 102.354C74.0994 102.04 73.4873 101.844 72.8764 101.768C72.2655 101.691 71.727 101.533 71.26 101.294C70.8573 101.089 70.6075 100.799 70.5119 100.426C70.4163 100.054 70.5053 99.6612 70.7797 99.2475C71.1529 98.6856 71.647 98.3383 72.2635 98.2037C72.8793 98.07 73.5912 98.0783 74.398 98.2295C74.8549 98.3166 75.3322 98.4433 75.8293 98.6086C76.3264 98.7738 76.8176 98.9796 77.3032 99.228C78.5114 99.8454 79.3777 100.539 79.9027 101.309C80.4277 102.078 80.5825 102.99 80.367 104.044C80.1509 105.099 79.5302 106.361 78.5049 107.832L77.2327 109.61C76.9022 110.089 76.6765 110.517 76.5554 110.894C76.4342 111.27 76.3349 111.626 76.2586 111.964C76.1996 112.236 76.1323 112.505 76.0551 112.769C75.9779 113.032 75.847 113.304 75.6605 113.584C75.3861 113.998 74.976 114.269 74.4308 114.398C73.8856 114.526 73.3065 114.435 72.6931 114.12C72.3271 113.934 72.0442 113.689 71.8452 113.39C71.6458 113.09 71.5463 112.699 71.5466 112.219C71.5473 111.812 71.4516 111.559 71.259 111.46C71.0669 111.363 70.7629 111.395 70.3482 111.559C69.782 111.802 69.1921 111.919 68.5803 111.909C67.9673 111.899 67.2998 111.709 66.5766 111.339L66.5766 111.339ZM71.4532 109.382C71.9824 109.277 72.4233 108.959 72.7754 108.429L72.8764 108.277C73.1662 107.841 73.2421 107.459 73.1035 107.132C72.9649 106.805 72.6726 106.507 72.2261 106.237C71.6298 105.88 71.0845 105.75 70.5908 105.847C70.0964 105.945 69.6839 106.244 69.3527 106.743L69.2827 106.848C68.6253 107.838 68.8275 108.605 69.8892 109.147C70.4022 109.409 70.9234 109.487 71.4532 109.382L71.4532 109.382Z" fill="#262473"/>
<path d="M82.076 106.338C82.5628 105.177 83.0884 104.447 83.652 104.149C84.215 103.852 84.7531 103.79 85.2665 103.964C85.9083 104.183 86.2129 104.606 86.1808 105.235L86.1817 105.35C86.1846 105.633 86.2271 105.838 86.3073 105.967C86.3875 106.096 86.5165 106.191 86.6941 106.251C87.0594 106.376 87.4681 106.253 87.9209 105.884C88.7955 105.164 89.7711 104.987 90.8469 105.353C91.5474 105.591 91.9742 105.942 92.1259 106.405C92.277 106.868 92.2285 107.391 91.9777 107.975C91.3861 109.352 90.2848 109.889 88.6739 109.583C87.8769 109.438 87.2278 109.394 86.7284 109.452C86.2284 109.509 85.8141 109.73 85.4859 110.112C85.1575 110.494 84.844 111.099 84.5451 111.929L83.1605 115.903C82.8793 116.69 82.4425 117.233 81.8493 117.535C81.2555 117.837 80.5989 117.865 79.8782 117.62C79.2067 117.393 78.7678 116.986 78.5601 116.402C78.3531 115.818 78.5015 114.924 79.0074 113.721L82.076 106.338H82.076Z" fill="#262473"/>
<path d="M101.918 119.857C101.622 120.809 101.312 121.513 100.989 121.971C100.665 122.429 100.336 122.717 100.001 122.837C99.6652 122.957 99.3357 122.975 99.0115 122.89C98.5447 122.768 98.218 122.571 98.0306 122.3C97.8433 122.03 97.7519 121.664 97.7578 121.204L97.7573 121.105C97.7591 120.86 97.7334 120.658 97.6809 120.498C97.6278 120.337 97.4952 120.229 97.2823 120.174C97.1506 120.139 97.0135 120.139 96.8709 120.173C96.7285 120.205 96.5753 120.305 96.4122 120.47C95.8792 120.962 95.3058 121.268 94.6909 121.385C94.0759 121.503 93.4239 121.471 92.7349 121.291C91.9439 121.084 91.219 120.657 90.5603 120.009C89.901 119.36 89.4646 118.455 89.2509 117.295C89.0366 116.137 89.2103 114.686 89.7719 112.947L89.8855 112.594C90.4721 110.777 91.1865 109.412 92.0302 108.5C92.8741 107.588 93.7588 107.018 94.6847 106.789C95.61 106.559 96.4858 106.561 97.3115 106.796C97.9676 106.977 98.4817 107.214 98.8551 107.504C99.2285 107.795 99.5173 108.203 99.7216 108.728C99.8162 108.979 99.9174 109.161 100.023 109.274C100.13 109.387 100.244 109.459 100.366 109.491C100.538 109.536 100.693 109.498 100.831 109.379C100.968 109.259 101.105 108.99 101.239 108.573L102.334 105.025C102.609 104.173 102.984 103.612 103.461 103.346C103.937 103.079 104.495 103.028 105.133 103.195C105.792 103.367 106.235 103.706 106.463 104.208C106.691 104.711 106.615 105.569 106.235 106.78L101.918 119.857L101.918 119.857ZM94.1505 116.391C94.3564 116.912 94.7884 117.257 95.4476 117.431C95.9948 117.573 96.5279 117.521 97.0468 117.275C97.5656 117.029 98.0226 116.415 98.4159 115.432L98.4709 115.264C98.9361 114.092 99.0585 113.176 98.838 112.516C98.617 111.854 98.1521 111.43 97.4427 111.245C96.7835 111.072 96.2122 111.157 95.7291 111.497C95.2452 111.838 94.8199 112.578 94.4525 113.718L94.3892 113.914C94.0244 115.044 93.9447 115.87 94.1505 116.391L94.1505 116.391Z" fill="#262473"/>
<path d="M105.92 112.854C106.272 111.729 106.741 110.991 107.327 110.639C107.913 110.288 108.546 110.201 109.225 110.378C110.462 110.701 110.89 111.587 110.511 113.035L109.145 116.965C108.804 118.055 108.694 118.873 108.814 119.419C108.935 119.964 109.295 120.315 109.893 120.471C110.551 120.644 111.187 120.538 111.8 120.156C112.412 119.774 112.922 118.919 113.327 117.592L114.271 114.259C114.584 113.388 114.954 112.813 115.38 112.532C115.805 112.253 116.367 112.204 117.067 112.387C117.635 112.535 118.036 112.859 118.27 113.359C118.505 113.858 118.425 114.718 118.033 115.936L116.446 120.954C116.232 121.653 116.121 122.236 116.112 122.706C116.104 123.175 116.116 123.591 116.148 123.953C116.178 124.314 116.132 124.687 116.009 125.07C115.613 126.296 114.707 126.725 113.287 126.354C112.902 126.253 112.573 126.066 112.298 125.79C112.025 125.516 111.879 125.132 111.862 124.637C111.835 124.177 111.679 123.909 111.395 123.835C111.244 123.796 111.09 123.805 110.933 123.863C110.777 123.921 110.571 124.059 110.315 124.275C109.84 124.689 109.301 124.955 108.697 125.075C108.091 125.195 107.394 125.152 106.603 124.946C105.275 124.599 104.442 123.867 104.105 122.751C103.767 121.634 103.9 120.037 104.504 117.96L105.92 112.854L105.92 112.854Z" fill="#262473"/>
<path d="M125.849 128.598C124.612 129.146 122.959 129.151 120.891 128.61C120.202 128.43 119.626 128.23 119.164 128.011C118.701 127.791 118.293 127.583 117.939 127.386C117.374 127.059 116.957 126.667 116.687 126.21C116.416 125.752 116.381 125.215 116.58 124.597C116.763 124.032 117.074 123.677 117.517 123.534C117.959 123.389 118.443 123.386 118.97 123.525C119.386 123.633 119.749 123.817 120.061 124.078C120.373 124.339 120.687 124.599 121.005 124.855C121.324 125.114 121.696 125.297 122.121 125.409C122.628 125.542 123.011 125.521 123.27 125.349C123.529 125.176 123.702 124.954 123.789 124.685C123.887 124.38 123.871 124.089 123.742 123.809C123.611 123.531 123.262 123.151 122.691 122.671L122.066 122.211C121.105 121.441 120.413 120.755 119.991 120.155C119.569 119.554 119.336 118.991 119.292 118.465C119.248 117.939 119.311 117.411 119.481 116.88C119.917 115.533 120.753 114.7 121.994 114.382C123.234 114.065 124.73 114.135 126.483 114.593C127.082 114.75 127.66 114.942 128.22 115.167C128.778 115.394 129.252 115.638 129.64 115.9C130.084 116.195 130.42 116.549 130.648 116.963C130.878 117.377 130.918 117.814 130.769 118.275C130.598 118.805 130.285 119.188 129.831 119.423C129.375 119.658 128.889 119.708 128.373 119.572C127.835 119.432 127.37 119.186 126.979 118.834C126.587 118.481 126.123 118.234 125.585 118.094C125.079 117.961 124.675 117.943 124.374 118.039C124.075 118.136 123.887 118.301 123.811 118.536C123.732 118.779 123.74 119.029 123.833 119.285C123.927 119.54 124.215 119.821 124.699 120.127L125.041 120.343C126.593 121.324 127.613 122.227 128.1 123.052C128.586 123.878 128.664 124.804 128.332 125.831C127.915 127.127 127.087 128.049 125.849 128.598V128.598Z" fill="#262473"/>
<path d="M132.354 121.574C132.583 121.002 132.634 120.602 132.509 120.377C132.385 120.15 132.072 119.958 131.574 119.8L131.32 119.719C130.247 119.296 129.85 118.655 130.128 117.794C130.252 117.412 130.487 117.134 130.833 116.96C131.18 116.787 131.701 116.715 132.394 116.745L132.59 116.754C133.008 116.788 133.332 116.736 133.563 116.599C133.794 116.461 134.016 116.217 134.228 115.866L134.445 115.499C135.079 114.419 135.949 114.024 137.054 114.314C137.59 114.454 137.966 114.686 138.181 115.011C138.394 115.336 138.431 115.801 138.291 116.405L138.232 116.588C138.102 117.091 138.098 117.473 138.218 117.73C138.339 117.988 138.639 118.204 139.122 118.377L139.835 118.62C140.454 118.847 140.859 119.126 141.05 119.454C141.24 119.783 141.277 120.129 141.159 120.494C140.912 121.26 140.2 121.578 139.022 121.449L138.503 121.37C137.892 121.287 137.463 121.339 137.215 121.529C136.967 121.719 136.774 122.046 136.635 122.509L135.346 126.403C135.124 127.09 135.083 127.601 135.223 127.934C135.363 128.268 135.717 128.557 136.287 128.8C136.94 129.093 137.37 129.406 137.576 129.738C137.781 130.07 137.812 130.462 137.667 130.914C137.492 131.454 137.099 131.827 136.489 132.036C135.877 132.244 135.045 132.21 133.991 131.934C132.247 131.479 131.102 130.745 130.554 129.735C130.006 128.723 130.059 127.393 130.712 125.743L132.354 121.574V121.574Z" fill="#262473"/>
<path d="M153.008 118.929C153.22 117.849 153.497 117.043 153.838 116.51C154.179 115.978 154.562 115.635 154.989 115.48C155.416 115.327 155.852 115.287 156.298 115.363C157.117 115.501 157.697 115.864 158.036 116.451C158.376 117.039 158.37 118.059 158.019 119.512L156.07 129.474C155.861 130.425 155.884 131.086 156.137 131.456C156.391 131.827 157.031 132.071 158.058 132.188L160.306 132.444C161.554 132.581 162.388 132.857 162.81 133.274C163.231 133.691 163.37 134.266 163.225 134.997C163.093 135.666 162.724 136.114 162.117 136.339C161.509 136.564 160.574 136.568 159.308 136.355C158.689 136.241 158.065 136.149 157.435 136.081C156.806 136.01 156.208 135.947 155.64 135.888C155.304 135.859 154.983 135.828 154.679 135.795C154.375 135.762 154.097 135.728 153.846 135.696C152.941 135.562 152.235 135.306 151.732 134.93C151.227 134.555 150.915 133.993 150.794 133.244C150.674 132.495 150.732 131.499 150.965 130.258L153.008 118.929V118.929Z" fill="#262473"/>
<path d="M166.922 138.303C165.595 138.079 164.609 137.481 163.965 136.511C163.321 135.54 163.162 134.229 163.487 132.579L163.506 132.484C163.783 131.083 164.439 130.051 165.475 129.387C166.511 128.722 167.693 128.502 169.02 128.727C169.601 128.825 170.057 128.983 170.389 129.2C170.721 129.418 171.002 129.679 171.231 129.985C171.512 130.356 171.808 130.507 172.121 130.44C172.336 130.384 172.499 130.075 172.61 129.513L172.626 129.432C172.851 128.29 172.299 127.607 170.973 127.383C170.278 127.266 169.631 127.26 169.032 127.366C168.431 127.473 167.867 127.481 167.339 127.391C166.882 127.315 166.536 127.113 166.301 126.788C166.065 126.462 165.994 126.062 166.087 125.59C166.214 124.948 166.538 124.472 167.06 124.163C167.582 123.855 168.248 123.654 169.06 123.561C169.519 123.509 170.013 123.489 170.541 123.499C171.07 123.51 171.609 123.563 172.158 123.656C173.527 123.886 174.607 124.29 175.398 124.866C176.191 125.442 176.692 126.263 176.906 127.326C177.119 128.391 177.037 129.772 176.66 131.469L176.172 133.531C176.052 134.082 176.011 134.555 176.045 134.948C176.081 135.341 176.129 135.708 176.189 136.051C176.242 136.327 176.284 136.601 176.317 136.874C176.348 137.148 176.333 137.444 176.27 137.766C176.176 138.239 175.901 138.616 175.443 138.898C174.986 139.181 174.409 139.264 173.715 139.146C173.3 139.076 172.941 138.928 172.638 138.701C172.334 138.475 172.087 138.134 171.899 137.678C171.74 137.292 171.551 137.079 171.334 137.043C171.116 137.006 170.846 137.126 170.523 137.403C170.091 137.801 169.587 138.085 169.013 138.256C168.438 138.425 167.742 138.442 166.922 138.303L166.922 138.303ZM170.697 135.013C171.15 134.757 171.436 134.326 171.556 133.719L171.589 133.545C171.689 133.046 171.609 132.661 171.35 132.392C171.093 132.122 170.703 131.925 170.181 131.8C169.486 131.636 168.927 131.674 168.505 131.911C168.083 132.148 167.815 132.553 167.703 133.124L167.679 133.244C167.455 134.377 167.945 135.046 169.149 135.25C169.729 135.347 170.245 135.268 170.697 135.013V135.013Z" fill="#262473"/>
<path d="M180.327 123.332C180.534 122.28 180.793 121.496 181.103 120.982C181.414 120.467 181.773 120.143 182.179 120.009C182.586 119.874 183.033 119.848 183.521 119.931C184.236 120.051 184.714 120.365 184.951 120.87C185.189 121.376 185.169 122.141 184.892 123.164L184.087 126.43C183.976 126.826 183.95 127.112 184.007 127.288C184.062 127.463 184.183 127.566 184.371 127.598C184.485 127.618 184.625 127.597 184.792 127.538C184.959 127.479 185.148 127.351 185.358 127.156C186.24 126.374 187.299 126.087 188.533 126.295C189.425 126.446 190.215 126.82 190.907 127.416C191.598 128.012 192.081 128.884 192.351 130.032C192.623 131.179 192.582 132.655 192.226 134.457L192.128 134.952C191.775 136.747 191.26 138.135 190.583 139.118C189.907 140.101 189.121 140.757 188.227 141.085C187.332 141.413 186.376 141.491 185.36 141.32C184.686 141.206 184.091 140.962 183.575 140.59C183.06 140.217 182.682 139.688 182.443 139.001C182.365 138.74 182.275 138.558 182.172 138.458C182.068 138.357 181.949 138.296 181.815 138.273C181.461 138.213 181.171 138.413 180.941 138.873L180.881 139.015C180.469 139.849 179.88 140.2 179.114 140.072C178.709 140.003 178.377 139.836 178.119 139.572C177.861 139.306 177.711 138.857 177.67 138.223C177.629 137.589 177.72 136.682 177.942 135.502L180.327 123.332L180.327 123.332ZM186.641 136.329C187.048 135.923 187.357 135.189 187.567 134.127L187.613 133.885C187.813 132.877 187.762 132.06 187.463 131.433C187.163 130.806 186.693 130.438 186.05 130.33C185.407 130.221 184.795 130.351 184.213 130.718C183.631 131.086 183.225 131.859 182.992 133.036L182.959 133.21C182.738 134.326 182.853 135.168 183.303 135.737C183.754 136.307 184.32 136.649 185.005 136.765C185.689 136.88 186.234 136.735 186.641 136.329L186.641 136.329Z" fill="#262473"/>
</svg>
