<?xml version="1.0" encoding="UTF-8"?><svg id="Layer_2" xmlns="http://www.w3.org/2000/svg" viewBox="0 0 257.41058 198.35083"><g id="Layer_1-2"><path d="M191.3984,95.03905c.00001-.00006,.00016-.00007,.00033-.00003" style="fill:none; stroke:#7e49f2; stroke-miterlimit:10;"/><g><path d="M31.28121,107.44262c.57883,2.07861,.91845,5.08838,1.27599,7.18895,4.74049,27.84852,22.18257,53.13247,46.5142,67.45061,45.95717,27.50674,106.76344,11.91056,133.98858-34.19102,.00012,.00043,.48065,.74678,.48065,.74678-46.56767,4.942-96.27704-4.54844-140.33587-19.66828-11.21122-4.03481-22.27322-8.70112-32.81282-14.30068-2.16848-1.12515-4.31804-2.3261-6.43972-3.53806-1.33141-.94995-.67754-1.42251-2.67102-3.68829h0Zm-.52731-.84966c1.12447-1.7141,4.8949,.73333,6.43054,1.49682,1.72829,.90746,3.44528,1.83276,5.20625,2.68153,10.51695,5.19871,21.41665,9.63822,32.46127,13.60372,36.9503,13.055,75.80267,21.49892,115.00959,23.37237,8.15758,.37193,16.33735,.32876,24.50165-.15631-43.7043,78.77478-160.69533,62.3691-181.62776-25.06933-1.03048-4.96212-2.22452-10.87763-1.98155-15.92879h0Z" style="fill:#7e49f2;"/><path d="M225.56576,92.3995C216.86153,17.24326,131.38388-20.80537,70.05288,23.57032c-10.31589,7.60071-19.18009,16.97052-26.0313,27.91705-.0001-.00011-.86738-.49792-.86738-.49792,8.41922-16.3084,22.10876-29.75669,38.09438-38.74996C121.6935-10.45099,174.13031-.82801,203.85956,34.76994c13.61949,16.00365,21.87546,36.59757,22.70317,57.55189,.00001,0-.99697,.07767-.99697,.07767h0Z" style="fill:#7e49f2;"/><path d="M43.63461,51.7362c-35.16424,3.38993-60.54133,19.73031-21.49294,46.6568,3.36654,2.73133,7.19079,4.01774,8.87564,8.62284-1.08689-4.75807-1.49458-9.68751-1.39958-14.59322,.19859-9.83282,2.38359-19.63992,6.2842-28.66291,1.9565-4.50883,4.33704-8.83526,7.25209-12.76994l.86761,.49725c-1.89319,4.45778-3.68896,8.88548-5.23145,13.39368-3.09766,9.01105-5.21523,18.29749-6.42722,27.74293-.61407,4.73681-.99777,9.523-1.34717,14.39475-4.63824,.75027-8.08052-2.46675-11.64187-4.8151-3.37756-2.45384-6.58664-5.18725-9.46969-8.28145-21.89789-23.78427-4.23514-37.50187,21.42196-41.61646,4.0491-.71835,8.12846-1.21123,12.21485-1.56479l.09358,.99561h0Z" style="fill:#7e49f2;"/><path d="M226.56274,92.32214c2.34747,18.8053-1.39456,40.51499-12.63462,56.06662-.0003-.00009-.48086-.74647-.48086-.74647,8.06671-1.15193,16.10471-2.67873,23.66043-5.40317,28.51719-10.52097,16.60512-28.22491-1.46747-42.21945-3.18959-2.51931-6.49534-4.89201-9.83181-7.22936,.00002-.00003,.51162-.85927,.51162-.85927,7.3139,3.73564,14.36142,8.18042,20.47021,13.92009,10.43012,9.46322,16.32498,23.7121,2.55759,33.36602-10.55961,6.98145-23.55563,8.6403-35.80691,9.421-.00007-.00022-.83519,.04403-.83519,.04403l.35446-.79079c3.7173-8.87346,7.38008-17.64064,9.55786-27.00188,2.22924-9.308,3.15355-18.91497,2.94759-28.49034,.00004,0,.99708-.07704,.99708-.07704h0Z" style="fill:#7e49f2;"/></g><path d="M20.90347,101.54608c2.1743,1.82889,4.59575,3.14875,7.22467,4.19916,2.30498,.92098,4.86776,1.86016,6.19991,4.10569l.51307-.51307c-1.96775-1.24326-3.76881-2.70676-5.39155-4.37516-.33712-.34661-.8672,.18398-.53033,.53033,1.66607,1.71295,3.52333,3.21615,5.54334,4.49244,.32063,.20258,.70083-.19658,.51307-.51307-1.26357-2.12991-3.51898-3.18606-5.72876-4.08235-2.82426-1.14551-5.46072-2.39561-7.8131-4.37429-.36712-.3088-.90031,.21912-.53033,.53033h0Z" style="fill:#7e49f2;"/><path d="M26.88174,105.02774c1.99303,.82199,3.81733,2.02915,5.36616,3.52674,.34713,.33565,.87811-.19406,.53033-.53033-1.64777-1.59324-3.57951-2.84626-5.69711-3.71962-.18872-.07784-.41031,.08435-.46129,.26191-.0616,.21452,.07565,.38447,.26191,.46129h0Z" style="fill:#7e49f2;"/><path d="M33.08571,108.29807l-5.38597-2.87095-.28896,.68541c2.11851,.54326,4.03359,1.80297,5.34379,3.55938,.28528,.38244,.93664,.00893,.6476-.37854-1.42917-1.91591-3.47261-3.30928-5.79201-3.90405-.40182-.10304-.67367,.48034-.28896,.68541,1.79532,.95698,3.59065,1.91397,5.38597,2.87095,.42578,.22696,.80509-.42023,.37854-.6476h0Z" style="fill:#7e49f2;"/><path d="M29.09516,105.7142c.48259,0,.48339-.75,0-.75-.48259,0-.48339,.75,0,.75h0Z" style="fill:#7e49f2;"/><path d="M28.91536,105.17997c.49316,.93907,1.56052,1.54478,2.62018,1.48105,.19544-.01175,.38445-.16406,.375-.375-.00865-.19309-.16529-.38761-.375-.375-.11313,.0068-.22627,.00657-.33925-.0029-.02253-.00189-.04497-.00482-.06749-.00666,.07593,.0062-.0016-.00035-.01783-.00303-.05579-.00921-.1112-.02041-.1662-.03355-.10458-.02498-.20749-.05687-.30792-.09529,.00162,.00062-.09003-.03788-.04958-.01967,.04213,.01896-.04038-.01934-.04815-.02305-.05111-.02447-.10142-.05066-.15078-.0785-.0938-.05291-.18404-.11191-.27042-.17622-.04971-.03701,.06435,.05494-.0177-.0147-.02158-.01832-.04334-.03639-.06456-.05513-.03817-.0337-.07533-.06853-.11133-.10454-.03996-.03998-.07854-.08138-.11557-.12408-.01852-.02135-.03651-.04314-.05433-.06507-.03899-.04797,.04849,.06938-.01351-.01833-.06557-.09277-.12513-.18822-.17796-.28884-.09135-.17395-.34818-.24084-.51307-.13453-.17705,.11415-.23224,.32701-.13453,.51307h0Z" style="fill:#7e49f2;"/><path d="M27.71959,105.42502c1.08511,.0991,2.1511,.33474,3.17628,.7048,.51129,.18456,1.00901,.40392,1.49094,.65536,.24134,.12591,.48222,.25646,.71248,.4018,.16577,.10463,.26891,.0894,.10991,.2506-.15218,.15429-.31659,.09877-.5224,.06404-1.93165-.32601-3.49631-1.7032-5.4273-2.05817-.33965-.06244-.55809,.24548-.42349,.55087,.3689,.83703,1.24566,.70225,1.93759,1.0535,.3598,.18265,.58805,.57237,.92221,.80188,.29759,.20439,.63317,.33856,.96441,.47716,.39917,.16703,.78556,.33374,1.11577,.62029,.33912,.29428,.64031,.62446,.99307,.90461,.66688,.52962,1.40557,.92878,2.20248,1.22512l.19938-.72321c-.91964-.16396-1.79633-.90046-2.5889-1.37577-.88205-.52898-1.7641-1.05795-2.64615-1.58693-1.68579-1.01099-3.38131-2.0092-4.98571-3.14747-.3944-.27981-.76943,.37028-.37854,.6476,1.66021,1.17786,3.41773,2.20714,5.16212,3.25326,.88205,.52898,1.7641,1.05795,2.64615,1.58693,.79941,.47941,1.65562,1.1787,2.59165,1.34558,.47599,.08486,.65395-.55418,.19938-.72321-.77497-.28817-1.5024-.70358-2.1292-1.24488-.60179-.5197-1.06546-1.02844-1.81054-1.34986-.32488-.14015-.65955-.26043-.96665-.43825-.3341-.19346-.54432-.49398-.83858-.73229-.53513-.43338-1.65115-.31191-1.94234-.97261l-.42349,.55087c1.35381,.24887,2.51705,.98148,3.76367,1.52154,.78345,.3394,2.58123,1.143,3.17468,.11419,.25115-.43539,.05593-.86832-.3274-1.14035-.57444-.40765-1.24688-.7139-1.89317-.9872-1.29564-.54789-2.65884-.872-4.05832-.99981-.48048-.04388-.4775,.70639,0,.75h0Z" style="fill:#7e49f2;"/><path d="M37.11749,111.67254c-4.51773-2.35643-9.35684-4.48602-13.35999-7.68472-.37344-.29839-.9075,.22896-.53033,.53033,4.05937,3.24362,8.93033,5.41232,13.51178,7.80199,.42746,.22296,.80711-.42406,.37854-.6476h0Z" style="fill:#7e49f2;"/><path d="M25.12944,102.04213c1.27181,.70957,2.2269,1.84073,3.36071,2.73651,1.0862,.85817,2.2598,1.58216,3.50668,2.18217,.30125,.14497,.75627-.18092,.51307-.51307-1.0075-1.37602-2.04668-2.73818-3.54722-3.60605l-.37854,.6476c1.03789,.5479,1.91517,1.28911,2.60664,2.2391l.42349-.55087c-1.20022-.46612-2.24532-1.17455-3.1391-2.09994l-.36485,.62677c1.54505,.604,2.85762,1.59258,3.89608,2.88266l.45443-.58897c-1.05852-.61946-1.96482-1.41565-2.69859-2.39948l-.51307,.51307c1.35122,.7606,2.57634,1.68071,3.68174,2.76829l.45443-.58897c-2.8395-2.04849-5.679-4.09698-8.5185-6.14546-.34285-.24734-.77936,.31414-.45443,.58897,1.65484,1.39971,3.54289,2.43809,5.44733,3.45383,.42741,.22796,.78352-.38516,.37854-.6476-1.11081-.71983-2.22162-1.43967-3.33243-2.1595l-.37854,.6476c2.53298,1.51497,4.46283,3.61451,6.69855,5.49626,1.0008,.84235,2.07354,1.54584,3.22691,2.16164,.60323,.32207,1.21461,.62932,1.81002,.96591,.34407,.1945,1.76822,.85287,1.80169,1.26662l.18573-.3238,.29211,.06965-.05864,.45443,.04569-.05306c.31346-.36405-.21474-.89686-.53033-.53033l-.04569,.05306c-.10107,.11739-.15888,.31409-.05864,.45443,.18831,.26365,.44147,.36461,.73403,.19941,.10748-.06069,.19602-.19664,.18573-.3238-.04588-.5671-.45773-.80457-.90456-1.12117-.59328-.42036-1.22739-.77787-1.86785-1.12047-1.42151-.76039-2.82584-1.48223-4.07881-2.51061-2.37609-1.95019-4.39318-4.19231-7.05741-5.78578-.41691-.24936-.78171,.38634-.37854,.6476,1.11081,.71983,2.22162,1.43967,3.33243,2.1595l.37854-.6476c-1.84483-.98394-3.69191-1.98016-5.29554-3.33656l-.45443,.58897c2.8395,2.04849,5.679,4.09698,8.5185,6.14546,.35011,.25258,.75202-.29618,.45443-.58897-1.14932-1.13078-2.4284-2.09461-3.83353-2.88556-.30216-.17009-.74948,.1961-.51307,.51307,.81228,1.08912,1.79446,1.98198,2.96765,2.66855,.39023,.22837,.70909-.27261,.45443-.58897-1.12429-1.3967-2.5596-2.42369-4.22703-3.07553-.36676-.14338-.60603,.37706-.36485,.62677,.98683,1.02173,2.14694,1.77897,3.47005,2.29282,.29537,.11471,.6108-.29354,.42349-.55087-.76775-1.05479-1.72091-1.89855-2.87571-2.50816-.42574-.22475-.79832,.40481-.37854,.6476,1.38643,.80187,2.34715,2.06545,3.27815,3.33699l.51307-.51307c-1.34964-.64946-2.62401-1.44161-3.77324-2.40491-1.02267-.85721-1.91762-1.85738-3.09414-2.51378-.42193-.2354-.80055,.41215-.37854,.6476h0Z" style="fill:#7e49f2;"/><path d="M21.96983,99.70457c5.74537,2.37463,10.81577,6.00504,16.13271,9.16748,2.55329,1.51866,5.26026,2.69117,7.852,4.12427,2.47542,1.36879,4.65487,3.24706,7.46525,3.90825,.46942,.11044,.66977-.61254,.19938-.72321-2.94819-.69361-5.20764-2.77442-7.84708-4.13197-2.71064-1.39416-5.42264-2.69205-8.03679-4.27248-5.10701-3.08751-10.02519-6.50545-15.56607-8.79556-.44564-.18419-.6399,.54114-.19938,.72321h0Z" style="fill:#7e49f2;"/><path d="M34.05523,106.34041c-.20392-.07873-.43001-.16181-.59188-.3151-.14999-.14204-.18906-.33325-.24978-.52246-.12263-.38214-.28711-.708-.69419-.83624-.3117-.09819-.5914,.2765-.42349,.55087,.5,.81705,1.34481,1.2349,2.09976,1.77409,.82054,.58604,1.28944,1.43862,1.59156,2.38333,.07193,.22492,.1356,.45233,.19463,.68095,.06004,.23257,.07979,.51953,.17705,.73914,.00614,.16871,.07098,.15236,.19451-.04906-.06304-.01682-.12519-.03647-.18646-.05897-.11182-.03697-.22272-.07709-.33337-.11735-.27898-.10151-.55542-.21026-.82861-.32648-1.11753-.47541-2.20474-1.02621-3.30012-1.54994l-.28896,.68541c.48561,.17121,.82832,.75025,1.22386,1.06696,.4513,.36136,.94772,.64903,1.4781,.8778,1.07316,.46289,2.2178,.69858,3.36118,.91464,.47171,.08914,.67383-.63355,.19938-.72321-1.14087-.21559-2.31465-.43493-3.37547-.92506-.5112-.23619-.99823-.53105-1.41237-.91495-.41201-.38192-.72583-.82567-1.27531-1.01939-.39694-.13995-.67333,.50163-.28896,.68541,.97958,.46836,1.95361,.9518,2.94511,1.39457,.46611,.20815,.93781,.40451,1.4182,.5774,.33484,.1205,.8117,.33639,1.10361,.00564,.28456-.32243,.06554-.83649-.02222-1.19763-.11124-.45775-.23621-.91323-.4024-1.35443-.30832-.81853-.75149-1.59354-1.43873-2.15193-.7197-.58476-1.68703-.95948-2.18639-1.77547l-.42349,.55087c.1284,.04045,.15885,.2785,.19521,.39331,.06061,.1914,.12403,.38737,.23625,.55576,.25599,.38412,.69052,.56493,1.1044,.72472,.45058,.17395,.64567-.55091,.19938-.72321h0Z" style="fill:#7e49f2;"/><path d="M37.50707,34.50858c-.38705,2.22902-3.05717,1.76968-4.47859,2.92288-.26585,.21569-.03363,.63342,.26517,.64017,.99551,.02248,2.01834,.31652,2.73343,1.04233,.6919,.70226,.94756,1.74534,.58192,2.66635l.72321,.19938c.14983-.87201,.43906-1.81024,1.14599-2.39556,.85123-.70478,2.0605-.53534,3.07341-.40401,.39188,.05081,.47705-.52071,.18927-.6988-.93738-.5801-1.72541-1.36687-2.29843-2.30989-.62749-1.03266-.83221-2.11438-1.06362-3.28109-.09382-.47302-.81686-.27279-.72321,.19938,.2534,1.27755,.50354,2.45867,1.21123,3.57631,.63436,1.00184,1.48798,1.83939,2.4955,2.4629l.18927-.6988c-1.19712-.15521-2.50231-.25138-3.50769,.54621-.85423,.67768-1.25567,1.76065-1.43493,2.80397-.08239,.47952,.54507,.64808,.72321,.19938,.44599-1.1234,.11004-2.41789-.68429-3.30004-.84318-.9364-2.1271-1.3303-3.35427-1.35801l.26517,.64017c.79564-.6455,1.91603-.66626,2.83634-1.04559,.95617-.39411,1.65573-1.17511,1.83513-2.20824,.08197-.47205-.64066-.67478-.72321-.19938h0Z" style="fill:#7e49f2;"/><path d="M38.37943,38.03167c.10022-.43241,.21109-.86381,.30095-1.29849,.07605-.36789-.14789-.76067-.24602-1.11554-.19465-.70389-.31477-1.485,.05473-2.15331,.23372-.42272-.41376-.80149-.6476-.37854-.62289,1.1266-.26318,2.42363,.13575,3.56082v-.19938l-.32101,1.38506c-.10885,.46966,.6141,.67014,.72321,.19938h0Z" style="fill:#7e49f2;"/><path d="M36.90288,38.32564l.09064-.40221c.10579-.46947-.58793-.66509-.72321-.19938-.07832,.26962-.11303,.5259-.10989,.80611,.0024,.21464,.17054,.35878,.375,.375,.97062,.07702,1.73512-.64733,1.83548-1.58677,.01242-.11627-.07778-.27665-.18573-.3238-.37842-.16529-.67333-.16855-1.04991,.0114-.26744,.12779-.21927,.50753,0,.6476,.81506,.52068,1.78063-.23709,1.64641-1.13411-.0194-.12966-.14787-.22381-.26191-.26191-.58631-.19591-1.54368,.19811-1.48103,.94405,.05648,.67239,1.00882,.60391,1.36428,.24129,.49863-.50868,.16707-1.29136-.44948-1.51405-.81962-.29603-1.4663,.36169-1.71063,1.08249-.05035,.14853,.03172,.35171,.17233,.42349,.6346,.32396,1.37374,.12894,1.72136-.50759,.07962-.14579,.06209-.3354-.05864-.45443-.71496-.70491-1.94743-.1933-2.00613,.78933-.00907,.15182,.122,.33284,.27531,.3616l.69053,.12954c.4093,.07678,.66254-.44958,.28896-.68541-.4199-.26506-.84759-.3867-1.3436-.39296-.3855-.00486-.49217,.50287-.18927,.6988,.31472,.20358,.61665,.29496,.9863,.33965,.42522,.05141,.49966-.63159,.09969-.7366-.5026-.13196-.94339-.08113-1.41607,.12304-.27699,.11964-.20955,.51,0,.6476,.37838,.24847,.76682,.36931,1.21568,.41237,.42105,.0404,.50914-.64494,.09969-.7366l-1.48636-.33274c-.47007-.10523-.6709,.61695-.19938,.72321l.92165,.2077c.46991,.1059,.67071-.61569,.19938-.72321l-.92534-.21109c-.46966-.10714-.67034,.61353-.19938,.72321l1.99966,.46568-.26191-.46129-.1267,.2798,.62677,.36485c.03027-.1497,.10238-.27542,.21634-.37717l-.58897-.45443c-.17298,.37241-.21608,.70741-.10591,1.10737,.05772,.20953,.35423,.37542,.55087,.22411,.34-.26161,.55129-.53944,.68053-.95278,.14711-.4705-.54914-.63695-.72321-.19938-.14264,.35857-.15416,.68044-.08689,1.05716,.03326,.18626,.28467,.32995,.46129,.26191,.33914-.13063,.53172-.31768,.64893-.66594,.12091-.35923-.37402-.6271-.62677-.36485-.26764,.27769-.18239,.74555,.21331,.87098,.51449,.16309,.72714-.38709,.77186-.7813,.02668-.23519-.26206-.43588-.47469-.3616-.5408,.1889-.88643,.53501-1.06917,1.0788-.11429,.34011,.27819,.54769,.55087,.42349,.8085-.36826,1.28967-1.19151,1.22659-2.07573l-.7366,.09969c.10579,.48336,.55727,.73175,1.02623,.60469,.24194-.06555,.33574-.33896,.22411-.55087l-.34321-.65156-.51307,.51307c.29039,.17697,.44811,.38346,.57877,.68949l.58897-.45443-.61748-.73881-.36485,.62677c.28412,.09948,.46521,.21047,.68694,.41355l.16548-.62677c-.10917,.06818-.22785,.08751-.35604,.05798-.41729-.03582-.51626,.66146-.09969,.7366,.13743,.02479,.27486,.04958,.41229,.07437l.09969-.7366-.85636,.09672c-.3924,.04432-.54179,.62454-.09969,.7366l1.1105,.28149,.19938-.72321-.88425-.20408c-.42528-.09815-.63533,.44426-.28896,.68541,.26324,.18327,.52017,.29627,.8309,.37179l.19938-.72321-.46679-.11061c-.47033-.11145-.66029,.57864-.19938,.72321l.44625,.13997c.41955,.1316,.63394-.45984,.28896-.68541-.482-.31516-1.07103-.37436-1.60644-.15401-.25635,.1055-.46355,.26415-.63986,.47624-.10389,.12497-.37185,.68192-.54177,.64861l.26191,.46129c.81188-2.46058,1.41941-5.03293,1.08333-7.63635-.05341-.41378-.58377-.5164-.7366-.09969-.87638,2.38948-2.02945,5.26622-4.84061,5.80382-.35345,.06759-.36245,.66275,0,.72321,1.18433,.19756,2.48378,.46221,2.94149,1.72777,.46785,1.29361,.473,2.81728,.38442,4.17252-.02431,.37193,.52803,.50984,.6988,.18927,.48627-.9128,.67055-1.91904,1.02028-2.88318,.35701-.9842,1.20456-2.19461,2.4102-1.95302,.28357,.05682,.63698-.26489,.42349-.55087-.10587-.14182-.21174-.28365-.31762-.42547-.2854-.38232-.93677-.00882-.6476,.37854,.10587,.14182,.21174,.28365,.31762,.42547l.42349-.55087c-1.15462-.23136-2.14202,.41711-2.78279,1.34484-.79116,1.14546-.84719,2.6206-1.49467,3.83603l.6988,.18927c.09943-1.52128,.10783-3.40437-.5923-4.80595-.6291-1.25937-2.00472-1.60411-3.28424-1.81755v.72321c3.08531-.59002,4.39902-3.6954,5.36443-6.32765l-.7366-.09969c.3285,2.54475-.26305,5.03211-1.05654,7.43697-.06008,.1821,.07001,.42368,.26191,.46129,.46059,.09028,.75176-.11653,1.0262-.47696,.41448-.54436,.87302-1.03352,1.58271-.56949l.28896-.68541-.44625-.13997-.19938,.72321,.46679,.11061c.46908,.11116,.66925-.60901,.19938-.72321-.2477-.0602-.4426-.15058-.65174-.29619l-.28896,.68541,.88425,.20408c.46897,.10824,.66891-.60419,.19938-.72321l-1.1105-.28149-.09969,.7366,.85636-.09672c.38087-.04302,.5537-.65471,.09969-.7366-.13743-.02479-.27486-.04958-.41229-.07437l-.09969,.7366c.2033,.01745,.36572-.00538,.55542-.08477,.24127-.10097,.39598-.41564,.16548-.62677-.30789-.282-.62408-.46855-1.01789-.60643-.38548-.13497-.58273,.36609-.36485,.62677l.61748,.73881c.29781,.35632,.74065-.09915,.58897-.45443-.17997-.42154-.45876-.72145-.84783-.95855-.33284-.20284-.68202,.19234-.51307,.51307l.34321,.65156,.22411-.55087-.10364-.08086c-.08928-.40793-.7669-.32499-.7366,.09969,.04605,.64544-.26931,1.1613-.85513,1.42813l.55087,.42349c.09188-.27341,.27242-.45964,.54534-.55497l-.47469-.3616,.32846,.14131-.09644,.36485,.06314-.06551-.62677-.36485-.1251,.14211,.46129,.26191c-.04383-.24546-.0028-.43293,.08689-.6584l-.72321-.19938c-.0471,.20893-.15905,.37712-.33586,.50456l.55087,.22411c-.07128-.17873-.06118-.35521,.03031-.52945,.16865-.36308-.27738-.786-.58897-.45443-.19912,.21188-.32542,.42876-.40922,.70812-.10292,.3431,.38164,.65839,.62677,.36485,.16215-.19417,.26101-.36431,.31958-.61075,.0454-.19106-.05874-.41398-.26191-.46129l-1.99966-.46568-.19938,.72321,.92534,.21109,.19938-.72321-.92165-.2077-.19938,.72321,1.48636,.33274,.09969-.7366c-.3191-.03062-.57074-.13504-.83714-.30998v.6476c.28824-.1245,.53854-.1261,.83815-.04743l.09969-.7366c-.23289-.02816-.41451-.11225-.60776-.23725l-.18927,.6988c.365,.00461,.65674,.09594,.96506,.29057l.28896-.68541-.69053-.12954,.27531,.3616c.02039-.34129,.49686-.48472,.7258-.259l-.05864-.45443c-.14472,.26499-.41278,.38272-.69522,.23853l.17233,.42349c.08222-.24256,.26845-.60811,.58567-.60723,.40625,.00113,.27951,.48672,.12712,.33294l.09644,.36485c.05747-.28501,.26761-.41323,.54504-.32053l-.26191-.26191c.04871,.32551-.36511,.40183-.54466,.28713v.6476l.29283-.0114-.18573-.3238c-.05971,.55895-.55693,.87871-1.08548,.83677l.375,.375c-.0024-.21481,.02318-.40044,.0831-.60673l-.72321-.19938-.09064,.40221c-.10593,.47007,.61698,.67079,.72321,.19938h0Z" style="fill:#7e49f2;"/><path d="M37.24708,36.61402l.56829-1.03874c.21031-.38441-.2703-.72928-.58897-.45443-.25185,.21721-.50369,.43443-.75554,.65164-.29473,.2542,.02167,.71562,.36485,.62677,.18359-.04753,.31488-.17018,.38643-.34463,.03427-.08357,.05007-.16318,.05899-.25371,.00369-.03957,.00594-.07923,.00674-.11897,.02053-.08072-.01843-.05178-.11687,.08682h-.19938c-.0627-.03234-.1138-.07603-.15329-.13108v-.19938l-.00545,.02868,.09644-.16548-.01855,.01907,.16548-.09644-.03339,.00498,.46129,.46129c.14515-.36539,.33282-.71079,.5475-1.03978l-.68541-.28896c-.08936,.38944-.17872,.77888-.26808,1.16832-.10786,.47006,.58195,.66241,.72321,.19938l.22942-.75203c.12307-.40341-.48357-.66599-.68541-.28896-.328,.6127-.69163,1.40058-.30094,2.07209,.30093,.51724,.99038,.84186,1.53398,.48844l-.55087-.42349c-.07794,.28879-.20626,.55066-.40108,.77921-.11856,.13909-.17002,.39847,0,.53033,.47693,.3699,1.04134,.57041,1.64989,.51644,.48461-.04297,.47946-.69969,0-.75-.32444-.03404-.64889-.06808-.97333-.10213-.1635-.01716-.31843,.12901-.3616,.27531-.11459,.38827-.22918,.77655-.34377,1.16482-.08128,.27539,.1895,.53668,.46129,.46129,1.06518-.29543,2.15496-.43884,3.2603-.42956,.23337,.00196,.43911-.24268,.3616-.47469-.04538-.13586-.09076-.27172-.13615-.40757-.15216-.45551-.87674-.26023-.72321,.19938,.04538,.13586,.09076,.27172,.13615,.40757l.3616-.47469c-1.16807-.00981-2.33406,.14415-3.45968,.45635l.46129,.46129c.11459-.38827,.22918-.77655,.34377-1.16482l-.3616,.27531c.32444,.03404,.64889,.06808,.97333,.10213v-.75c-.3973,.03523-.79861-.04786-1.11956-.29677v.53033c.28032-.32886,.48105-.69179,.59396-1.11016,.08199-.30381-.27033-.60588-.55087-.42349-.21598,.14042-.47246-.09032-.54401-.29822-.14008-.40699,.15282-.89192,.33711-1.23617l-.68541-.28896-.22942,.75203,.72321,.19938c.08936-.38944,.17872-.77888,.26808-1.16832,.09579-.41747-.45121-.64787-.68541-.28896-.25131,.38513-.45344,.79185-.6231,1.21894-.11823,.29762,.21476,.49805,.46129,.46129,.48971-.07302,.37508-.76966-.01717-.89719-.20644-.06712-.42281,.03335-.54239,.20487-.06458,.09263-.09635,.19584-.11198,.30682-.00568,.04035-.02307,.10608-.0141,.14717,.02017,.09241-.0959,.0127,.09973-.03794l.36485,.62677c.25185-.21721,.50369-.43443,.75554-.65164l-.58897-.45443-.56829,1.03874c-.23177,.42363,.41563,.80255,.6476,.37854h0Z" style="fill:#7e49f2;"/><path d="M213.0456,164.73199c3.69329-1.07378,5.97806-4.34316,7.9863-7.40246l-.6988-.18927c-.31457,2.40824-.4826,4.82272,.80019,6.99254,1.02384,1.73182,2.6913,2.99323,4.62181,3.53599l.19938-.72321c-6.03798-.89752-9.6559,4.75423-12.14926,9.31347-.23645,.43235,.36767,.76133,.6476,.37854,1.61401-2.20708,1.99073-4.99821,1.67135-7.66235-.26672-2.2249-1.1973-5.27561-3.99966-5.07538-.47866,.0342-.48242,.78447,0,.75,2.79512-.19971,3.27517,3.51681,3.34774,5.56553,.07648,2.1592-.37733,4.28004-1.66704,6.04367l.6476,.37854c2.29285-4.19259,5.66618-9.80658,11.30228-8.9688,.46433,.06902,.67709-.5889,.19938-.72321-1.83755-.51662-3.39222-1.74537-4.30717-3.42616-1.08269-1.98895-.84621-4.22024-.56421-6.37916,.05207-.39865-.51639-.46716-.6988-.18927-1.8948,2.88649-4.04638,6.04262-7.53808,7.05779-.46255,.13448-.26577,.85845,.19938,.72321h0Z" style="fill:#7e49f2;"/><text/><path d="M37.26226,38.86428c1.93036,0,1.93355-3,0-3-1.93036,0-1.93355,3,0,3h0Z" style="fill:#7e49f2;"/><path d="M37.72086,40.01078c1.93036,0,1.93355-3,0-3-1.93036,0-1.93355,3,0,3h0Z" style="fill:#7e49f2;"/><path d="M37.60621,40.35472c1.93036,0,1.93355-3,0-3-1.93036,0-1.93355,3,0,3h0Z" style="fill:#7e49f2;"/><path d="M38.17946,38.86428c1.93036,0,1.93355-3,0-3-1.93036,0-1.93355,3,0,3h0Z" style="fill:#7e49f2;"/><path d="M36.99475,39.36109c1.93036,0,1.93355-3,0-3-1.93036,0-1.93355,3,0,3h0Z" style="fill:#7e49f2;"/><path d="M36.23041,39.13179c1.93036,0,1.93355-3,0-3-1.93036,0-1.93355,3,0,3h0Z" style="fill:#7e49f2;"/><path d="M37.7884,33.95279c.44674,2.31329,2.0792,4.2205,4.06897,5.4016l.18927-.6988c-1.60654-.09776-3.38511,.07055-4.38365,1.50116-.27686,.39667,.37302,.77193,.6476,.37854,.82696-1.18479,2.44169-1.20846,3.73604-1.1297,.38218,.02326,.49558-.51698,.18927-.6988-1.83518-1.08934-3.31269-2.82199-3.7243-4.95337-.09142-.47341-.81443-.27297-.72321,.19938h0Z" style="fill:#7e49f2;"/><path d="M37.8304,33.52335c.16406,.64648,.34894,1.28745,.55647,1.92133,.19047,.58179,.36259,1.22264,.8045,1.67017,.33965,.34397,.86994-.1864,.53033-.53033-.36958-.37429-.49585-.97916-.65215-1.464-.19124-.59318-.36263-1.19248-.51593-1.79656-.11865-.46753-.84218-.26941-.72321,.19938h0Z" style="fill:#7e49f2;"/><text/></g></svg>