<svg width="286" height="244" viewBox="0 0 286 244" fill="none" xmlns="http://www.w3.org/2000/svg">
<path d="M205.398 118.039C205.398 118.039 205.399 118.039 205.399 118.039" stroke="white" stroke-miterlimit="10"/>
<path d="M45.2812 130.442C45.86 132.521 46.1996 135.531 46.5572 137.631C51.2976 165.48 68.7397 190.764 93.0714 205.082C139.029 232.589 199.835 216.993 227.06 170.891C227.06 170.891 227.541 171.638 227.541 171.638C180.973 176.58 131.264 167.089 87.2047 151.969C75.9935 147.935 64.9315 143.268 54.3919 137.669C52.2234 136.544 50.0739 135.343 47.9522 134.131C46.6208 133.181 47.2746 132.708 45.2812 130.442L45.2812 130.442ZM44.7539 129.593C45.8783 127.879 49.6488 130.326 51.1844 131.09C52.9127 131.997 54.6297 132.922 56.3906 133.771C66.9076 138.97 77.8073 143.409 88.8519 147.375C125.802 160.43 164.655 168.874 203.862 170.747C212.019 171.119 220.199 171.076 228.363 170.591C184.659 249.366 67.6678 232.96 46.7354 145.522C45.7049 140.559 44.5109 134.644 44.7538 129.593L44.7539 129.593Z" fill="white"/>
<path d="M239.566 115.399C230.862 40.2433 145.384 2.19463 84.0529 46.5703C73.737 54.171 64.8728 63.5408 58.0216 74.4874C58.0215 74.4873 57.1542 73.9895 57.1542 73.9895C65.5734 57.6811 79.2629 44.2328 95.2486 35.2395C135.693 12.549 188.13 22.172 217.86 57.7699C231.479 73.7736 239.735 94.3675 240.563 115.322C240.563 115.322 239.566 115.399 239.566 115.399V115.399Z" fill="white"/>
<path d="M57.6346 74.7359C22.4703 78.1258 -2.90673 94.4662 36.1417 121.393C39.5082 124.124 43.3324 125.41 45.0173 130.015C43.9304 125.257 43.5227 120.328 43.6177 115.422C43.8163 105.589 46.0013 95.7824 49.9019 86.7594C51.8584 82.2505 54.2389 77.9241 57.154 73.9894L58.0216 74.4867C56.1284 78.9445 54.3327 83.3721 52.7902 87.8803C49.6925 96.8914 47.5749 106.178 46.3629 115.623C45.7489 120.36 45.3652 125.146 45.0158 130.018C40.3775 130.768 36.9353 127.551 33.3739 125.203C29.9963 122.749 26.7873 120.016 23.9042 116.921C2.00632 93.1372 19.6691 79.4196 45.3262 75.305C49.3753 74.5867 53.4546 74.0938 57.541 73.7402L57.6346 74.7358L57.6346 74.7359Z" fill="white"/>
<path d="M240.563 115.322C242.91 134.127 239.168 155.837 227.928 171.388C227.928 171.388 227.447 170.642 227.447 170.642C235.514 169.49 243.552 167.963 251.108 165.239C279.625 154.718 267.713 137.014 249.64 123.019C246.451 120.5 243.145 118.127 239.808 115.79C239.808 115.79 240.32 114.931 240.32 114.931C247.634 118.666 254.681 123.111 260.79 128.851C271.22 138.314 277.115 152.563 263.348 162.217C252.788 169.198 239.792 170.857 227.541 171.638C227.541 171.638 226.706 171.682 226.706 171.682L227.06 170.891C230.777 162.018 234.44 153.25 236.618 143.889C238.847 134.581 239.772 124.974 239.566 115.399C239.566 115.399 240.563 115.322 240.563 115.322L240.563 115.322Z" fill="white"/>
<path d="M34.9034 124.546C37.0777 126.375 39.4992 127.695 42.1281 128.745C44.4331 129.666 46.9959 130.605 48.328 132.851L48.8411 132.338C46.8733 131.094 45.0723 129.631 43.4495 127.962C43.1124 127.616 42.5823 128.146 42.9192 128.493C44.5853 130.206 46.4425 131.709 48.4625 132.985C48.7832 133.188 49.1634 132.789 48.9756 132.472C47.7121 130.342 45.4566 129.286 43.2469 128.39C40.4226 127.244 37.7861 125.994 35.4338 124.015C35.0666 123.707 34.5334 124.235 34.9034 124.546H34.9034Z" fill="white"/>
<path d="M40.8817 128.027C42.8747 128.849 44.699 130.057 46.2479 131.554C46.595 131.89 47.126 131.36 46.7782 131.024C45.1304 129.431 43.1987 128.178 41.0811 127.304C40.8924 127.226 40.6708 127.389 40.6198 127.566C40.5582 127.781 40.6954 127.951 40.8817 128.027V128.027Z" fill="white"/>
<path d="M47.0857 131.298L41.6997 128.427L41.4107 129.112C43.5292 129.656 45.4443 130.915 46.7545 132.672C47.0398 133.054 47.6912 132.681 47.4021 132.293C45.9729 130.377 43.9295 128.984 41.6101 128.389C41.2083 128.286 40.9364 128.869 41.3211 129.074C43.1165 130.031 44.9118 130.988 46.7071 131.945C47.1329 132.172 47.5122 131.525 47.0857 131.298V131.298Z" fill="white"/>
<path d="M43.0952 128.714C43.5777 128.714 43.5785 127.964 43.0952 127.964C42.6126 127.964 42.6118 128.714 43.0952 128.714Z" fill="white"/>
<path d="M42.9153 128.18C43.4085 129.119 44.4758 129.725 45.5355 129.661C45.7309 129.65 45.92 129.497 45.9105 129.286C45.9019 129.093 45.7452 128.899 45.5355 128.911C45.4224 128.918 45.3092 128.918 45.1963 128.908C45.1737 128.907 45.1513 128.904 45.1288 128.902C45.2047 128.908 45.1272 128.901 45.1109 128.899C45.0551 128.89 44.9997 128.878 44.9447 128.865C44.8402 128.84 44.7372 128.808 44.6368 128.77C44.6384 128.771 44.5468 128.732 44.5872 128.75C44.6294 128.769 44.5468 128.731 44.5391 128.727C44.488 128.703 44.4377 128.677 44.3883 128.649C44.2945 128.596 44.2043 128.537 44.1179 128.472C44.0682 128.435 44.1822 128.527 44.1002 128.458C44.0786 128.439 44.0568 128.421 44.0356 128.403C43.9974 128.369 43.9603 128.334 43.9243 128.298C43.8843 128.258 43.8457 128.217 43.8087 128.174C43.7902 128.153 43.7722 128.131 43.7544 128.109C43.7154 128.061 43.8029 128.178 43.7409 128.091C43.6753 127.998 43.6158 127.902 43.5629 127.802C43.4716 127.628 43.2147 127.561 43.0499 127.667C42.8728 127.781 42.8176 127.994 42.9153 128.18V128.18Z" fill="white"/>
<path d="M41.7196 128.425C42.8047 128.524 43.8707 128.76 44.8958 129.13C45.4071 129.314 45.9049 129.534 46.3868 129.785C46.6281 129.911 46.869 130.041 47.0993 130.187C47.265 130.291 47.3682 130.276 47.2092 130.437C47.057 130.592 46.8926 130.536 46.6868 130.501C44.7551 130.175 43.1905 128.798 41.2595 128.443C40.9198 128.381 40.7014 128.689 40.836 128.994C41.2049 129.831 42.0816 129.696 42.7736 130.048C43.1334 130.23 43.3616 130.62 43.6958 130.849C43.9934 131.054 44.329 131.188 44.6602 131.327C45.0594 131.494 45.4458 131.66 45.776 131.947C46.1151 132.241 46.4163 132.571 46.769 132.852C47.4359 133.381 48.1746 133.78 48.9715 134.077L49.1709 133.353C48.2513 133.189 47.3746 132.453 46.582 131.978C45.7 131.449 44.8179 130.92 43.9359 130.391C42.2501 129.38 40.5545 128.382 38.9501 127.243C38.5557 126.963 38.1807 127.614 38.5716 127.891C40.2318 129.069 41.9893 130.098 43.7337 131.144C44.6158 131.673 45.4978 132.202 46.3799 132.731C47.1793 133.21 48.0355 133.91 48.9715 134.077C49.4475 134.162 49.6255 133.522 49.1709 133.353C48.3959 133.065 47.6685 132.65 47.0417 132.109C46.4399 131.589 45.9762 131.08 45.2312 130.759C44.9063 130.619 44.5716 130.498 44.2645 130.32C43.9304 130.127 43.7202 129.826 43.4259 129.588C42.8908 129.155 41.7748 129.276 41.4836 128.616L41.0601 129.166C42.4139 129.415 43.5771 130.148 44.8238 130.688C45.6072 131.027 47.405 131.831 47.9984 130.802C48.2496 130.367 48.0544 129.934 47.6711 129.662C47.0966 129.254 46.4242 128.948 45.7779 128.675C44.4822 128.127 43.119 127.803 41.7196 127.675C41.2391 127.631 41.2421 128.381 41.7196 128.425L41.7196 128.425Z" fill="white"/>
<path d="M51.1175 134.673C46.5998 132.316 41.7607 130.187 37.7575 126.988C37.3841 126.69 36.85 127.217 37.2272 127.518C41.2866 130.762 46.1575 132.931 50.739 135.32C51.1664 135.543 51.5461 134.896 51.1175 134.673V134.673Z" fill="white"/>
<path d="M39.1294 125.042C40.4012 125.752 41.3563 126.883 42.4901 127.779C43.5763 128.637 44.7499 129.361 45.9968 129.961C46.2981 130.106 46.7531 129.78 46.5099 129.448C45.5024 128.072 44.4632 126.709 42.9627 125.842L42.5841 126.489C43.622 127.037 44.4993 127.778 45.1908 128.728L45.6143 128.177C44.414 127.711 43.3689 127.003 42.4752 126.077L42.1103 126.704C43.6554 127.308 44.9679 128.297 46.0064 129.587L46.4608 128.998C45.4023 128.378 44.496 127.582 43.7622 126.598L43.2492 127.112C44.6004 127.872 45.8255 128.792 46.9309 129.88L47.3853 129.291C44.5458 127.242 41.7063 125.194 38.8668 123.145C38.524 122.898 38.0875 123.46 38.4124 123.734C40.0672 125.134 41.9553 126.172 43.8597 127.188C44.2871 127.416 44.6432 126.803 44.2383 126.541C43.1274 125.821 42.0166 125.101 40.9058 124.381L40.5273 125.029C43.0603 126.544 44.9901 128.643 47.2258 130.525C48.2266 131.367 49.2994 132.071 50.4528 132.687C51.056 133.009 51.6674 133.316 52.2628 133.653C52.6068 133.847 54.031 134.505 54.0645 134.919L54.2502 134.595L54.5423 134.665L54.4837 135.119L54.5294 135.066C54.8428 134.702 54.3146 134.169 53.999 134.536L53.9533 134.589C53.8523 134.706 53.7945 134.903 53.8947 135.044C54.083 135.307 54.3362 135.408 54.6287 135.243C54.7362 135.182 54.8248 135.046 54.8145 134.919C54.7686 134.352 54.3567 134.115 53.9099 133.798C53.3166 133.378 52.6825 133.02 52.042 132.677C50.6205 131.917 49.2162 131.195 47.9632 130.167C45.5871 128.217 43.5701 125.975 40.9058 124.381C40.4889 124.132 40.1241 124.767 40.5273 125.029C41.6381 125.749 42.7489 126.468 43.8597 127.188L44.2383 126.541C42.3934 125.557 40.5463 124.56 38.9427 123.204L38.4883 123.793C41.3278 125.841 44.1673 127.89 47.0068 129.938C47.3569 130.191 47.7588 129.642 47.4612 129.349C46.3119 128.219 45.0328 127.255 43.6277 126.464C43.3255 126.294 42.8782 126.66 43.1146 126.977C43.9269 128.066 44.9091 128.959 46.0823 129.646C46.4725 129.874 46.7913 129.373 46.5367 129.057C45.4124 127.66 43.9771 126.633 42.3097 125.981C41.9429 125.838 41.7036 126.358 41.9448 126.608C42.9316 127.63 44.0918 128.387 45.4149 128.901C45.7102 129.015 46.0257 128.607 45.8384 128.35C45.0706 127.295 44.1174 126.451 42.9626 125.842C42.5369 125.617 42.1643 126.246 42.5841 126.489C43.9705 127.291 44.9313 128.555 45.8623 129.826L46.3753 129.313C45.0257 128.664 43.7513 127.872 42.6021 126.908C41.5794 126.051 40.6845 125.051 39.5079 124.394C39.086 124.159 38.7074 124.807 39.1294 125.042H39.1294Z" fill="white"/>
<path d="M35.9698 122.704C41.7152 125.079 46.7856 128.709 52.1025 131.872C54.6558 133.39 57.3628 134.563 59.9545 135.996C62.4299 137.365 64.6094 139.243 67.4198 139.904C67.8892 140.015 68.0895 139.292 67.6192 139.181C64.671 138.487 62.4115 136.406 59.7721 135.049C57.0614 133.655 54.3494 132.357 51.7353 130.776C46.6283 127.689 41.7101 124.271 36.1692 121.981C35.7236 121.797 35.5293 122.522 35.9698 122.704H35.9698Z" fill="white"/>
<path d="M48.0552 129.34C47.8513 129.261 47.6252 129.178 47.4633 129.025C47.3133 128.883 47.2742 128.692 47.2135 128.503C47.0909 128.12 46.9264 127.795 46.5193 127.666C46.2076 127.568 45.9279 127.943 46.0958 128.217C46.5958 129.034 47.4407 129.452 48.1956 129.991C49.0161 130.577 49.485 131.43 49.7872 132.375C49.8591 132.6 49.9228 132.827 49.9818 133.056C50.0418 133.288 50.0616 133.575 50.1588 133.795C50.165 133.963 50.2298 133.947 50.3534 133.746C50.2903 133.729 50.2282 133.709 50.1669 133.687C50.0551 133.65 49.9442 133.61 49.8335 133.569C49.5545 133.468 49.2781 133.359 49.0049 133.243C47.8874 132.768 46.8002 132.217 45.7048 131.693L45.4158 132.378C45.9014 132.55 46.2441 133.129 46.6397 133.445C47.091 133.807 47.5874 134.094 48.1178 134.323C49.1909 134.786 50.3356 135.022 51.479 135.238C51.9507 135.327 52.1528 134.604 51.6784 134.515C50.5375 134.299 49.3637 134.08 48.3029 133.59C47.7917 133.353 47.3046 133.058 46.8905 132.675C46.4785 132.293 46.1647 131.849 45.6152 131.655C45.2183 131.515 44.9419 132.157 45.3262 132.341C46.3058 132.809 47.2799 133.292 48.2714 133.735C48.7375 133.943 49.2092 134.14 49.6896 134.313C50.0244 134.433 50.5012 134.649 50.7932 134.318C51.0777 133.996 50.8587 133.482 50.7709 133.121C50.6597 132.663 50.5347 132.207 50.3685 131.766C50.0602 130.948 49.6171 130.173 48.9298 129.614C48.2101 129.029 47.2428 128.655 46.7434 127.839L46.3199 128.39C46.4483 128.43 46.4788 128.668 46.5151 128.783C46.5758 128.974 46.6392 129.17 46.7514 129.339C47.0074 129.723 47.4419 129.904 47.8558 130.063C48.3064 130.237 48.5015 129.512 48.0552 129.34L48.0552 129.34Z" fill="white"/>
<path d="M51.5071 57.5085C51.12 59.7375 48.4499 59.2782 47.0285 60.4314C46.7626 60.6471 46.9949 61.0648 47.2937 61.0716C48.2892 61.094 49.312 61.3881 50.0271 62.1139C50.719 62.8161 50.9747 63.8592 50.609 64.7802L51.3322 64.9796C51.4821 64.1076 51.7713 63.1694 52.4782 62.5841C53.3294 61.8793 54.5387 62.0487 55.5516 62.18C55.9435 62.2309 56.0287 61.6593 55.7409 61.4812C54.8035 60.9011 54.0155 60.1144 53.4425 59.1714C52.815 58.1387 52.6102 57.057 52.3788 55.8903C52.285 55.4172 51.562 55.6175 51.6556 56.0896C51.909 57.3672 52.1592 58.5483 52.8669 59.666C53.5012 60.6678 54.3548 61.5053 55.3624 62.1289L55.5516 61.4301C54.3545 61.2748 53.0493 61.1787 52.0439 61.9763C51.1897 62.6539 50.7883 63.7369 50.609 64.7802C50.5266 65.2598 51.1541 65.4283 51.3322 64.9796C51.7782 63.8562 51.4423 62.5617 50.6479 61.6796C49.8048 60.7432 48.5208 60.3493 47.2937 60.3216L47.5588 60.9617C48.3545 60.3162 49.4749 60.2955 50.3952 59.9161C51.3513 59.522 52.0509 58.741 52.2303 57.7079C52.3123 57.2359 51.5896 57.0331 51.5071 57.5085V57.5085Z" fill="white"/>
<path d="M52.3794 61.032C52.4796 60.5996 52.5905 60.1682 52.6803 59.7335C52.7564 59.3657 52.5325 58.9729 52.4343 58.618C52.2397 57.9141 52.1195 57.133 52.489 56.4647C52.7228 56.042 52.0753 55.6632 51.8414 56.0862C51.2186 57.2128 51.5783 58.5098 51.9772 59.647V59.4476L51.6562 60.8326C51.5473 61.3023 52.2703 61.5028 52.3794 61.032V61.032Z" fill="white"/>
<path d="M50.9028 61.3251L50.9935 60.9229C51.0993 60.4534 50.4056 60.2578 50.2703 60.7235C50.192 60.9932 50.1572 61.2494 50.1604 61.5296C50.1628 61.7443 50.3309 61.8884 50.5354 61.9046C51.506 61.9817 52.2705 61.2573 52.3709 60.3179C52.3833 60.2016 52.2931 60.0412 52.1851 59.9941C51.8067 59.8288 51.5118 59.8255 51.1352 60.0055C50.8678 60.1333 50.9159 60.513 51.1352 60.6531C51.9503 61.1738 52.9158 60.416 52.7816 59.519C52.7622 59.3893 52.6337 59.2952 52.5197 59.2571C51.9334 59.0612 50.976 59.4552 51.0387 60.2011C51.0952 60.8735 52.0475 60.805 52.403 60.4424C52.9016 59.9337 52.57 59.151 51.9535 58.9283C51.1339 58.6323 50.4872 59.29 50.2429 60.0108C50.1925 60.1594 50.2746 60.3625 50.4152 60.4343C51.0498 60.7583 51.7889 60.5633 52.1365 59.9267C52.2162 59.7809 52.1986 59.5913 52.0779 59.4723C51.3629 58.7674 50.1305 59.279 50.0718 60.2616C50.0627 60.4135 50.1938 60.5945 50.3471 60.6232L51.0376 60.7528C51.4469 60.8296 51.7002 60.3032 51.3266 60.0674C50.9067 59.8023 50.479 59.6807 49.983 59.6744C49.5975 59.6695 49.4908 60.1773 49.7937 60.3732C50.1084 60.5768 50.4104 60.6682 50.78 60.7129C51.2052 60.7643 51.2797 60.0813 50.8797 59.9763C50.3771 59.8443 49.9363 59.8951 49.4636 60.0993C49.1866 60.2189 49.2541 60.6093 49.4636 60.7469C49.842 60.9954 50.2304 61.1162 50.6793 61.1593C51.1004 61.1997 51.1885 60.5143 50.779 60.4227L49.2926 60.0899C48.8226 59.9847 48.6217 60.7069 49.0933 60.8131L50.0149 61.0208C50.4848 61.1267 50.6856 60.4051 50.2143 60.2976L49.289 60.0865C48.8193 59.9794 48.6186 60.7001 49.0896 60.8097L51.0892 61.2754L50.8273 60.8141L50.7006 61.0939L51.3274 61.4588C51.3577 61.3091 51.4298 61.1834 51.5437 61.0816L50.9548 60.6272C50.7818 60.9996 50.7387 61.3346 50.8488 61.7346C50.9066 61.9441 51.2031 62.11 51.3997 61.9587C51.7397 61.6971 51.951 61.4192 52.0802 61.0059C52.2274 60.5354 51.5311 60.3689 51.357 60.8065C51.2144 61.1651 51.2029 61.4869 51.2702 61.8637C51.3034 62.0499 51.5548 62.1936 51.7314 62.1256C52.0706 61.9949 52.2632 61.8079 52.3804 61.4596C52.5013 61.1004 52.0063 60.8325 51.7536 61.0948C51.486 61.3725 51.5712 61.8403 51.9669 61.9658C52.4814 62.1289 52.694 61.5787 52.7388 61.1845C52.7654 60.9493 52.4767 60.7486 52.2641 60.8229C51.7233 61.0118 51.3777 61.3579 51.1949 61.9017C51.0806 62.2418 51.4731 62.4494 51.7458 62.3252C52.5543 61.9569 53.0354 61.1337 52.9724 60.2494L52.2358 60.3491C52.3416 60.8325 52.793 61.0809 53.262 60.9538C53.5039 60.8883 53.5977 60.6148 53.4861 60.4029L53.1429 59.7514L52.6298 60.2644C52.9202 60.4414 53.0779 60.6479 53.2086 60.9539L53.7976 60.4995L53.1801 59.7607L52.8152 60.3875C53.0994 60.4869 53.2804 60.5979 53.5022 60.801L53.6677 60.1743C53.5585 60.2424 53.4398 60.2618 53.3116 60.2322C52.8943 60.1964 52.7954 60.8937 53.2119 60.9688C53.3494 60.9936 53.4868 61.0184 53.6242 61.0432L53.7239 60.3066L52.8675 60.4033C52.4751 60.4476 52.3258 61.0279 52.7679 61.1399L53.8784 61.4214L54.0777 60.6982L53.1935 60.4941C52.7682 60.396 52.5582 60.9384 52.9045 61.1795C53.1678 61.3628 53.4247 61.4758 53.7354 61.5513L53.9348 60.8281L53.468 60.7175C52.9977 60.606 52.8077 61.2961 53.2686 61.4407L53.7149 61.5807C54.1344 61.7123 54.3488 61.1208 54.0038 60.8953C53.5218 60.5801 52.9328 60.5209 52.3974 60.7413C52.1411 60.8468 51.9339 61.0054 51.7575 61.2175C51.6537 61.3425 51.3857 61.8994 51.2158 61.8661L51.4777 62.3274C52.2896 59.8668 52.8971 57.2945 52.561 54.6911C52.5076 54.2773 51.9772 54.1746 51.8244 54.5914C50.948 56.9808 49.795 59.8576 46.9838 60.3952C46.6304 60.4628 46.6214 61.0579 46.9838 61.1184C48.1681 61.3159 49.4676 61.5806 49.9253 62.8462C50.3932 64.1398 50.3983 65.6634 50.3097 67.0187C50.2854 67.3906 50.8377 67.5285 51.0085 67.2079C51.4948 66.2951 51.6791 65.2889 52.0288 64.3248C52.3858 63.3406 53.2334 62.1302 54.439 62.3717C54.7226 62.4286 55.076 62.1069 54.8625 61.8209C54.7566 61.6791 54.6508 61.5372 54.5449 61.3954C54.2595 61.0131 53.6081 61.3866 53.8973 61.7739C54.0031 61.9158 54.109 62.0576 54.2149 62.1994L54.6384 61.6485C53.4838 61.4172 52.4964 62.0657 51.8556 62.9934C51.0644 64.1388 51.0084 65.614 50.3609 66.8294L51.0597 67.0187C51.1591 65.4974 51.1675 63.6143 50.4674 62.2127C49.8383 60.9534 48.4627 60.6086 47.1832 60.3952V61.1184C50.2685 60.5284 51.5822 57.423 52.5476 54.7907L51.811 54.6911C52.1395 57.2358 51.548 59.7232 50.7545 62.128C50.6944 62.3101 50.8245 62.5517 51.0164 62.5893C51.477 62.6796 51.7681 62.4728 52.0426 62.1124C52.4571 61.568 52.9156 61.0788 53.6253 61.5429L53.9142 60.8575L53.468 60.7175L53.2686 61.4407L53.7354 61.5513C54.2045 61.6625 54.4046 60.9423 53.9348 60.8281C53.6871 60.7679 53.4922 60.6775 53.283 60.5319L52.9941 61.2173L53.8783 61.4214C54.3473 61.5296 54.5473 60.8172 54.0777 60.6982L52.9672 60.4167L52.8675 61.1533L53.7239 61.0566C54.1048 61.0136 54.2776 60.4019 53.8236 60.32C53.6861 60.2952 53.5487 60.2704 53.4113 60.2456L53.3116 60.9822C53.5149 60.9997 53.6773 60.9768 53.867 60.8974C54.1083 60.7965 54.263 60.4818 54.0325 60.2707C53.7246 59.9887 53.4084 59.8021 53.0146 59.6642C52.6291 59.5293 52.4319 60.0303 52.6498 60.291L53.2672 61.0298C53.565 61.3861 54.0079 60.9307 53.8562 60.5754C53.6762 60.1538 53.3974 59.8539 53.0084 59.6168C52.6755 59.414 52.3264 59.8092 52.4953 60.1299L52.8385 60.7815L53.0626 60.2306L52.959 60.1497C52.8697 59.7418 52.1921 59.8248 52.2224 60.2494C52.2684 60.8949 51.9531 61.4107 51.3673 61.6776L51.9181 62.101C52.01 61.8276 52.1905 61.6414 52.4635 61.5461L51.9888 61.1845L52.3172 61.3258L52.2208 61.6906L52.2839 61.6251L51.6572 61.2603L51.5321 61.4024L51.9934 61.6643C51.9495 61.4188 51.9906 61.2314 52.0802 61.0059L51.357 60.8065C51.3099 61.0154 51.198 61.1836 51.0212 61.3111L51.572 61.5352C51.5008 61.3565 51.5109 61.18 51.6024 61.0057C51.771 60.6427 51.325 60.2197 51.0134 60.5513C50.8143 60.7632 50.688 60.9801 50.6042 61.2594C50.5012 61.6025 50.9858 61.9178 51.2309 61.6243C51.3931 61.4301 51.4919 61.26 51.5505 61.0135C51.5959 60.8225 51.4918 60.5995 51.2886 60.5522L49.289 60.0866L49.0896 60.8098L50.0149 61.0209L50.2143 60.2976L49.2926 60.0899L49.0933 60.8132L50.5796 61.1459L50.6793 60.4093C50.3602 60.3787 50.1086 60.2743 49.8422 60.0993V60.7469C50.1304 60.6224 50.3807 60.6208 50.6803 60.6995L50.78 59.9629C50.5471 59.9347 50.3655 59.8506 50.1723 59.7256L49.983 60.4244C50.348 60.429 50.6397 60.5204 50.948 60.715L51.237 60.0296L50.5465 59.9001L50.8218 60.2617C50.8422 59.9204 51.3186 59.7769 51.5476 60.0027L51.4889 59.5482C51.3442 59.8132 51.0762 59.9309 50.7937 59.7868L50.966 60.2102C51.0483 59.9677 51.2345 59.6021 51.5517 59.603C51.958 59.6041 51.8312 60.0897 51.6788 59.936L51.7753 60.3008C51.8327 60.0158 52.0429 59.8876 52.3203 59.9803L52.0584 59.7184C52.1071 60.0439 51.6933 60.1202 51.5137 60.0055V60.6531L51.8066 60.6417L51.6208 60.3179C51.5611 60.8768 51.0639 61.1966 50.5354 61.1547L50.9104 61.5297C50.908 61.3149 50.9335 61.1292 50.9935 60.9229L50.2703 60.7236L50.1796 61.1258C50.0737 61.5958 50.7966 61.7966 50.9028 61.3251L50.9028 61.3251Z" fill="white"/>
<path d="M51.2471 59.6142L51.8154 58.5755C52.0257 58.1911 51.5451 57.8462 51.2264 58.1211C50.9745 58.3383 50.7227 58.5555 50.4709 58.7727C50.1761 59.0269 50.4925 59.4883 50.8357 59.3995C51.0193 59.3519 51.1506 59.2293 51.2221 59.0548C51.2564 58.9713 51.2722 58.8917 51.2811 58.8011C51.2848 58.7616 51.2871 58.7219 51.2879 58.6822C51.3084 58.6014 51.2694 58.6304 51.171 58.769H50.9716C50.9089 58.7366 50.8578 58.6929 50.8183 58.6379V58.4385L50.8129 58.4672L50.9093 58.3017L50.8908 58.3208L51.0562 58.2244L51.0229 58.2293L51.4841 58.6906C51.6293 58.3252 51.817 57.9798 52.0316 57.6508L51.3462 57.3619C51.2569 57.7513 51.1675 58.1408 51.0782 58.5302C50.9703 59.0003 51.6601 59.1926 51.8014 58.7296L52.0308 57.9775C52.1538 57.5741 51.5472 57.3116 51.3454 57.6886C51.0174 58.3013 50.6537 59.0892 51.0444 59.7607C51.3454 60.2779 52.0348 60.6025 52.5784 60.2491L52.0275 59.8256C51.9496 60.1144 51.8213 60.3763 51.6265 60.6048C51.5079 60.7439 51.4564 61.0033 51.6265 61.1352C52.1034 61.5051 52.6678 61.7056 53.2764 61.6516C53.761 61.6086 53.7558 60.9519 53.2764 60.9016C52.9519 60.8676 52.6275 60.8335 52.303 60.7995C52.1395 60.7823 51.9846 60.9285 51.9414 61.0748C51.8268 61.4631 51.7122 61.8513 51.5977 62.2396C51.5164 62.515 51.7872 62.7763 52.0589 62.7009C53.1241 62.4055 54.2139 62.2621 55.3192 62.2713C55.5526 62.2733 55.7584 62.0287 55.6808 61.7966C55.6355 61.6608 55.5901 61.5249 55.5447 61.3891C55.3925 60.9336 54.668 61.1288 54.8215 61.5885C54.8669 61.7243 54.9122 61.8602 54.9576 61.996L55.3192 61.5213C54.1512 61.5115 52.9852 61.6655 51.8596 61.9777L52.3208 62.439C52.4354 62.0507 52.55 61.6624 52.6646 61.2742L52.303 61.5495C52.6274 61.5835 52.9519 61.6175 53.2763 61.6516V60.9016C52.879 60.9368 52.4777 60.8537 52.1568 60.6048V61.1352C52.4371 60.8063 52.6378 60.4434 52.7507 60.025C52.8327 59.7212 52.4804 59.4191 52.1999 59.6015C51.9839 59.7419 51.7274 59.5112 51.6559 59.3033C51.5158 58.8963 51.8087 58.4114 51.993 58.0671L51.3076 57.7782L51.0781 58.5302L51.8013 58.7296C51.8907 58.3401 51.9801 57.9507 52.0694 57.5613C52.1652 57.1438 51.6182 56.9134 51.384 57.2723C51.1327 57.6574 50.9306 58.0641 50.7609 58.4912C50.6427 58.7888 50.9757 58.9893 51.2222 58.9525C51.7119 58.8795 51.5973 58.1829 51.205 58.0553C50.9986 57.9882 50.7822 58.0887 50.6627 58.2602C50.5981 58.3528 50.5663 58.456 50.5507 58.567C50.545 58.6074 50.5276 58.6731 50.5366 58.7142C50.5567 58.8066 50.4407 58.7269 50.6363 58.6762L51.0011 59.303C51.253 59.0858 51.5048 58.8686 51.7567 58.6514L51.1677 58.1969L50.5994 59.2357C50.3677 59.6593 51.0151 60.0382 51.247 59.6142H51.2471Z" fill="white"/>
<path d="M227.046 187.731C230.739 186.658 233.024 183.388 235.032 180.329L234.333 180.14C234.018 182.548 233.85 184.962 235.133 187.132C236.157 188.864 237.825 190.126 239.755 190.668L239.954 189.945C233.916 189.048 230.299 194.699 227.805 199.259C227.569 199.691 228.173 200.02 228.453 199.637C230.067 197.43 230.443 194.639 230.124 191.975C229.857 189.75 228.927 186.699 226.124 186.899C225.646 186.934 225.642 187.684 226.124 187.649C228.92 187.45 229.4 191.166 229.472 193.215C229.549 195.374 229.095 197.495 227.805 199.259L228.453 199.637C230.746 195.444 234.119 189.831 239.755 190.668C240.219 190.737 240.432 190.079 239.954 189.945C238.117 189.428 236.562 188.2 235.647 186.519C234.565 184.53 234.801 182.299 235.083 180.14C235.135 179.741 234.567 179.673 234.384 179.95C232.489 182.837 230.338 185.993 226.846 187.008C226.384 187.143 226.58 187.867 227.046 187.731V187.731Z" fill="white"/>
<path d="M63.7366 112.128C63.4615 110.917 63.7379 109.688 64.5665 108.44C65.2189 107.457 66.0668 106.757 67.1102 106.34C68.153 105.923 69.3211 105.789 70.614 105.938C71.9063 106.086 73.2485 106.516 74.64 107.227C75.327 107.578 75.9064 107.918 76.3799 108.249C76.8529 108.58 77.2414 108.886 77.5456 109.166C78.1408 109.711 78.4955 110.265 78.611 110.83C78.7258 111.396 78.6256 111.917 78.3099 112.392C77.9732 112.899 77.507 113.24 76.9119 113.417C76.3168 113.593 75.6763 113.506 74.9894 113.155C74.5411 112.926 74.0879 112.551 73.6308 112.03C73.1738 111.509 72.5606 111.052 71.7913 110.659C71.297 110.406 70.8107 110.299 70.3325 110.337C69.8537 110.374 69.4747 110.603 69.1954 111.025C68.9205 111.438 68.8467 111.873 68.9729 112.329C69.099 112.785 69.4589 113.379 70.0524 114.11L70.3889 114.517C71.3144 115.616 71.9662 116.61 72.3449 117.498C72.7236 118.387 72.8591 119.226 72.7513 120.016C72.6429 120.807 72.3175 121.612 71.7738 122.43C71.1109 123.429 70.2311 124.173 69.1339 124.661C68.0373 125.151 66.798 125.346 65.418 125.246C64.0374 125.146 62.592 124.711 61.0814 123.939C60.3951 123.588 59.7799 123.216 59.2373 122.824C58.6948 122.432 58.2604 122.085 57.9338 121.782C57.3085 121.191 56.9576 120.648 56.881 120.156C56.8039 119.662 56.9466 119.142 57.3093 118.596C57.5991 118.16 58.0447 117.857 58.6465 117.689C59.2481 117.521 59.9245 117.63 60.6752 118.013C61.2612 118.312 61.7379 118.601 62.1057 118.878C62.4737 119.154 62.8134 119.419 63.1237 119.671C63.4339 119.924 63.7861 120.15 64.1795 120.352C65.379 120.964 66.2759 120.822 66.8715 119.925C67.1927 119.442 67.2896 118.959 67.1627 118.477C67.0353 117.994 66.6784 117.373 66.0915 116.614L65.7508 116.157C64.6824 114.682 64.0111 113.339 63.7366 112.128L63.7366 112.128Z" fill="white"/>
<path d="M75.571 120.33C75.9538 119.826 76.1168 119.452 76.0582 119.208C75.9995 118.964 75.7488 118.713 75.3067 118.456L75.0809 118.324C74.1519 117.693 73.9435 116.992 74.4557 116.219C74.6837 115.876 74.9917 115.657 75.3791 115.563C75.7665 115.469 76.2946 115.509 76.9634 115.683L77.1511 115.733C77.5498 115.853 77.8811 115.87 78.1457 115.786C78.4097 115.702 78.6943 115.513 78.9996 115.22L79.3148 114.911C80.2363 114.003 81.1961 113.804 82.1936 114.314C82.6786 114.562 82.9803 114.865 83.0985 115.223C83.2161 115.581 83.1222 116.037 82.8161 116.591L82.7074 116.754C82.4395 117.213 82.3285 117.579 82.3735 117.852C82.4186 118.126 82.6523 118.397 83.0752 118.665L83.7032 119.049C84.2435 119.398 84.5609 119.751 84.6555 120.107C84.7501 120.464 84.6887 120.805 84.4711 121.134C84.0158 121.82 83.2303 121.978 82.1159 121.606L81.6321 121.421C81.0595 121.212 80.6258 121.174 80.3303 121.305C80.0348 121.436 79.7543 121.71 79.4893 122.128L77.1397 125.612C76.7307 126.228 76.5478 126.711 76.5905 127.062C76.6337 127.413 76.8987 127.765 77.3873 128.119C77.9428 128.539 78.2745 128.931 78.3825 129.294C78.4905 129.657 78.4101 130.042 78.1413 130.447C77.82 130.931 77.332 131.208 76.677 131.282C76.022 131.354 75.2182 131.147 74.2663 130.661C72.6915 129.856 71.779 128.908 71.5274 127.82C71.2759 126.73 71.6999 125.459 72.8 124.005L75.571 120.33V120.33Z" fill="white"/>
<path d="M80.576 134.339C79.4039 133.741 78.7034 132.894 78.4736 131.8C78.2432 130.706 78.6071 129.439 79.5654 127.996L79.6195 127.913C80.4326 126.689 81.4608 125.92 82.7062 125.606C83.9504 125.291 85.1585 125.433 86.3305 126.032C86.843 126.294 87.2142 126.575 87.4441 126.875C87.674 127.176 87.8377 127.502 87.9345 127.854C88.0551 128.282 88.2773 128.511 88.6015 128.54C88.8267 128.551 89.1031 128.31 89.4293 127.819L89.4756 127.749C90.1385 126.751 89.8837 125.952 88.7122 125.354C88.0988 125.04 87.4867 124.844 86.8758 124.768C86.2649 124.691 85.7264 124.533 85.2594 124.294C84.8567 124.089 84.6069 123.799 84.5113 123.426C84.4157 123.054 84.5047 122.661 84.7791 122.247C85.1523 121.686 85.6464 121.338 86.2629 121.204C86.8786 121.07 87.5906 121.078 88.3974 121.229C88.8543 121.317 89.3316 121.443 89.8287 121.609C90.3258 121.774 90.817 121.98 91.3026 122.228C92.5108 122.845 93.377 123.539 93.9021 124.309C94.4271 125.078 94.5819 125.99 94.3664 127.044C94.1502 128.099 93.5296 129.361 92.5043 130.832L91.2321 132.61C90.9016 133.089 90.6759 133.517 90.5548 133.894C90.4336 134.27 90.3343 134.626 90.258 134.964C90.199 135.236 90.1317 135.505 90.0545 135.769C89.9773 136.032 89.8464 136.304 89.6598 136.584C89.3855 136.998 88.9754 137.269 88.4302 137.398C87.885 137.526 87.3059 137.435 86.6925 137.12C86.3265 136.934 86.0435 136.689 85.8446 136.39C85.6452 136.09 85.5456 135.699 85.546 135.219C85.5467 134.812 85.451 134.559 85.2584 134.46C85.0663 134.363 84.7623 134.395 84.3476 134.559C83.7814 134.802 83.1915 134.919 82.5797 134.909C81.9667 134.899 81.2991 134.709 80.576 134.339L80.576 134.339ZM85.4526 132.382C85.9818 132.277 86.4227 131.959 86.7748 131.429L86.8758 131.277C87.1656 130.841 87.2415 130.459 87.1029 130.132C86.9643 129.805 86.672 129.507 86.2255 129.237C85.6292 128.88 85.0839 128.75 84.5902 128.847C84.0958 128.945 83.6833 129.244 83.3521 129.743L83.2821 129.848C82.6247 130.838 82.8269 131.605 83.8886 132.147C84.4016 132.409 84.9228 132.487 85.4526 132.382L85.4526 132.382Z" fill="white"/>
<path d="M96.0756 129.337C96.5625 128.176 97.088 127.446 97.6517 127.148C98.2146 126.851 98.7528 126.79 99.2662 126.964C99.908 127.182 100.213 127.606 100.18 128.234L100.181 128.35C100.184 128.632 100.227 128.837 100.307 128.966C100.387 129.095 100.516 129.19 100.694 129.25C101.059 129.375 101.468 129.253 101.921 128.883C102.795 128.164 103.771 127.987 104.847 128.353C105.547 128.59 105.974 128.941 106.126 129.404C106.277 129.868 106.228 130.39 105.977 130.975C105.386 132.351 104.284 132.888 102.673 132.583C101.877 132.438 101.227 132.394 100.728 132.451C100.228 132.509 99.8138 132.729 99.4855 133.111C99.1572 133.494 98.8436 134.099 98.5447 134.928L97.1601 138.902C96.879 139.689 96.4421 140.233 95.8489 140.534C95.2551 140.836 94.5985 140.864 93.8779 140.62C93.2064 140.392 92.7674 139.985 92.5598 139.401C92.3527 138.818 92.5012 137.924 93.007 136.72L96.0756 129.337H96.0756Z" fill="white"/>
<path d="M115.918 142.857C115.621 143.808 115.312 144.512 114.989 144.97C114.665 145.428 114.336 145.716 114 145.836C113.665 145.956 113.335 145.974 113.011 145.889C112.544 145.767 112.218 145.571 112.03 145.3C111.843 145.029 111.752 144.663 111.757 144.203L111.757 144.104C111.759 143.859 111.733 143.657 111.681 143.497C111.627 143.337 111.495 143.228 111.282 143.173C111.15 143.139 111.013 143.138 110.871 143.172C110.728 143.205 110.575 143.304 110.412 143.47C109.879 143.962 109.305 144.268 108.691 144.385C108.075 144.502 107.424 144.471 106.735 144.29C105.944 144.084 105.219 143.656 104.56 143.008C103.901 142.36 103.464 141.455 103.251 140.295C103.036 139.136 103.21 137.686 103.771 135.947L103.885 135.594C104.472 133.776 105.186 132.411 106.03 131.5C106.874 130.588 107.758 130.018 108.684 129.788C109.61 129.558 110.485 129.561 111.311 129.796C111.967 129.977 112.481 130.213 112.855 130.503C113.228 130.794 113.517 131.202 113.721 131.727C113.816 131.978 113.917 132.161 114.023 132.273C114.13 132.387 114.244 132.459 114.366 132.49C114.538 132.536 114.693 132.498 114.83 132.378C114.968 132.259 115.104 131.99 115.239 131.572L116.334 128.025C116.608 127.172 116.984 126.612 117.461 126.345C117.937 126.078 118.494 126.028 119.133 126.195C119.792 126.367 120.235 126.705 120.463 127.208C120.691 127.711 120.615 128.569 120.235 129.78L115.918 142.857L115.918 142.857ZM108.15 139.391C108.356 139.911 108.788 140.257 109.447 140.43C109.994 140.572 110.528 140.521 111.046 140.275C111.565 140.028 112.022 139.415 112.416 138.432L112.47 138.263C112.936 137.092 113.058 136.176 112.838 135.515C112.617 134.853 112.152 134.43 111.442 134.245C110.783 134.072 110.212 134.157 109.729 134.497C109.245 134.837 108.82 135.578 108.452 136.718L108.389 136.913C108.024 138.044 107.944 138.87 108.15 139.391L108.15 139.391Z" fill="white"/>
<path d="M119.919 135.854C120.271 134.729 120.74 133.991 121.326 133.639C121.912 133.288 122.545 133.201 123.224 133.378C124.461 133.701 124.89 134.587 124.51 136.035L123.144 139.965C122.803 141.055 122.693 141.873 122.813 142.419C122.934 142.964 123.294 143.315 123.892 143.471C124.55 143.644 125.186 143.538 125.799 143.156C126.411 142.774 126.921 141.919 127.326 140.592L128.27 137.259C128.583 136.388 128.953 135.813 129.38 135.532C129.804 135.253 130.366 135.204 131.066 135.387C131.634 135.535 132.035 135.859 132.269 136.359C132.504 136.858 132.424 137.718 132.032 138.936L130.445 143.954C130.231 144.653 130.12 145.236 130.111 145.706C130.103 146.175 130.115 146.591 130.147 146.953C130.177 147.314 130.132 147.687 130.008 148.07C129.612 149.296 128.706 149.725 127.286 149.354C126.901 149.253 126.572 149.066 126.297 148.79C126.024 148.516 125.878 148.132 125.861 147.637C125.834 147.177 125.678 146.909 125.394 146.835C125.243 146.796 125.089 146.805 124.932 146.863C124.776 146.921 124.57 147.059 124.314 147.275C123.839 147.689 123.3 147.955 122.696 148.075C122.09 148.195 121.393 148.152 120.602 147.946C119.274 147.599 118.441 146.867 118.104 145.751C117.766 144.634 117.899 143.037 118.504 140.96L119.919 135.854L119.919 135.854Z" fill="white"/>
<path d="M139.849 151.597C138.611 152.146 136.959 152.15 134.89 151.61C134.201 151.43 133.626 151.229 133.164 151.01C132.701 150.79 132.293 150.582 131.939 150.385C131.374 150.058 130.957 149.667 130.687 149.21C130.416 148.752 130.381 148.214 130.58 147.596C130.763 147.032 131.074 146.677 131.517 146.533C131.959 146.389 132.443 146.386 132.97 146.524C133.386 146.633 133.749 146.817 134.061 147.078C134.373 147.338 134.687 147.598 135.005 147.855C135.324 148.113 135.696 148.297 136.121 148.409C136.628 148.541 137.011 148.521 137.27 148.349C137.529 148.176 137.702 147.954 137.789 147.685C137.887 147.38 137.871 147.088 137.742 146.809C137.611 146.53 137.261 146.151 136.691 145.671L136.065 145.21C135.104 144.441 134.413 143.755 133.991 143.154C133.569 142.554 133.336 141.991 133.292 141.464C133.247 140.938 133.31 140.411 133.481 139.88C133.916 138.532 134.753 137.699 135.994 137.381C137.234 137.064 138.73 137.134 140.483 137.593C141.082 137.749 141.66 137.941 142.22 138.167C142.778 138.393 143.252 138.637 143.64 138.899C144.083 139.195 144.419 139.549 144.648 139.962C144.878 140.377 144.918 140.814 144.769 141.275C144.598 141.805 144.285 142.188 143.831 142.423C143.375 142.658 142.889 142.707 142.373 142.572C141.835 142.431 141.37 142.186 140.979 141.833C140.586 141.48 140.123 141.234 139.585 141.093C139.078 140.961 138.675 140.943 138.374 141.038C138.074 141.135 137.887 141.3 137.81 141.535C137.732 141.779 137.739 142.029 137.833 142.284C137.927 142.539 138.214 142.82 138.698 143.126L139.041 143.342C140.593 144.324 141.613 145.227 142.099 146.052C142.586 146.878 142.664 147.804 142.332 148.83C141.914 150.126 141.087 151.048 139.849 151.597V151.597Z" fill="white"/>
<path d="M146.353 144.574C146.582 144.002 146.633 143.602 146.508 143.377C146.384 143.15 146.071 142.958 145.573 142.8L145.319 142.719C144.246 142.296 143.849 141.655 144.127 140.794C144.251 140.412 144.486 140.134 144.832 139.96C145.179 139.787 145.7 139.715 146.393 139.745L146.589 139.754C147.007 139.788 147.331 139.736 147.562 139.599C147.794 139.461 148.015 139.217 148.227 138.866L148.444 138.499C149.078 137.419 149.948 137.024 151.053 137.314C151.589 137.454 151.965 137.686 152.18 138.011C152.393 138.336 152.43 138.801 152.29 139.405L152.231 139.588C152.101 140.091 152.097 140.473 152.217 140.73C152.338 140.988 152.638 141.204 153.121 141.377L153.834 141.62C154.453 141.847 154.858 142.126 155.049 142.454C155.239 142.783 155.276 143.129 155.158 143.494C154.911 144.26 154.199 144.578 153.021 144.449L152.502 144.37C151.891 144.287 151.462 144.339 151.214 144.529C150.966 144.719 150.773 145.046 150.634 145.509L149.345 149.403C149.123 150.09 149.082 150.601 149.222 150.934C149.362 151.268 149.716 151.557 150.286 151.8C150.939 152.093 151.369 152.406 151.575 152.738C151.78 153.07 151.811 153.462 151.666 153.914C151.491 154.454 151.098 154.827 150.488 155.036C149.876 155.244 149.044 155.21 147.99 154.934C146.246 154.479 145.101 153.745 144.553 152.735C144.005 151.723 144.058 150.393 144.711 148.743L146.353 144.574V144.574Z" fill="white"/>
<path d="M167.008 141.928C167.22 140.848 167.497 140.043 167.837 139.509C168.179 138.977 168.562 138.634 168.989 138.48C169.416 138.327 169.852 138.287 170.298 138.362C171.117 138.501 171.696 138.864 172.036 139.451C172.376 140.039 172.37 141.059 172.019 142.511L170.07 152.474C169.86 153.424 169.883 154.086 170.136 154.456C170.391 154.826 171.03 155.07 172.058 155.188L174.306 155.443C175.553 155.58 176.388 155.857 176.81 156.273C177.231 156.691 177.37 157.266 177.224 157.997C177.093 158.666 176.724 159.113 176.116 159.338C175.509 159.563 174.574 159.568 173.308 159.355C172.689 159.241 172.064 159.149 171.435 159.08C170.806 159.01 170.208 158.946 169.64 158.887C169.304 158.858 168.983 158.827 168.679 158.794C168.374 158.761 168.097 158.728 167.846 158.696C166.941 158.561 166.235 158.305 165.731 157.93C165.226 157.555 164.914 156.992 164.794 156.243C164.674 155.494 164.731 154.499 164.965 153.257L167.008 141.928V141.928Z" fill="white"/>
<path d="M180.921 161.303C179.594 161.079 178.608 160.481 177.964 159.511C177.32 158.539 177.161 157.229 177.486 155.578L177.505 155.484C177.782 154.083 178.438 153.05 179.474 152.386C180.51 151.722 181.692 151.502 183.019 151.727C183.6 151.825 184.056 151.982 184.388 152.199C184.721 152.417 185.001 152.679 185.23 152.985C185.511 153.355 185.807 153.506 186.12 153.44C186.335 153.384 186.498 153.075 186.609 152.512L186.625 152.432C186.85 151.29 186.298 150.607 184.972 150.383C184.277 150.266 183.63 150.26 183.031 150.366C182.431 150.472 181.866 150.481 181.338 150.391C180.881 150.314 180.535 150.113 180.3 149.787C180.064 149.462 179.993 149.062 180.086 148.589C180.213 147.947 180.537 147.472 181.059 147.162C181.581 146.854 182.247 146.654 183.059 146.56C183.518 146.509 184.012 146.488 184.54 146.499C185.069 146.51 185.608 146.562 186.157 146.655C187.526 146.886 188.606 147.29 189.397 147.866C190.19 148.442 190.691 149.263 190.905 150.326C191.118 151.391 191.036 152.771 190.659 154.469L190.171 156.53C190.051 157.081 190.01 157.554 190.044 157.948C190.08 158.341 190.128 158.708 190.189 159.051C190.241 159.327 190.283 159.601 190.316 159.874C190.347 160.147 190.332 160.443 190.269 160.765C190.175 161.239 189.9 161.616 189.442 161.898C188.985 162.181 188.408 162.263 187.714 162.146C187.299 162.075 186.94 161.927 186.637 161.701C186.333 161.475 186.086 161.133 185.898 160.677C185.739 160.291 185.55 160.079 185.333 160.042C185.115 160.005 184.845 160.126 184.522 160.403C184.09 160.801 183.586 161.084 183.012 161.255C182.437 161.425 181.741 161.441 180.921 161.303L180.921 161.303ZM184.696 158.012C185.149 157.756 185.435 157.326 185.555 156.719L185.588 156.545C185.688 156.045 185.608 155.661 185.349 155.391C185.092 155.122 184.702 154.925 184.18 154.799C183.485 154.636 182.926 154.673 182.504 154.91C182.082 155.148 181.814 155.553 181.702 156.124L181.678 156.244C181.454 157.377 181.944 158.045 183.148 158.249C183.728 158.347 184.244 158.268 184.696 158.012V158.012Z" fill="white"/>
<path d="M194.326 146.332C194.533 145.279 194.792 144.496 195.102 143.981C195.413 143.466 195.772 143.142 196.178 143.008C196.585 142.873 197.032 142.848 197.52 142.93C198.235 143.05 198.713 143.364 198.95 143.87C199.188 144.375 199.168 145.14 198.891 146.163L198.086 149.429C197.975 149.826 197.949 150.112 198.006 150.287C198.061 150.462 198.183 150.565 198.37 150.597C198.484 150.617 198.624 150.596 198.791 150.537C198.958 150.478 199.147 150.351 199.357 150.155C200.239 149.374 201.298 149.086 202.532 149.294C203.424 149.446 204.214 149.819 204.906 150.415C205.597 151.012 206.08 151.884 206.35 153.032C206.622 154.179 206.581 155.654 206.225 157.456L206.127 157.952C205.774 159.746 205.259 161.134 204.582 162.117C203.907 163.1 203.12 163.756 202.226 164.085C201.331 164.413 200.375 164.491 199.359 164.319C198.685 164.206 198.09 163.962 197.574 163.589C197.059 163.216 196.681 162.687 196.442 162C196.364 161.739 196.274 161.558 196.171 161.457C196.067 161.357 195.948 161.295 195.814 161.273C195.46 161.212 195.17 161.412 194.94 161.872L194.88 162.014C194.468 162.848 193.879 163.2 193.113 163.071C192.708 163.002 192.376 162.835 192.118 162.571C191.86 162.306 191.71 161.856 191.669 161.222C191.628 160.589 191.719 159.681 191.941 158.502L194.326 146.332L194.326 146.332ZM200.64 159.328C201.047 158.923 201.356 158.188 201.566 157.126L201.612 156.885C201.812 155.877 201.761 155.059 201.462 154.432C201.162 153.806 200.692 153.438 200.049 153.329C199.406 153.221 198.794 153.35 198.212 153.717C197.63 154.085 197.224 154.858 196.991 156.036L196.958 156.209C196.737 157.325 196.852 158.167 197.302 158.737C197.753 159.306 198.319 159.649 199.004 159.764C199.688 159.879 200.233 159.734 200.64 159.328L200.64 159.328Z" fill="white"/>
<path d="M51.2623 61.8643C53.1926 61.8643 53.1958 58.8643 51.2623 58.8643C49.3319 58.8643 49.3287 61.8643 51.2623 61.8643Z" fill="white"/>
<path d="M51.7208 63.0107C53.6512 63.0107 53.6544 60.0107 51.7208 60.0107C49.7905 60.0107 49.7873 63.0107 51.7208 63.0107Z" fill="white"/>
<path d="M51.6062 63.3545C53.5366 63.3545 53.5397 60.3545 51.6062 60.3545C49.6758 60.3545 49.6726 63.3545 51.6062 63.3545Z" fill="white"/>
<path d="M52.1794 61.8643C54.1098 61.8643 54.113 58.8643 52.1794 58.8643C50.2491 58.8643 50.2459 61.8643 52.1794 61.8643Z" fill="white"/>
<path d="M50.9947 62.3613C52.9251 62.3613 52.9283 59.3613 50.9947 59.3613C49.0644 59.3613 49.0612 62.3613 50.9947 62.3613Z" fill="white"/>
<path d="M50.2304 62.1318C52.1608 62.1318 52.1639 59.1318 50.2304 59.1318C48.3 59.1318 48.2968 62.1318 50.2304 62.1318Z" fill="white"/>
<path d="M51.7884 56.9531C52.2351 59.2664 53.8676 61.1736 55.8573 62.3547L56.0466 61.6559C54.4401 61.5582 52.6615 61.7265 51.663 63.1571C51.3861 63.5538 52.036 63.929 52.3105 63.5356C53.1375 62.3508 54.7522 62.3272 56.0466 62.4059C56.4288 62.4292 56.5422 61.889 56.2359 61.7071C54.4007 60.6178 52.9232 58.8851 52.5116 56.7538C52.4201 56.2804 51.6971 56.4808 51.7883 56.9531L51.7884 56.9531Z" fill="white"/>
<path d="M51.8304 56.5228C51.9944 57.1693 52.1793 57.8103 52.3868 58.4442C52.5773 59.026 52.7494 59.6668 53.1913 60.1143C53.531 60.4583 54.0613 59.9279 53.7217 59.584C53.3521 59.2097 53.2258 58.6048 53.0695 58.12C52.8783 57.5268 52.7069 56.9275 52.5536 56.3234C52.4349 55.8559 51.7114 56.054 51.8304 56.5228V56.5228Z" fill="white"/>
</svg>
