<?xml version="1.0" encoding="UTF-8"?>
<svg id="Layer_2" data-name="Layer 2" xmlns="http://www.w3.org/2000/svg" viewBox="0 0 257.4106 198.3508">
  <g id="Layer_1-2" data-name="Layer 1">
    <g>
      <path d="M191.3984,95.0391s.0002,0,.0003,0" style="fill: none; stroke: #000; stroke-miterlimit: 10;"/>
      <g>
        <path d="M226.0643,92.3606c-.489-.2911-1.0079-.5797-1.5076-.87-.3005,2.9688-2.7251,5.7711-6.4931,4.9219-1.1386-.2566-2.0187-.7641-2.6721-1.4204-.9087-.1136-1.8281-.4415-2.704-1.0701-6.1615-4.4219-14.6349-6.3694-21.6705-9.1046-6.3015-2.4499-12.975-3.5895-19.1291-6.4277-7.0036-3.2301-13.5584-6.4827-21.0321-8.5989-7.2996-2.0669-14.7456-3.5524-22.1709-5.0836-.4769-.0984-.9052-.2439-1.2951-.4226-11.4535-2.2601-22.9987-3.9092-34.624-5.1025-.5643-.0579-1.0623-.1841-1.5064-.3592-.9594,2.1735-2.1324,4.2518-3.7189,6.171-2.8981,3.5058-9.6791,1.1611-9.5019-3.4798,.0178-.4655,.0473-.9406,.0843-1.4205-.2826,.0784-.567,.1577-.8401,.2304-2.0227,.5385-4.5161-.1607-5.962-1.7334-1.4061,.8519-2.8711,1.6202-4.4686,2.2094-2.27,.8371-4.2972,.0048-5.5962-1.5395-2.3563,.582-4.7803,.6419-7.1357-.1366-.0596-.0197-.1091-.0471-.1677-.0677-1.0234,.3222-2.0871,.5675-3.1872,.739-1.1017,.1717-2.0308,.0326-2.8035-.3074-4.2361-1.0113-4.8954-5.4914-3.1287-8.354-.4144,.0351-.8363,.066-1.2452,.1044-4.7039,8.2075-8.2797,17.2415-10.467,26.9473s-2.8321,19.4003-2.1033,28.8321c21.3872,12.7337,52.6746,24.7061,88.4855,32.7763s69.2092,10.6752,93.9909,8.346c4.7039-8.2075,8.2797-17.2415,10.467-26.9473s2.8321-19.4004,2.1033-28.8321Z" style="fill: none;"/>
        <path d="M31.2812,107.4426c.5788,2.0786,.9185,5.0884,1.276,7.1889,4.7405,27.8485,22.1826,53.1325,46.5142,67.4506,45.9572,27.5067,106.7635,11.9106,133.9886-34.191,.0001,.0004,.4807,.7468,.4807,.7468-46.5677,4.942-96.277-4.5484-140.3359-19.6683-11.2112-4.0348-22.2732-8.7011-32.8128-14.3007-2.1685-1.1252-4.3181-2.3261-6.4397-3.5381-1.3314-.95-.6775-1.4225-2.671-3.6883h0Zm-.5273-.8497c1.1245-1.7141,4.8949,.7333,6.4305,1.4968,1.7283,.9075,3.4453,1.8328,5.2063,2.6815,10.517,5.1987,21.4167,9.6382,32.4613,13.6037,36.9503,13.055,75.8027,21.4989,115.0096,23.3724,8.1576,.3719,16.3373,.3288,24.5017-.1563-43.7043,78.7748-160.6953,62.3691-181.6278-25.0693-1.0305-4.9621-2.2245-10.8776-1.9815-15.9288h0Z"/>
        <path d="M225.5658,92.3995C216.8616,17.2433,131.3839-20.8054,70.0529,23.5703c-10.3159,7.6007-19.1801,16.9705-26.0313,27.9171-.0001-.0001-.8674-.4979-.8674-.4979,8.4192-16.3084,22.1088-29.7567,38.0944-38.75C121.6935-10.451,174.1303-.828,203.8596,34.7699c13.6195,16.0036,21.8755,36.5976,22.7032,57.5519,0,0-.997,.0777-.997,.0777h0Z"/>
        <path d="M43.6346,51.7362c-35.1642,3.3899-60.5413,19.7303-21.4929,46.6568,3.3666,2.7313,7.1908,4.0177,8.8756,8.6228-1.0869-4.7581-1.4946-9.6875-1.3996-14.5932,.1986-9.8328,2.3836-19.6399,6.2842-28.6629,1.9565-4.5088,4.337-8.8353,7.2521-12.7699l.8676,.4973c-1.8932,4.4578-3.689,8.8855-5.2314,13.3937-3.0977,9.0111-5.2152,18.2975-6.4272,27.7429-.6141,4.7368-.9977,9.5231-1.3472,14.3947-4.6382,.7503-8.0805-2.4667-11.6419-4.8151-3.3776-2.4538-6.5867-5.1873-9.4697-8.2814-21.8979-23.7843-4.2351-37.5019,21.422-41.6165,4.0491-.7184,8.1285-1.2112,12.2149-1.5648l.0936,.9956h0Z"/>
        <path d="M226.5627,92.3221c2.3475,18.8052-1.3945,40.515-12.6346,56.0666-.0003,0-.4809-.7465-.4809-.7465,8.0667-1.1519,16.1047-2.6787,23.6604-5.4032,28.5172-10.521,16.6051-28.2249-1.4675-42.2195-3.1896-2.5193-6.4953-4.892-9.8318-7.2293,0,0,.5116-.8593,.5116-.8593,7.3139,3.7356,14.3614,8.1804,20.4702,13.9201,10.4301,9.4632,16.325,23.7121,2.5576,33.366-10.5596,6.9814-23.5556,8.6403-35.8069,9.421,0-.0002-.8352,.044-.8352,.044l.3545-.7908c3.7173-8.8735,7.3801-17.6406,9.5579-27.0019,2.2293-9.308,3.1535-18.915,2.9476-28.4903,0,0,.9971-.077,.9971-.077h0Z"/>
      </g>
      <path d="M20.9035,101.5461c2.1743,1.8289,4.5958,3.1487,7.2247,4.1992,2.305,.921,4.8678,1.8602,6.1999,4.1057l.5131-.5131c-1.9677-1.2433-3.7688-2.7068-5.3916-4.3752-.3371-.3466-.8672,.184-.5303,.5303,1.6661,1.7129,3.5233,3.2162,5.5433,4.4924,.3206,.2026,.7008-.1966,.5131-.5131-1.2636-2.1299-3.519-3.1861-5.7288-4.0823-2.8243-1.1455-5.4607-2.3956-7.8131-4.3743-.3671-.3088-.9003,.2191-.5303,.5303h0Z"/>
      <path d="M26.8817,105.0277c1.993,.822,3.8173,2.0292,5.3662,3.5267,.3471,.3356,.8781-.1941,.5303-.5303-1.6478-1.5932-3.5795-2.8463-5.6971-3.7196-.1887-.0778-.4103,.0844-.4613,.2619-.0616,.2145,.0757,.3845,.2619,.4613h0Z"/>
      <path d="M33.0857,108.2981l-5.386-2.871-.289,.6854c2.1185,.5433,4.0336,1.803,5.3438,3.5594,.2853,.3824,.9366,.0089,.6476-.3785-1.4292-1.9159-3.4726-3.3093-5.792-3.904-.4018-.103-.6737,.4803-.289,.6854,1.7953,.957,3.5906,1.914,5.386,2.871,.4258,.227,.8051-.4202,.3785-.6476h0Z"/>
      <path d="M29.0952,105.7142c.4826,0,.4834-.75,0-.75-.4826,0-.4834,.75,0,.75h0Z"/>
      <path d="M28.9154,105.18c.4932,.9391,1.5605,1.5448,2.6202,1.481,.1954-.0118,.3844-.1641,.375-.375-.0086-.1931-.1653-.3876-.375-.375-.1131,.0068-.2263,.0066-.3393-.0029-.0225-.0019-.045-.0048-.0675-.0067,.0759,.0062-.0016-.0004-.0178-.003-.0558-.0092-.1112-.0204-.1662-.0335-.1046-.025-.2075-.0569-.3079-.0953,.0016,.0006-.09-.0379-.0496-.0197,.0421,.019-.0404-.0193-.0482-.0231-.0511-.0245-.1014-.0507-.1508-.0785-.0938-.0529-.184-.1119-.2704-.1762-.0497-.037,.0643,.0549-.0177-.0147-.0216-.0183-.0433-.0364-.0646-.0551-.0382-.0337-.0753-.0685-.1113-.1045-.04-.04-.0785-.0814-.1156-.1241-.0185-.0214-.0365-.0431-.0543-.0651-.039-.048,.0485,.0694-.0135-.0183-.0656-.0928-.1251-.1882-.178-.2888-.0913-.1739-.3482-.2408-.5131-.1345-.1771,.1141-.2322,.327-.1345,.5131h0Z"/>
      <path d="M27.7196,105.425c1.0851,.0991,2.1511,.3347,3.1763,.7048,.5113,.1846,1.009,.4039,1.4909,.6554,.2413,.1259,.4822,.2565,.7125,.4018,.1658,.1046,.2689,.0894,.1099,.2506-.1522,.1543-.3166,.0988-.5224,.064-1.9317-.326-3.4963-1.7032-5.4273-2.0582-.3397-.0624-.5581,.2455-.4235,.5509,.3689,.837,1.2457,.7023,1.9376,1.0535,.3598,.1826,.5881,.5724,.9222,.8019,.2976,.2044,.6332,.3386,.9644,.4772,.3992,.167,.7856,.3337,1.1158,.6203,.3391,.2943,.6403,.6245,.9931,.9046,.6669,.5296,1.4056,.9288,2.2025,1.2251l.1994-.7232c-.9196-.164-1.7963-.9005-2.5889-1.3758-.8821-.529-1.7641-1.058-2.6462-1.5869-1.6858-1.011-3.3813-2.0092-4.9857-3.1475-.3944-.2798-.7694,.3703-.3785,.6476,1.6602,1.1779,3.4177,2.2071,5.1621,3.2533,.8821,.529,1.7641,1.058,2.6462,1.5869,.7994,.4794,1.6556,1.1787,2.5916,1.3456,.476,.0849,.6539-.5542,.1994-.7232-.775-.2882-1.5024-.7036-2.1292-1.2449-.6018-.5197-1.0655-1.0284-1.8105-1.3499-.3249-.1401-.6596-.2604-.9666-.4383-.3341-.1935-.5443-.494-.8386-.7323-.5351-.4334-1.6511-.3119-1.9423-.9726l-.4235,.5509c1.3538,.2489,2.517,.9815,3.7637,1.5215,.7835,.3394,2.5812,1.143,3.1747,.1142,.2511-.4354,.0559-.8683-.3274-1.1404-.5744-.4076-1.2469-.7139-1.8932-.9872-1.2956-.5479-2.6588-.872-4.0583-.9998-.4805-.0439-.4775,.7064,0,.75h0Z"/>
      <path d="M37.1175,111.6725c-4.5177-2.3564-9.3568-4.486-13.36-7.6847-.3734-.2984-.9075,.229-.5303,.5303,4.0594,3.2436,8.9303,5.4123,13.5118,7.802,.4275,.223,.8071-.4241,.3785-.6476h0Z"/>
      <path d="M25.1294,102.0421c1.2718,.7096,2.2269,1.8407,3.3607,2.7365,1.0862,.8582,2.2598,1.5822,3.5067,2.1822,.3013,.145,.7563-.1809,.5131-.5131-1.0075-1.376-2.0467-2.7382-3.5472-3.6061l-.3785,.6476c1.0379,.5479,1.9152,1.2891,2.6066,2.2391l.4235-.5509c-1.2002-.4661-2.2453-1.1745-3.1391-2.0999l-.3649,.6268c1.5451,.604,2.8576,1.5926,3.8961,2.8827l.4544-.589c-1.0585-.6195-1.9648-1.4156-2.6986-2.3995l-.5131,.5131c1.3512,.7606,2.5763,1.6807,3.6817,2.7683l.4544-.589c-2.8395-2.0485-5.679-4.097-8.5185-6.1455-.3429-.2473-.7794,.3141-.4544,.589,1.6548,1.3997,3.5429,2.4381,5.4473,3.4538,.4274,.228,.7835-.3852,.3785-.6476-1.1108-.7198-2.2216-1.4397-3.3324-2.1595l-.3785,.6476c2.533,1.515,4.4628,3.6145,6.6986,5.4963,1.0008,.8423,2.0735,1.5458,3.2269,2.1616,.6032,.3221,1.2146,.6293,1.81,.9659,.3441,.1945,1.7682,.8529,1.8017,1.2666l.1857-.3238,.2921,.0697-.0586,.4544,.0457-.0531c.3135-.3641-.2147-.8969-.5303-.5303l-.0457,.0531c-.1011,.1174-.1589,.3141-.0586,.4544,.1883,.2637,.4415,.3646,.734,.1994,.1075-.0607,.196-.1966,.1857-.3238-.0459-.5671-.4577-.8046-.9046-1.1212-.5933-.4204-1.2274-.7779-1.8679-1.1205-1.4215-.7604-2.8258-1.4822-4.0788-2.5106-2.3761-1.9502-4.3932-4.1923-7.0574-5.7858-.4169-.2494-.7817,.3863-.3785,.6476,1.1108,.7198,2.2216,1.4397,3.3324,2.1595l.3785-.6476c-1.8448-.9839-3.6919-1.9802-5.2955-3.3366l-.4544,.589c2.8395,2.0485,5.679,4.097,8.5185,6.1455,.3501,.2526,.752-.2962,.4544-.589-1.1493-1.1308-2.4284-2.0946-3.8335-2.8856-.3022-.1701-.7495,.1961-.5131,.5131,.8123,1.0891,1.7945,1.982,2.9677,2.6685,.3902,.2284,.7091-.2726,.4544-.589-1.1243-1.3967-2.5596-2.4237-4.227-3.0755-.3668-.1434-.606,.3771-.3649,.6268,.9868,1.0217,2.1469,1.779,3.47,2.2928,.2954,.1147,.6108-.2935,.4235-.5509-.7678-1.0548-1.7209-1.8985-2.8757-2.5082-.4257-.2247-.7983,.4048-.3785,.6476,1.3864,.8019,2.3471,2.0654,3.2782,3.337l.5131-.5131c-1.3496-.6495-2.624-1.4416-3.7732-2.4049-1.0227-.8572-1.9176-1.8574-3.0941-2.5138-.4219-.2354-.8006,.4122-.3785,.6476h0Z"/>
      <path d="M21.9698,99.7046c5.7454,2.3746,10.8158,6.005,16.1327,9.1675,2.5533,1.5187,5.2603,2.6912,7.852,4.1243,2.4754,1.3688,4.6549,3.2471,7.4652,3.9082,.4694,.1104,.6698-.6125,.1994-.7232-2.9482-.6936-5.2076-2.7744-7.8471-4.132-2.7106-1.3942-5.4226-2.6921-8.0368-4.2725-5.107-3.0875-10.0252-6.5054-15.5661-8.7956-.4456-.1842-.6399,.5411-.1994,.7232h0Z"/>
      <path d="M34.0552,106.3404c-.2039-.0787-.43-.1618-.5919-.3151-.15-.142-.1891-.3333-.2498-.5225-.1226-.3821-.2871-.708-.6942-.8362-.3117-.0982-.5914,.2765-.4235,.5509,.5,.8171,1.3448,1.2349,2.0998,1.7741,.8205,.586,1.2894,1.4386,1.5916,2.3833,.0719,.2249,.1356,.4523,.1946,.681,.06,.2326,.0798,.5195,.1771,.7391,.0061,.1687,.071,.1524,.1945-.0491-.063-.0168-.1252-.0365-.1865-.059-.1118-.037-.2227-.0771-.3334-.1173-.279-.1015-.5554-.2103-.8286-.3265-1.1175-.4754-2.2047-1.0262-3.3001-1.5499l-.289,.6854c.4856,.1712,.8283,.7502,1.2239,1.067,.4513,.3614,.9477,.649,1.4781,.8778,1.0732,.4629,2.2178,.6986,3.3612,.9146,.4717,.0891,.6738-.6336,.1994-.7232-1.1409-.2156-2.3147-.4349-3.3755-.9251-.5112-.2362-.9982-.531-1.4124-.9149-.412-.3819-.7258-.8257-1.2753-1.0194-.3969-.1399-.6733,.5016-.289,.6854,.9796,.4684,1.9536,.9518,2.9451,1.3946,.4661,.2081,.9378,.4045,1.4182,.5774,.3348,.1205,.8117,.3364,1.1036,.0056,.2846-.3224,.0655-.8365-.0222-1.1976-.1112-.4578-.2362-.9132-.4024-1.3544-.3083-.8185-.7515-1.5935-1.4387-2.1519-.7197-.5848-1.687-.9595-2.1864-1.7755l-.4235,.5509c.1284,.0404,.1588,.2785,.1952,.3933,.0606,.1914,.124,.3874,.2362,.5558,.256,.3841,.6905,.5649,1.1044,.7247,.4506,.174,.6457-.5509,.1994-.7232h0Z"/>
      <path d="M37.5071,34.5086c-.387,2.229-3.0572,1.7697-4.4786,2.9229-.2659,.2157-.0336,.6334,.2652,.6402,.9955,.0225,2.0183,.3165,2.7334,1.0423,.6919,.7023,.9476,1.7453,.5819,2.6664l.7232,.1994c.1498-.872,.4391-1.8102,1.146-2.3956,.8512-.7048,2.0605-.5353,3.0734-.404,.3919,.0508,.477-.5207,.1893-.6988-.9374-.5801-1.7254-1.3669-2.2984-2.3099-.6275-1.0327-.8322-2.1144-1.0636-3.2811-.0938-.473-.8169-.2728-.7232,.1994,.2534,1.2776,.5035,2.4587,1.2112,3.5763,.6344,1.0018,1.488,1.8394,2.4955,2.4629l.1893-.6988c-1.1971-.1552-2.5023-.2514-3.5077,.5462-.8542,.6777-1.2557,1.7607-1.4349,2.804-.0824,.4795,.5451,.6481,.7232,.1994,.446-1.1234,.11-2.4179-.6843-3.3-.8432-.9364-2.1271-1.3303-3.3543-1.358l.2652,.6402c.7956-.6455,1.916-.6663,2.8363-1.0456,.9562-.3941,1.6557-1.1751,1.8351-2.2082,.082-.472-.6407-.6748-.7232-.1994h0Z"/>
      <path d="M38.3794,38.0317c.1002-.4324,.2111-.8638,.3009-1.2985,.076-.3679-.1479-.7607-.246-1.1155-.1946-.7039-.3148-1.485,.0547-2.1533,.2337-.4227-.4138-.8015-.6476-.3785-.6229,1.1266-.2632,2.4236,.1357,3.5608v-.1994l-.321,1.3851c-.1089,.4697,.6141,.6701,.7232,.1994h0Z"/>
      <path d="M36.9029,38.3256l.0906-.4022c.1058-.4695-.5879-.6651-.7232-.1994-.0783,.2696-.113,.5259-.1099,.8061,.0024,.2146,.1705,.3588,.375,.375,.9706,.077,1.7351-.6473,1.8355-1.5868,.0124-.1163-.0778-.2766-.1857-.3238-.3784-.1653-.6733-.1685-1.0499,.0114-.2674,.1278-.2193,.5075,0,.6476,.8151,.5207,1.7806-.2371,1.6464-1.1341-.0194-.1297-.1479-.2238-.2619-.2619-.5863-.1959-1.5437,.1981-1.481,.944,.0565,.6724,1.0088,.6039,1.3643,.2413,.4986-.5087,.1671-1.2914-.4495-1.514-.8196-.296-1.4663,.3617-1.7106,1.0825-.0503,.1485,.0317,.3517,.1723,.4235,.6346,.324,1.3737,.1289,1.7214-.5076,.0796-.1458,.0621-.3354-.0586-.4544-.715-.7049-1.9474-.1933-2.0061,.7893-.0091,.1518,.122,.3328,.2753,.3616l.6905,.1295c.4093,.0768,.6625-.4496,.289-.6854-.4199-.2651-.8476-.3867-1.3436-.393-.3855-.0049-.4922,.5029-.1893,.6988,.3147,.2036,.6167,.295,.9863,.3396,.4252,.0514,.4997-.6316,.0997-.7366-.5026-.132-.9434-.0811-1.4161,.123-.277,.1196-.2095,.51,0,.6476,.3784,.2485,.7668,.3693,1.2157,.4124,.421,.0404,.5091-.6449,.0997-.7366l-1.4864-.3327c-.4701-.1052-.6709,.6169-.1994,.7232l.9216,.2077c.4699,.1059,.6707-.6157,.1994-.7232l-.9253-.2111c-.4697-.1071-.6703,.6135-.1994,.7232l1.9997,.4657-.2619-.4613-.1267,.2798,.6268,.3649c.0303-.1497,.1024-.2754,.2163-.3772l-.589-.4544c-.173,.3724-.2161,.7074-.1059,1.1074,.0577,.2095,.3542,.3754,.5509,.2241,.34-.2616,.5513-.5394,.6805-.9528,.1471-.4705-.5491-.637-.7232-.1994-.1426,.3586-.1542,.6804-.0869,1.0572,.0333,.1863,.2847,.3299,.4613,.2619,.3391-.1306,.5317-.3177,.6489-.6659,.1209-.3592-.374-.6271-.6268-.3649-.2676,.2777-.1824,.7455,.2133,.871,.5145,.1631,.7271-.3871,.7719-.7813,.0267-.2352-.2621-.4359-.4747-.3616-.5408,.1889-.8864,.535-1.0692,1.0788-.1143,.3401,.2782,.5477,.5509,.4235,.8085-.3683,1.2897-1.1915,1.2266-2.0757l-.7366,.0997c.1058,.4834,.5573,.7317,1.0262,.6047,.2419-.0656,.3357-.339,.2241-.5509l-.3432-.6516-.5131,.5131c.2904,.177,.4481,.3835,.5788,.6895l.589-.4544-.6175-.7388-.3649,.6268c.2841,.0995,.4652,.2105,.6869,.4136l.1655-.6268c-.1092,.0682-.2279,.0875-.356,.058-.4173-.0358-.5163,.6615-.0997,.7366,.1374,.0248,.2749,.0496,.4123,.0744l.0997-.7366-.8564,.0967c-.3924,.0443-.5418,.6245-.0997,.7366l1.1105,.2815,.1994-.7232-.8843-.2041c-.4253-.0982-.6353,.4443-.289,.6854,.2632,.1833,.5202,.2963,.8309,.3718l.1994-.7232-.4668-.1106c-.4703-.1115-.6603,.5786-.1994,.7232l.4463,.14c.4195,.1316,.6339-.4598,.289-.6854-.482-.3152-1.071-.3744-1.6064-.154-.2563,.1055-.4635,.2641-.6399,.4762-.1039,.125-.3718,.6819-.5418,.6486l.2619,.4613c.8119-2.4606,1.4194-5.0329,1.0833-7.6363-.0534-.4138-.5838-.5164-.7366-.0997-.8764,2.3895-2.0295,5.2662-4.8406,5.8038-.3535,.0676-.3624,.6627,0,.7232,1.1843,.1976,2.4838,.4622,2.9415,1.7278,.4679,1.2936,.473,2.8173,.3844,4.1725-.0243,.3719,.528,.5098,.6988,.1893,.4863-.9128,.6706-1.919,1.0203-2.8832,.357-.9842,1.2046-2.1946,2.4102-1.953,.2836,.0568,.637-.2649,.4235-.5509-.1059-.1418-.2117-.2836-.3176-.4255-.2854-.3823-.9368-.0088-.6476,.3785,.1059,.1418,.2117,.2836,.3176,.4255l.4235-.5509c-1.1546-.2314-2.142,.4171-2.7828,1.3448-.7912,1.1455-.8472,2.6206-1.4947,3.836l.6988,.1893c.0994-1.5213,.1078-3.4044-.5923-4.8059-.6291-1.2594-2.0047-1.6041-3.2842-1.8175v.7232c3.0853-.59,4.399-3.6954,5.3644-6.3276l-.7366-.0997c.3285,2.5448-.2631,5.0321-1.0565,7.437-.0601,.1821,.07,.4237,.2619,.4613,.4606,.0903,.7518-.1165,1.0262-.477,.4145-.5444,.873-1.0335,1.5827-.5695l.289-.6854-.4463-.14-.1994,.7232,.4668,.1106c.4691,.1112,.6692-.609,.1994-.7232-.2477-.0602-.4426-.1506-.6517-.2962l-.289,.6854,.8843,.2041c.469,.1082,.6689-.6042,.1994-.7232l-1.1105-.2815-.0997,.7366,.8564-.0967c.3809-.043,.5537-.6547,.0997-.7366-.1374-.0248-.2749-.0496-.4123-.0744l-.0997,.7366c.2033,.0175,.3657-.0054,.5554-.0848,.2413-.101,.396-.4156,.1655-.6268-.3079-.282-.6241-.4685-1.0179-.6064-.3855-.135-.5827,.3661-.3649,.6268l.6175,.7388c.2978,.3563,.7407-.0992,.589-.4544-.18-.4215-.4588-.7214-.8478-.9586-.3328-.2028-.682,.1923-.5131,.5131l.3432,.6516,.2241-.5509-.1036-.0809c-.0893-.4079-.7669-.325-.7366,.0997,.046,.6454-.2693,1.1613-.8551,1.4281l.5509,.4235c.0919-.2734,.2724-.4596,.5453-.555l-.4747-.3616,.3285,.1413-.0964,.3649,.0631-.0655-.6268-.3649-.1251,.1421,.4613,.2619c-.0438-.2455-.0028-.4329,.0869-.6584l-.7232-.1994c-.0471,.2089-.159,.3771-.3359,.5046l.5509,.2241c-.0713-.1787-.0612-.3552,.0303-.5295,.1687-.3631-.2774-.786-.589-.4544-.1991,.2119-.3254,.4288-.4092,.7081-.1029,.3431,.3816,.6584,.6268,.3649,.1621-.1942,.261-.3643,.3196-.6107,.0454-.1911-.0587-.414-.2619-.4613l-1.9997-.4657-.1994,.7232,.9253,.2111,.1994-.7232-.9216-.2077-.1994,.7232,1.4864,.3327,.0997-.7366c-.3191-.0306-.5707-.135-.8371-.31v.6476c.2882-.1245,.5385-.1261,.8382-.0474l.0997-.7366c-.2329-.0282-.4145-.1122-.6078-.2373l-.1893,.6988c.365,.0046,.6567,.0959,.9651,.2906l.289-.6854-.6905-.1295,.2753,.3616c.0204-.3413,.4969-.4847,.7258-.259l-.0586-.4544c-.1447,.265-.4128,.3827-.6952,.2385l.1723,.4235c.0822-.2426,.2684-.6081,.5857-.6072,.4063,.0011,.2795,.4867,.1271,.3329l.0964,.3649c.0575-.285,.2676-.4132,.545-.3205l-.2619-.2619c.0487,.3255-.3651,.4018-.5447,.2871v.6476l.2928-.0114-.1857-.3238c-.0597,.5589-.5569,.8787-1.0855,.8368l.375,.375c-.0024-.2148,.0232-.4004,.0831-.6067l-.7232-.1994-.0906,.4022c-.1059,.4701,.617,.6708,.7232,.1994h0Z"/>
      <path d="M37.2471,36.614l.5683-1.0387c.2103-.3844-.2703-.7293-.589-.4544-.2518,.2172-.5037,.4344-.7555,.6516-.2947,.2542,.0217,.7156,.3649,.6268,.1836-.0475,.3149-.1702,.3864-.3446,.0343-.0836,.0501-.1632,.059-.2537,.0037-.0396,.0059-.0792,.0067-.119,.0205-.0807-.0184-.0518-.1169,.0868h-.1994c-.0627-.0323-.1138-.076-.1533-.1311v-.1994l-.0055,.0287,.0964-.1655-.0186,.0191,.1655-.0964-.0334,.005,.4613,.4613c.1452-.3654,.3328-.7108,.5475-1.0398l-.6854-.289c-.0894,.3894-.1787,.7789-.2681,1.1683-.1079,.4701,.582,.6624,.7232,.1994l.2294-.752c.1231-.4034-.4836-.666-.6854-.289-.328,.6127-.6916,1.4006-.3009,2.0721,.3009,.5172,.9904,.8419,1.534,.4884l-.5509-.4235c-.0779,.2888-.2063,.5507-.4011,.7792-.1186,.1391-.17,.3985,0,.5303,.4769,.3699,1.0413,.5704,1.6499,.5164,.4846-.043,.4795-.6997,0-.75-.3244-.034-.6489-.0681-.9733-.1021-.1635-.0172-.3184,.129-.3616,.2753-.1146,.3883-.2292,.7765-.3438,1.1648-.0813,.2754,.1895,.5367,.4613,.4613,1.0652-.2954,2.155-.4388,3.2603-.4296,.2334,.002,.4391-.2427,.3616-.4747-.0454-.1359-.0908-.2717-.1361-.4076-.1522-.4555-.8767-.2602-.7232,.1994,.0454,.1359,.0908,.2717,.1361,.4076l.3616-.4747c-1.1681-.0098-2.3341,.1442-3.4597,.4563l.4613,.4613c.1146-.3883,.2292-.7765,.3438-1.1648l-.3616,.2753c.3244,.034,.6489,.0681,.9733,.1021v-.75c-.3973,.0352-.7986-.0479-1.1196-.2968v.5303c.2803-.3289,.4811-.6918,.594-1.1102,.082-.3038-.2703-.6059-.5509-.4235-.216,.1404-.4725-.0903-.544-.2982-.1401-.407,.1528-.8919,.3371-1.2362l-.6854-.289-.2294,.752,.7232,.1994c.0894-.3894,.1787-.7789,.2681-1.1683,.0958-.4175-.4512-.6479-.6854-.289-.2513,.3851-.4534,.7918-.6231,1.2189-.1182,.2976,.2148,.4981,.4613,.4613,.4897-.073,.3751-.7697-.0172-.8972-.2064-.0671-.4228,.0334-.5424,.2049-.0646,.0926-.0964,.1958-.112,.3068-.0057,.0404-.0231,.1061-.0141,.1472,.0202,.0924-.0959,.0127,.0997-.0379l.3649,.6268c.2518-.2172,.5037-.4344,.7555-.6516l-.589-.4544-.5683,1.0387c-.2318,.4236,.4156,.8026,.6476,.3785h0Z"/>
      <path d="M213.0456,164.732c3.6933-1.0738,5.9781-4.3432,7.9863-7.4025l-.6988-.1893c-.3146,2.4082-.4826,4.8227,.8002,6.9925,1.0238,1.7318,2.6913,2.9932,4.6218,3.536l.1994-.7232c-6.038-.8975-9.6559,4.7542-12.1493,9.3135-.2364,.4324,.3677,.7613,.6476,.3785,1.614-2.2071,1.9907-4.9982,1.6714-7.6624-.2667-2.2249-1.1973-5.2756-3.9997-5.0754-.4787,.0342-.4824,.7845,0,.75,2.7951-.1997,3.2752,3.5168,3.3477,5.5655,.0765,2.1592-.3773,4.28-1.667,6.0437l.6476,.3785c2.2928-4.1926,5.6662-9.8066,11.3023-8.9688,.4643,.069,.6771-.5889,.1994-.7232-1.8375-.5166-3.3922-1.7454-4.3072-3.4262-1.0827-1.9889-.8462-4.2202-.5642-6.3792,.0521-.3987-.5164-.4672-.6988-.1893-1.8948,2.8865-4.0464,6.0426-7.5381,7.0578-.4625,.1345-.2658,.8584,.1994,.7232h0Z"/>
    </g>
  </g>
</svg>